<svg width="111" height="38" viewBox="0 0 111 38" fill="none" xmlns="http://www.w3.org/2000/svg">
<path d="M102.214 0.407834H9.46189C9.1238 0.407834 8.78976 0.407834 8.45256 0.409673C8.17029 0.411512 7.89028 0.416854 7.6053 0.42135C6.9862 0.428615 6.36855 0.482928 5.75773 0.583818C5.14776 0.686905 4.5569 0.881252 4.00514 1.16029C3.45404 1.44168 2.9505 1.80733 2.51276 2.24396C2.07272 2.67936 1.70592 3.18262 1.42645 3.7344C1.14621 4.28508 0.951896 4.87518 0.850209 5.48433C0.747556 6.0927 0.692317 6.7081 0.684989 7.32498C0.676433 7.60687 0.675529 7.8897 0.671021 8.17163V29.4231C0.675529 29.7085 0.676433 29.9851 0.684989 30.2707C0.692319 30.8875 0.747558 31.5029 0.850209 32.1112C0.951615 32.7207 1.14594 33.3112 1.42645 33.8621C1.70579 34.4121 2.07265 34.9133 2.51276 35.3463C2.94884 35.7848 3.45271 36.1507 4.00514 36.43C4.5569 36.7097 5.14769 36.9053 5.75773 37.0099C6.36865 37.11 6.98624 37.1643 7.6053 37.1725C7.89028 37.1787 8.17029 37.1823 8.45256 37.1823C8.78975 37.1842 9.12382 37.1842 9.46189 37.1842H102.214C102.545 37.1842 102.882 37.1842 103.214 37.1823C103.494 37.1823 103.783 37.1787 104.063 37.1725C104.681 37.1648 105.298 37.1104 105.907 37.0099C106.519 36.9045 107.112 36.7091 107.667 36.43C108.219 36.1506 108.722 35.7847 109.158 35.3463C109.597 34.9116 109.964 34.4107 110.247 33.8621C110.526 33.3108 110.718 32.7204 110.818 32.1112C110.921 31.5028 110.978 30.8876 110.989 30.2707C110.993 29.9851 110.993 29.7085 110.993 29.4231C111 29.089 111 28.7569 111 28.4174V9.17543C111 8.83873 111 8.50473 110.993 8.17163C110.993 7.8897 110.993 7.60687 110.989 7.32495C110.978 6.70801 110.921 6.09275 110.818 5.48429C110.718 4.8755 110.525 4.28544 110.247 3.73436C109.678 2.62838 108.776 1.72813 107.667 1.1602C107.112 0.881851 106.519 0.687555 105.907 0.583736C105.298 0.482401 104.681 0.428068 104.063 0.421221C103.783 0.416734 103.494 0.411347 103.214 0.409554C102.882 0.407715 102.545 0.407715 102.214 0.407715V0.407834Z" fill="#A6A6A6"/>
<path d="M8.45733 36.3795C8.17642 36.3795 7.90229 36.3759 7.62359 36.3697C7.04622 36.3622 6.4702 36.312 5.90026 36.2197C5.36882 36.1284 4.85399 35.9587 4.37276 35.716C3.89595 35.4753 3.46106 35.1597 3.08474 34.7813C2.70299 34.4074 2.38515 33.9736 2.14385 33.4974C1.89988 33.018 1.73104 32.5041 1.64321 31.9737C1.54836 31.4038 1.49704 30.8275 1.48969 30.2498C1.48385 30.0559 1.4762 29.4103 1.4762 29.4103V8.17147C1.4762 8.17147 1.48435 7.53578 1.48974 7.34902C1.49677 6.77226 1.54779 6.19687 1.64236 5.62783C1.73035 5.09597 1.89932 4.58064 2.14342 4.09968C2.38384 3.62371 2.69991 3.18968 3.07937 2.81439C3.4584 2.43554 3.89469 2.11833 4.37231 1.87432C4.85243 1.63241 5.36628 1.46383 5.89665 1.37422C6.46847 1.28096 7.04649 1.23054 7.62585 1.22338L8.45778 1.21216H103.209L104.051 1.22383C104.625 1.23064 105.198 1.28061 105.765 1.37332C106.3 1.46405 106.819 1.63381 107.305 1.87702C108.262 2.36876 109.041 3.14674 109.532 4.10192C109.772 4.57956 109.938 5.09069 110.025 5.61795C110.121 6.19166 110.174 6.77158 110.185 7.35307C110.188 7.61344 110.188 7.89313 110.188 8.17147C110.195 8.51625 110.195 8.84441 110.195 9.17527V28.4173C110.195 28.7513 110.195 29.0772 110.188 29.4058C110.188 29.7048 110.188 29.9787 110.184 30.2606C110.174 30.8317 110.121 31.4013 110.027 31.9647C109.941 32.4989 109.773 33.0168 109.529 33.5001C109.286 33.9712 108.97 34.4012 108.593 34.7741C108.216 35.1546 107.78 35.472 107.302 35.7142C106.818 35.9588 106.3 36.1292 105.765 36.2197C105.195 36.3125 104.619 36.3627 104.041 36.3697C103.771 36.3759 103.488 36.3795 103.214 36.3795L102.214 36.3814L8.45733 36.3795Z" fill="white"/>
<path d="M23.5081 19.0724C23.518 18.305 23.7224 17.5525 24.1023 16.8851C24.4822 16.2176 25.0252 15.6569 25.6808 15.2549C25.2643 14.6617 24.7148 14.1736 24.0761 13.8292C23.4373 13.4849 22.7268 13.2938 22.001 13.2711C20.4527 13.1091 18.9518 14.195 18.1628 14.195C17.3586 14.195 16.1439 13.2872 14.8358 13.3141C13.9898 13.3413 13.1652 13.5867 12.4425 14.0262C11.7197 14.4657 11.1235 15.0844 10.7119 15.8221C8.92873 18.9006 10.2588 23.4251 11.9669 25.9136C12.8215 27.1321 13.8202 28.4932 15.1271 28.445C16.406 28.3921 16.8836 27.6318 18.4273 27.6318C19.9566 27.6318 20.4047 28.445 21.7381 28.4143C23.1104 28.3921 23.975 27.1903 24.7996 25.9603C25.4136 25.092 25.8861 24.1324 26.1996 23.117C25.4023 22.7807 24.722 22.2179 24.2433 21.4986C23.7647 20.7794 23.509 19.9356 23.5081 19.0724Z" fill="black"/>
<path d="M20.9893 11.6346C21.7375 10.7389 22.1061 9.58764 22.0168 8.42529C20.8737 8.54502 19.8178 9.08982 19.0595 9.95115C18.6887 10.3719 18.4047 10.8615 18.2238 11.3917C18.0429 11.922 17.9685 12.4827 18.005 13.0416C18.5768 13.0475 19.1424 12.9239 19.6593 12.6802C20.1762 12.4365 20.631 12.079 20.9893 11.6346Z" fill="black"/>
<path d="M39.6733 25.3601H35.3091L34.2611 28.446H32.4126L36.5462 17.0288H38.4667L42.6004 28.446H40.7204L39.6733 25.3601ZM35.7611 23.9361H39.2204L37.5151 18.9278H37.4674L35.7611 23.9361Z" fill="black"/>
<path d="M51.5277 24.2843C51.5277 26.871 50.1393 28.533 48.0441 28.533C47.5134 28.5607 46.9856 28.4387 46.5211 28.1812C46.0566 27.9236 45.6742 27.5408 45.4177 27.0766H45.3781V31.1996H43.6647V20.1218H45.3232V21.5063H45.3547C45.623 21.0444 46.0118 20.6636 46.4798 20.4044C46.9479 20.1453 47.4776 20.0175 48.0126 20.0347C50.1312 20.0347 51.5277 21.7048 51.5277 24.2843ZM49.7666 24.2843C49.7666 22.599 48.8932 21.4911 47.5606 21.4911C46.2515 21.4911 45.3709 22.6224 45.3709 24.2843C45.3709 25.9615 46.2515 27.0847 47.5606 27.0847C48.8932 27.0847 49.7666 25.9849 49.7666 24.2843Z" fill="black"/>
<path d="M60.7151 24.2843C60.7151 26.871 59.3267 28.533 57.2315 28.533C56.7008 28.5607 56.1729 28.4387 55.7084 28.1812C55.244 27.9236 54.8616 27.5408 54.6051 27.0766H54.5655V31.1996H52.8521V20.1218H54.5105V21.5063H54.5421C54.8103 21.0444 55.1991 20.6635 55.6672 20.4044C56.1352 20.1453 56.6649 20.0175 57.2 20.0347C59.3186 20.0347 60.7151 21.7048 60.7151 24.2843ZM58.9539 24.2843C58.9539 22.599 58.0806 21.4911 56.748 21.4911C55.4389 21.4911 54.5583 22.6224 54.5583 24.2843C54.5583 25.9615 55.4389 27.0847 56.748 27.0847C58.0806 27.0847 58.954 25.9849 58.954 24.2843H58.9539Z" fill="black"/>
<path d="M66.7877 25.2648C66.9146 26.397 68.0176 27.1404 69.5248 27.1404C70.969 27.1404 72.0081 26.397 72.0081 25.3761C72.0081 24.4899 71.3814 23.9593 69.8976 23.5957L68.4138 23.2392C66.3114 22.7328 65.3353 21.7524 65.3353 20.1614C65.3353 18.1915 67.0569 16.8384 69.5014 16.8384C71.9207 16.8384 73.5792 18.1915 73.635 20.1614H71.9054C71.8019 19.022 70.8574 18.3342 69.4771 18.3342C68.0968 18.3342 67.1523 19.0301 67.1523 20.0428C67.1523 20.85 67.7556 21.325 69.2313 21.6886L70.4927 21.9975C72.8418 22.5514 73.8178 23.4924 73.8178 25.1624C73.8178 27.2984 72.1116 28.6362 69.3978 28.6362C66.8588 28.6362 65.1444 27.3298 65.0337 25.2648L66.7877 25.2648Z" fill="black"/>
<path d="M77.5153 18.1521V20.122H79.1027V21.4751H77.5153V26.064C77.5153 26.7769 77.8331 27.1091 78.5309 27.1091C78.7194 27.1059 78.9075 27.0927 79.0946 27.0696V28.4146C78.7808 28.4731 78.462 28.4995 78.1429 28.4936C76.4529 28.4936 75.7938 27.8606 75.7938 26.2463V21.4751H74.5801V20.122H75.7938V18.1521H77.5153Z" fill="black"/>
<path d="M80.0217 24.2846C80.0217 21.6656 81.5686 20.0198 83.9807 20.0198C86.4009 20.0198 87.9406 21.6655 87.9406 24.2846C87.9406 26.9108 86.409 28.5494 83.9807 28.5494C81.5532 28.5494 80.0217 26.9108 80.0217 24.2846ZM86.1947 24.2846C86.1947 22.488 85.3691 21.4276 83.9807 21.4276C82.5923 21.4276 81.7676 22.4961 81.7676 24.2846C81.7676 26.0884 82.5923 27.1407 83.9807 27.1407C85.3691 27.1407 86.1947 26.0884 86.1947 24.2846H86.1947Z" fill="black"/>
<path d="M89.3536 20.1218H90.9878V21.5386H91.0275C91.138 21.0961 91.398 20.705 91.7637 20.4311C92.1293 20.1573 92.5784 20.0172 93.0353 20.0346C93.2328 20.034 93.4297 20.0553 93.6224 20.0984V21.6966C93.3731 21.6206 93.1131 21.5858 92.8525 21.5933C92.6036 21.5833 92.3554 21.627 92.1251 21.7216C91.8947 21.8162 91.6876 21.9594 91.518 22.1414C91.3484 22.3233 91.2203 22.5397 91.1424 22.7757C91.0646 23.0117 91.0389 23.2616 91.0671 23.5085V28.4458H89.3536L89.3536 20.1218Z" fill="black"/>
<path d="M101.522 26.0011C101.292 27.5122 99.816 28.5492 97.9279 28.5492C95.4995 28.5492 93.9923 26.9268 93.9923 24.3239C93.9923 21.7129 95.5076 20.0195 97.8558 20.0195C100.165 20.0195 101.618 21.6016 101.618 24.1254V24.7108H95.7219V24.8141C95.6947 25.1204 95.7332 25.4291 95.8348 25.7194C95.9364 26.0098 96.0987 26.2753 96.3111 26.4983C96.5235 26.7213 96.781 26.8967 97.0666 27.0129C97.3522 27.129 97.6593 27.1832 97.9675 27.1719C98.3724 27.2097 98.7787 27.1162 99.1261 26.9052C99.4734 26.6943 99.7431 26.3772 99.8952 26.0011L101.522 26.0011ZM95.73 23.5167H99.9033C99.9187 23.2412 99.8768 22.9656 99.7803 22.707C99.6838 22.4485 99.5347 22.2126 99.3425 22.0143C99.1502 21.8159 98.9189 21.6593 98.6631 21.5543C98.4073 21.4493 98.1324 21.3981 97.8558 21.404C97.5768 21.4024 97.3002 21.4558 97.042 21.5613C96.7838 21.6668 96.5491 21.8223 96.3515 22.0187C96.1539 22.2151 95.9972 22.4486 95.8905 22.7057C95.7839 22.9628 95.7293 23.2385 95.73 23.5167V23.5167Z" fill="black"/>
</svg>
