<svg width="27" height="28" viewBox="0 0 27 28" fill="none" xmlns="http://www.w3.org/2000/svg">
<path d="M8.56483 4.17963C8.56483 3.72468 8.19601 3.35587 7.74106 3.35587C7.2861 3.35587 6.91729 3.72468 6.91729 4.17963H6.6427C4.21627 4.17963 2.24927 6.14664 2.24927 8.57307V20.655C2.24927 23.0814 4.21627 25.0484 6.6427 25.0484H14.6058C15.0608 25.0484 15.4296 24.6796 15.4296 24.2247C15.4296 23.7697 15.0608 23.4009 14.6058 23.4009H6.6427C5.12618 23.4009 3.8968 22.1715 3.8968 20.655V8.57307C3.8968 7.05655 5.12618 5.82717 6.6427 5.82717H6.91729V7.47471C6.91729 7.92966 7.2861 8.29848 7.74106 8.29848C8.19601 8.29848 8.56483 7.92966 8.56483 7.47471V5.82717H17.9009V7.47471C17.9009 7.92966 18.2697 8.29848 18.7246 8.29848C19.1796 8.29848 19.5484 7.92966 19.5484 7.47471V5.82717H19.823C21.3395 5.82717 22.5689 7.05655 22.5689 8.57307V15.4378C22.5689 15.8928 22.9377 16.2616 23.3927 16.2616C23.8476 16.2616 24.2164 15.8928 24.2164 15.4378V8.57307C24.2164 6.14664 22.2494 4.17963 19.823 4.17963H19.5484C19.5484 3.72468 19.1796 3.35587 18.7246 3.35587C18.2697 3.35587 17.9009 3.72468 17.9009 4.17963H8.56483Z" fill="#A0576F"/>
<path fill-rule="evenodd" clip-rule="evenodd" d="M24.1428 21.4308C23.7676 23.0332 21.5723 24.4535 20.715 24.9546C20.5009 25.0797 20.2435 25.0797 20.0294 24.9546C19.172 24.4535 16.9768 23.0332 16.6016 21.4308C16.2627 19.9839 17.1227 18.4806 18.5789 18.459C18.6089 18.4585 18.6394 18.4583 18.6704 18.4583C18.727 18.4583 18.783 18.461 18.8383 18.4662C19.2263 18.5025 19.5787 18.6579 19.8476 18.8165C20.0075 18.9108 20.2211 18.9719 20.4068 18.9719C20.5924 18.9719 20.7369 18.9108 20.8968 18.8165C21.204 18.6353 21.6201 18.4583 22.074 18.4583C22.1049 18.4583 22.1354 18.4585 22.1655 18.459C23.6217 18.4806 24.4816 19.9839 24.1428 21.4308ZM19.0104 20.2355C19.411 20.4718 19.912 20.6194 20.4068 20.6194C21.0124 20.6194 21.4563 20.3993 21.7339 20.2355C21.8123 20.1893 21.8879 20.1537 21.9549 20.1312C22.0216 20.1088 22.0603 20.1058 22.074 20.1058C22.0969 20.1058 22.1192 20.106 22.141 20.1063C22.2497 20.1079 22.3427 20.1458 22.4358 20.2926C22.5444 20.4638 22.6112 20.7456 22.5387 21.0552C22.4731 21.335 22.1644 21.8033 21.5218 22.3684C21.1368 22.7069 20.7214 23.0029 20.3722 23.2303C20.023 23.0029 19.6076 22.7069 19.2226 22.3684C18.5799 21.8033 18.2712 21.335 18.2057 21.0552C18.1332 20.7456 18.2 20.4638 18.3085 20.2926C18.4016 20.1458 18.4947 20.1079 18.6033 20.1063L18.638 20.1059L18.6704 20.1058C18.6841 20.1058 18.7227 20.1088 18.7894 20.1312C18.8564 20.1537 18.9321 20.1893 19.0104 20.2355Z" fill="#A0576F"/>
<path d="M8.83942 11.8681C8.83942 12.4747 8.34766 12.9665 7.74106 12.9665C7.13445 12.9665 6.6427 12.4747 6.6427 11.8681C6.6427 11.2615 7.13445 10.7698 7.74106 10.7698C8.34766 10.7698 8.83942 11.2615 8.83942 11.8681Z" fill="#A0576F"/>
<path d="M13.2328 12.9665C13.8395 12.9665 14.3312 12.4747 14.3312 11.8681C14.3312 11.2615 13.8395 10.7698 13.2328 10.7698C12.6262 10.7698 12.1345 11.2615 12.1345 11.8681C12.1345 12.4747 12.6262 12.9665 13.2328 12.9665Z" fill="#A0576F"/>
<path d="M19.823 11.8681C19.823 12.4747 19.3312 12.9665 18.7246 12.9665C18.118 12.9665 17.6263 12.4747 17.6263 11.8681C17.6263 11.2615 18.118 10.7698 18.7246 10.7698C19.3312 10.7698 19.823 11.2615 19.823 11.8681Z" fill="#A0576F"/>
<path d="M7.74106 16.8108C8.34766 16.8108 8.83942 16.319 8.83942 15.7124C8.83942 15.1058 8.34766 14.614 7.74106 14.614C7.13445 14.614 6.6427 15.1058 6.6427 15.7124C6.6427 16.319 7.13445 16.8108 7.74106 16.8108Z" fill="#A0576F"/>
<path d="M14.3312 15.7124C14.3312 16.319 13.8395 16.8108 13.2328 16.8108C12.6262 16.8108 12.1345 16.319 12.1345 15.7124C12.1345 15.1058 12.6262 14.614 13.2328 14.614C13.8395 14.614 14.3312 15.1058 14.3312 15.7124Z" fill="#A0576F"/>
<path d="M18.7246 16.8108C19.3312 16.8108 19.823 16.319 19.823 15.7124C19.823 15.1058 19.3312 14.614 18.7246 14.614C18.118 14.614 17.6263 15.1058 17.6263 15.7124C17.6263 16.319 18.118 16.8108 18.7246 16.8108Z" fill="#A0576F"/>
<path d="M8.83942 19.5566C8.83942 20.1633 8.34766 20.655 7.74106 20.655C7.13445 20.655 6.6427 20.1633 6.6427 19.5566C6.6427 18.95 7.13445 18.4583 7.74106 18.4583C8.34766 18.4583 8.83942 18.95 8.83942 19.5566Z" fill="#A0576F"/>
<path d="M13.2328 20.655C13.8395 20.655 14.3312 20.1633 14.3312 19.5566C14.3312 18.95 13.8395 18.4583 13.2328 18.4583C12.6262 18.4583 12.1345 18.95 12.1345 19.5566C12.1345 20.1633 12.6262 20.655 13.2328 20.655Z" fill="#A0576F"/>
</svg>
