<svg width="18" height="20" viewBox="0 0 18 20" fill="none" xmlns="http://www.w3.org/2000/svg">
<path id="Vector" fill-rule="evenodd" clip-rule="evenodd" d="M5.2499 4.84668V4.22168C5.2499 2.15074 6.92897 0.47168 8.9999 0.47168C11.0708 0.47168 12.7499 2.15074 12.7499 4.22168V4.84668H13.2965C14.539 4.84668 15.5899 5.76324 15.7649 6.99356L17.0993 16.3686C17.3137 17.8717 16.1508 19.2217 14.6312 19.2217H3.36865C1.84897 19.2217 0.686155 17.8717 0.900217 16.3686L2.2349 6.99356C2.4099 5.76324 3.46084 4.84668 4.70365 4.84668H5.2499ZM6.4999 7.34668C6.4999 7.51244 6.43406 7.67141 6.31685 7.78862C6.19964 7.90583 6.04067 7.97168 5.8749 7.97168C5.70914 7.97168 5.55017 7.90583 5.43296 7.78862C5.31575 7.67141 5.2499 7.51244 5.2499 7.34668V6.09668H4.70334C4.40337 6.09732 4.11371 6.20618 3.88758 6.40327C3.66144 6.60035 3.51402 6.87243 3.4724 7.16949L2.13803 16.5445C2.0299 17.3001 2.61397 17.9717 3.36865 17.9717H14.6312C15.3855 17.9717 15.9696 17.3001 15.8621 16.5445L14.5274 7.16949C14.4858 6.87237 14.3383 6.60026 14.1121 6.40316C13.8859 6.20607 13.5962 6.09724 13.2962 6.09668H12.7499V7.34668C12.7499 7.51244 12.6841 7.67141 12.5668 7.78862C12.4496 7.90583 12.2907 7.97168 12.1249 7.97168C11.9591 7.97168 11.8002 7.90583 11.683 7.78862C11.5658 7.67141 11.4999 7.51244 11.4999 7.34668V6.09668H6.4999V7.34668ZM11.4999 4.84668V4.22168C11.4999 3.55864 11.2365 2.92275 10.7677 2.45391C10.2988 1.98507 9.66295 1.72168 8.9999 1.72168C8.33686 1.72168 7.70098 1.98507 7.23214 2.45391C6.7633 2.92275 6.49991 3.55864 6.4999 4.22168V4.84668H11.4999Z" fill="#EBE4DF"/>
</svg>
