<svg width="35" height="35" viewBox="0 0 35 35" fill="none" xmlns="http://www.w3.org/2000/svg">
<g clip-path="url(#clip0_2024_3745)">
<path d="M2.87093 20.0587C4.43574 20.0587 5.70426 18.7902 5.70426 17.2254C5.70426 15.6606 4.43574 14.3921 2.87093 14.3921C1.30612 14.3921 0.0375977 15.6606 0.0375977 17.2254C0.0375977 18.7902 1.30612 20.0587 2.87093 20.0587Z" fill="#EBE4DF"/>
<path d="M17.0377 20.0587C18.6025 20.0587 19.871 18.7902 19.871 17.2254C19.871 15.6606 18.6025 14.3921 17.0377 14.3921C15.4729 14.3921 14.2043 15.6606 14.2043 17.2254C14.2043 18.7902 15.4729 20.0587 17.0377 20.0587Z" fill="#EBE4DF"/>
<path d="M31.2042 20.0587C32.769 20.0587 34.0375 18.7902 34.0375 17.2254C34.0375 15.6606 32.769 14.3921 31.2042 14.3921C29.6394 14.3921 28.3708 15.6606 28.3708 17.2254C28.3708 18.7902 29.6394 20.0587 31.2042 20.0587Z" fill="#EBE4DF"/>
</g>
<defs>
<clipPath id="clip0_2024_3745">
<rect width="34" height="34" fill="white" transform="translate(0.0375977 0.224976)"/>
</clipPath>
</defs>
</svg>
