<svg width="171" height="171" viewBox="0 0 171 171" fill="none" xmlns="http://www.w3.org/2000/svg">
<g id="svgexport-15 (7) 1" opacity="0.5">
<g id="Group">
<path id="Vector" d="M161.07 75.0203H47.7639L58.3028 132.517H148.796L161.213 75.0137C161.165 75.0143 161.118 75.0203 161.07 75.0203Z" fill="#D1CCCC"/>
<path id="Vector_2" d="M161.07 62.8765H45.5381L47.7641 75.02H161.07C163.375 75.02 165.261 73.134 165.261 70.8286V67.0679C165.261 64.7632 163.375 62.8765 161.07 62.8765Z" fill="white"/>
<path id="Vector_3" d="M124.767 168.949C133.05 168.949 139.764 162.234 139.764 153.952C139.764 145.669 133.05 138.955 124.767 138.955C116.485 138.955 109.771 145.669 109.771 153.952C109.771 162.234 116.485 168.949 124.767 168.949Z" fill="#E0D5D5"/>
<path id="Vector_4" d="M76.5599 168.949C84.8425 168.949 91.5568 162.234 91.5568 153.952C91.5568 145.669 84.8425 138.955 76.5599 138.955C68.2773 138.955 61.563 145.669 61.563 153.952C61.563 162.234 68.2773 168.949 76.5599 168.949Z" fill="#E0D5D5"/>
<path id="Vector_5" d="M150.023 132.516H58.3032L40.4055 34.8757C40.1802 33.6463 39.5309 32.5348 38.5707 31.7346C37.6104 30.9345 36.4 30.4963 35.1501 30.4963H8.43566C7.01867 30.4963 5.65972 31.0592 4.65775 32.0612C3.65579 33.0632 3.0929 34.4221 3.0929 35.8391C3.0929 37.2561 3.65579 38.615 4.65775 39.617C5.65972 40.619 7.01867 41.1819 8.43566 41.1819H30.6974L48.595 138.822C48.8204 140.052 49.4697 141.163 50.4299 141.963C51.3901 142.764 52.6005 143.202 53.8504 143.202H66.116C68.8167 140.577 72.4968 138.955 76.5602 138.955C80.6236 138.955 84.3036 140.578 87.0043 143.202H114.324C117.025 140.577 120.705 138.955 124.768 138.955C128.832 138.955 132.512 140.578 135.213 143.202H150.023C151.44 143.202 152.799 142.639 153.801 141.637C154.803 140.635 155.366 139.276 155.366 137.859C155.366 136.442 154.803 135.083 153.801 134.081C152.799 133.079 151.44 132.516 150.023 132.516Z" fill="#E0D5D5"/>
<path id="Vector_6" d="M124.768 160.031C128.125 160.031 130.847 157.31 130.847 153.952C130.847 150.594 128.125 147.873 124.768 147.873C121.41 147.873 118.688 150.594 118.688 153.952C118.688 157.31 121.41 160.031 124.768 160.031Z" fill="white"/>
<path id="Vector_7" d="M76.5599 160.031C79.9175 160.031 82.6393 157.31 82.6393 153.952C82.6393 150.594 79.9175 147.873 76.5599 147.873C73.2023 147.873 70.4805 150.594 70.4805 153.952C70.4805 157.31 73.2023 160.031 76.5599 160.031Z" fill="white"/>
<g id="Group_2">
<path id="Vector_8" d="M71.7877 87.3811H71.4264C68.7963 87.3811 66.6443 89.5331 66.6443 92.1632V113.792C66.6443 116.422 68.7963 118.574 71.4264 118.574H71.7877C74.4178 118.574 76.5698 116.422 76.5698 113.792V92.1632C76.5698 89.5331 74.4178 87.3811 71.7877 87.3811ZM92.8194 87.3811H92.4581C89.828 87.3811 87.676 89.5331 87.676 92.1632V113.792C87.676 116.422 89.828 118.574 92.4581 118.574H92.8194C95.4494 118.574 97.6015 116.422 97.6015 113.792V92.1632C97.6015 89.5331 95.4494 87.3811 92.8194 87.3811ZM113.851 87.3811H113.49C110.86 87.3811 108.708 89.5331 108.708 92.1632V113.792C108.708 116.422 110.86 118.574 113.49 118.574H113.851C116.481 118.574 118.633 116.422 118.633 113.792V92.1632C118.633 89.5331 116.482 87.3811 113.851 87.3811ZM134.883 87.3811H134.522C131.892 87.3811 129.74 89.5331 129.74 92.1632V113.792C129.74 116.422 131.892 118.574 134.522 118.574H134.883C137.514 118.574 139.666 116.422 139.666 113.792V92.1632C139.666 89.5331 137.514 87.3811 134.883 87.3811Z" fill="white"/>
</g>
<path id="Vector_9" d="M103.177 1.72046C101.766 1.72046 100.414 2.28083 99.4162 3.27829C98.4187 4.27575 97.8583 5.62859 97.8583 7.03922V26.1869C97.8583 27.5975 98.4187 28.9504 99.4162 29.9478C100.414 30.9453 101.766 31.5056 103.177 31.5056C104.588 31.5056 105.941 30.9453 106.938 29.9478C107.935 28.9504 108.496 27.5975 108.496 26.1869V7.03922C108.496 5.62859 107.935 4.27575 106.938 3.27829C105.941 2.28083 104.588 1.72046 103.177 1.72046ZM145.975 21.5568C145.481 21.0629 144.895 20.6711 144.25 20.4037C143.604 20.1364 142.913 19.9988 142.214 19.9988C141.516 19.9988 140.824 20.1364 140.179 20.4037C139.533 20.6711 138.947 21.0629 138.453 21.5568L124.913 35.0964C122.836 37.1737 122.836 40.5411 124.913 42.6185C126.991 44.6959 130.358 44.6959 132.436 42.6185L145.975 29.0789C146.972 28.0813 147.533 26.7284 147.533 25.3179C147.533 23.9073 146.972 22.5544 145.975 21.5568ZM67.9018 21.5568C65.8244 19.4794 62.4571 19.4794 60.3797 21.5568C58.3023 23.6342 58.3023 27.0016 60.3797 29.0789L73.9193 42.6185C75.9966 44.6959 79.364 44.6959 81.4414 42.6185C83.5188 40.5411 83.5188 37.1737 81.4414 35.0964L67.9018 21.5568Z" fill="white"/>
</g>
</g>
</svg>
