<svg width="119" height="952" viewBox="0 0 119 952" fill="none" xmlns="http://www.w3.org/2000/svg">
<g style="mix-blend-mode:soft-light" opacity="0.45">
<mask id="mask0_2107_5058" style="mask-type:luminance" maskUnits="userSpaceOnUse" x="0" y="0" width="191" height="1024">
<path d="M190.829 0H0V1024H190.829V0Z" fill="white"/>
</mask>
<g mask="url(#mask0_2107_5058)">
<path d="M94.5743 28.6816L1.18597 121.998V250.558L26.3219 225.432V177.237H162.828V226.465L187.953 251.572V121.998L94.5743 28.6816ZM162.828 152.112H26.3219V132.4L94.5743 64.1898L162.828 132.4V152.112Z" fill="#BAA1A9"/>
<path d="M47.9088 492.61L25.8187 470.538V407.931L0.683716 382.815V480.948L30.1369 510.379L47.9088 492.61Z" fill="#BAA1A9"/>
<path d="M186.758 360.145V303.938H25.8189V283.449L94.0722 215.258L162.325 283.449V291.831H187.46V273.057L94.0722 179.731L0.683888 273.057V329.254H161.632V349.734L93.3791 417.925L25.136 349.734V341.352H3.05176e-05V360.145L93.3791 453.442L186.758 360.145Z" fill="#BAA1A9"/>
<path d="M180.335 900.2L162.828 882.716V900.2V987.856L149.183 976.848L129.92 961.289L125.423 957.667L109.861 945.114L1.27219 857.477V1024H135.035L109.899 998.874H26.4072V910.051L136.534 998.931L167.61 1024H187.964V907.833L180.335 900.2Z" fill="#BAA1A9"/>
<path d="M94.5743 655.673L1.18597 748.99V837.423L26.3219 857.704V810.572H162.828V862.227H164.336L187.953 885.826V748.971L94.5743 655.654V655.673ZM162.828 785.465H26.3219V759.381L94.5743 691.19L162.828 759.381V785.465Z" fill="#BAA1A9"/>
<path d="M188.02 633.344H136.714L188.02 665.828V727.04L162.866 701.924V679.633L101.957 641.062L92.9332 635.335L89.7734 633.344H26.3794V701.838L1.24344 726.964V556.459L37.7557 519.984L38.7528 518.988L56.534 501.239L60.9272 496.82L94.6317 463.142L123.553 492.051L105.772 509.8L94.6317 498.669L76.5938 516.684V516.693L74.3069 518.988L56.534 536.747L26.3794 566.869V608.228H162.866V566.869L132.169 536.197L94.0721 574.256L65.2833 545.489L83.0553 527.739L94.0721 538.747L114.415 518.438L114.397 518.429L132.169 500.66L132.188 500.679L162.324 470.547V406.538L187.46 381.431V480.948L149.951 518.429L188.02 556.459V633.344Z" fill="#BAA1A9"/>
<path d="M149.942 518.429L187.46 480.948V381.431L162.315 406.538V470.538L132.179 500.67L132.169 500.66L114.388 518.429L114.406 518.438L94.0721 538.747L83.046 527.739L65.2731 545.489L94.0721 574.256L132.169 536.197L149.942 518.429Z" fill="#BAA1A9"/>
<path d="M0.104797 0V18.176V22.8883V100.134L29.52 75.0175V24.6519H161.414V49.3037H190.829V22.8883V18.176V0H0.104797Z" fill="#BAA1A9"/>
</g>
</g>
</svg>
