<svg width="24" height="24" viewBox="0 0 24 24" fill="none" xmlns="http://www.w3.org/2000/svg">
<g id="svgexport-15 (4) 1">
<g id="Group">
<g id="Group_2">
<path id="Vector" d="M11.9983 10.5228C13.1505 10.5228 14.1983 10.9944 14.9563 11.7524C15.7143 12.5138 16.186 13.5582 16.186 14.7104V16.7722C16.1868 17.0512 16.1326 17.3276 16.0262 17.5855C15.9199 17.8434 15.7636 18.0777 15.5663 18.275C15.369 18.4723 15.1347 18.6286 14.8768 18.7349C14.6189 18.8413 14.3425 18.8955 14.0635 18.8947H9.93313C9.65416 18.8955 9.37776 18.8413 9.11985 18.7349C8.86194 18.6286 8.62761 18.4723 8.43035 18.275C8.23308 18.0777 8.07678 17.8434 7.97043 17.5855C7.86408 17.3276 7.80979 17.0512 7.81068 16.7722V14.7104C7.81068 13.5582 8.28234 12.5138 9.04036 11.7524C9.79838 10.9944 10.8461 10.5228 11.9949 10.5228H11.9983ZM14.4678 12.2409C14.1438 11.916 13.759 11.6582 13.3352 11.4823C12.9115 11.3063 12.4571 11.2158 11.9983 11.2158C11.5395 11.2158 11.0852 11.3063 10.6614 11.4823C10.2377 11.6582 9.85279 11.916 9.52886 12.2409C9.20348 12.5647 8.94522 12.9494 8.76889 13.3732C8.59256 13.797 8.50163 14.2514 8.50132 14.7104V16.7722C8.50043 16.9609 8.53694 17.148 8.60875 17.3225C8.68056 17.497 8.78624 17.6556 8.91969 17.789C9.05313 17.9225 9.2117 18.0281 9.38623 18.1C9.56076 18.1718 9.74778 18.2083 9.9365 18.2074H14.0635C14.2519 18.2078 14.4386 18.171 14.6127 18.099C14.7869 18.027 14.945 17.9212 15.0781 17.7878C15.2112 17.6544 15.3166 17.496 15.3882 17.3217C15.4598 17.1474 15.4962 16.9606 15.4953 16.7722V14.7104C15.4953 13.7502 15.1045 12.8743 14.4678 12.2409ZM11.9983 5.10207C12.3451 5.10073 12.6887 5.16805 13.0094 5.30015C13.33 5.43224 13.6214 5.6265 13.8666 5.87172C14.1118 6.11693 14.3061 6.40827 14.4381 6.72892C14.5702 7.04956 14.6376 7.39319 14.6362 7.73998C14.6371 8.08648 14.5695 8.42975 14.4372 8.75001C14.3049 9.07027 14.1106 9.3612 13.8654 9.60606C13.6202 9.85092 13.329 10.0449 13.0086 10.1768C12.6882 10.3086 12.3448 10.3759 11.9983 10.3745C11.6521 10.3754 11.3091 10.3079 10.9891 10.1758C10.669 10.0437 10.3783 9.84968 10.1334 9.60486C9.88862 9.36004 9.69459 9.06926 9.56251 8.74922C9.43043 8.42919 9.36289 8.0862 9.36378 7.73998C9.36244 7.39347 9.42965 7.05013 9.56154 6.7297C9.69342 6.40927 9.88738 6.11809 10.1322 5.87291C10.3771 5.62774 10.668 5.43341 10.9883 5.30112C11.3085 5.16883 11.6518 5.10118 11.9983 5.10207ZM13.356 6.38228C13.1784 6.20331 12.9672 6.06126 12.7345 5.96433C12.5017 5.86739 12.2521 5.81748 12 5.81748C11.7479 5.81748 11.4983 5.86739 11.2655 5.96433C11.0328 6.06126 10.8216 6.20331 10.644 6.38228C10.465 6.55985 10.323 6.77109 10.226 7.00383C10.1291 7.23656 10.0792 7.48618 10.0792 7.73829C10.0792 7.99041 10.1291 8.24003 10.226 8.47276C10.323 8.70549 10.465 8.91674 10.644 9.09431C10.8216 9.27328 11.0328 9.41533 11.2655 9.51226C11.4983 9.6092 11.7479 9.65911 12 9.65911C12.2521 9.65911 12.5017 9.6092 12.7345 9.51226C12.9672 9.41533 13.1784 9.27328 13.356 9.09431C13.535 8.91674 13.677 8.70549 13.774 8.47276C13.8709 8.24003 13.9208 7.99041 13.9208 7.73829C13.9208 7.48618 13.8709 7.23656 13.774 7.00383C13.677 6.77109 13.535 6.55985 13.356 6.38228ZM17.0282 6.608C17.3004 6.60756 17.57 6.66085 17.8216 6.76481C18.0732 6.86878 18.3018 7.02138 18.4943 7.21386C18.6867 7.40635 18.8393 7.63493 18.9433 7.88651C19.0473 8.13809 19.1006 8.40771 19.1001 8.67992C19.101 8.95242 19.048 9.22241 18.9443 9.47437C18.8405 9.72634 18.688 9.95532 18.4955 10.1482C18.3029 10.341 18.0742 10.4939 17.8224 10.5981C17.5706 10.7023 17.3007 10.7557 17.0282 10.7552C16.7554 10.7561 16.4852 10.703 16.233 10.5991C15.9808 10.4951 15.7516 10.3422 15.5588 10.1494C15.3659 9.95647 15.213 9.72734 15.1091 9.47515C15.0051 9.22297 14.952 8.9527 14.9529 8.67992C14.9525 8.40743 15.0059 8.13753 15.11 7.88573C15.2142 7.63393 15.3671 7.4052 15.56 7.21267C15.7528 7.02014 15.9818 6.86761 16.2337 6.76384C16.4857 6.66008 16.7557 6.60711 17.0282 6.608ZM17.985 7.71976C17.7962 7.52766 17.5543 7.39636 17.2904 7.34274C17.0264 7.28911 16.7525 7.3156 16.5037 7.4188C16.255 7.522 16.0427 7.69721 15.8942 7.92193C15.7458 8.14664 15.6679 8.4106 15.6705 8.67992C15.6679 8.94924 15.7458 9.21321 15.8942 9.43792C16.0427 9.66263 16.255 9.83784 16.5037 9.94105C16.7525 10.0442 17.0264 10.0707 17.2904 10.0171C17.5543 9.96348 17.7962 9.83219 17.985 9.64008C18.1119 9.51446 18.2127 9.36492 18.2814 9.20011C18.3502 9.0353 18.3856 8.8585 18.3856 8.67992C18.3856 8.50135 18.3502 8.32454 18.2814 8.15973C18.2127 7.99493 18.1119 7.84539 17.985 7.71976Z" fill="#6B8B9B"/>
<path id="Vector_2" d="M17.0282 10.9978C17.9176 10.9978 18.7262 11.3617 19.3124 11.9479C19.6146 12.2479 19.8544 12.6049 20.018 12.998C20.1817 13.3912 20.2659 13.8129 20.2658 14.2388V15.7885C20.2667 16.01 20.2237 16.2294 20.1394 16.4342C20.055 16.639 19.931 16.825 19.7744 16.9816C19.6178 17.1382 19.4317 17.2622 19.227 17.3466C19.0222 17.4309 18.8028 17.4739 18.5813 17.473H16.4252C16.4924 17.25 16.5275 17.0186 16.5296 16.7857H18.5813C18.7122 16.7862 18.8419 16.7607 18.9629 16.7107C19.0839 16.6607 19.1938 16.5872 19.2862 16.4944C19.3787 16.4017 19.4518 16.2916 19.5014 16.1704C19.551 16.0492 19.576 15.9194 19.5751 15.7885V14.2388C19.5754 13.9039 19.5095 13.5722 19.3812 13.2629C19.2528 12.9536 19.0646 12.6727 18.8272 12.4364C18.4211 12.0288 17.8886 11.7712 17.317 11.7057C16.7453 11.6402 16.1684 11.7707 15.6806 12.0759C15.545 11.8874 15.3952 11.7094 15.2325 11.5436C15.7635 11.1871 16.3887 10.997 17.0282 10.9978ZM6.9718 6.60804C7.2443 6.60716 7.51429 6.66012 7.76625 6.76388C8.01822 6.86765 8.2472 7.02018 8.44004 7.21271C8.63288 7.40524 8.78578 7.63397 8.88996 7.88577C8.99414 8.13757 9.04754 8.40747 9.04709 8.67996C9.04798 8.95274 8.99491 9.22301 8.89093 9.47519C8.78695 9.72738 8.63412 9.95651 8.44124 10.1494C8.24835 10.3423 8.01922 10.4951 7.76703 10.5991C7.51485 10.7031 7.24458 10.7561 6.9718 10.7553C6.69902 10.7561 6.42876 10.7031 6.17657 10.5991C5.92438 10.4951 5.69525 10.3423 5.50237 10.1494C5.30948 9.95651 5.15665 9.72738 5.05267 9.47519C4.9487 9.22301 4.89562 8.95274 4.89651 8.67996C4.89607 8.40747 4.94947 8.13757 5.05365 7.88577C5.15782 7.63397 5.31072 7.40524 5.50356 7.21271C5.69641 7.02018 5.92539 6.86765 6.17735 6.76388C6.42932 6.66012 6.69931 6.60716 6.9718 6.60804ZM7.92859 7.71981C7.73963 7.52888 7.49804 7.39862 7.23468 7.34567C6.97132 7.29273 6.69816 7.31949 6.45009 7.42255C6.20202 7.52562 5.99031 7.70029 5.842 7.92427C5.69369 8.14824 5.61552 8.41134 5.61747 8.67996C5.61552 8.94858 5.69369 9.21169 5.842 9.43566C5.99031 9.65964 6.20202 9.83431 6.45009 9.93737C6.69816 10.0404 6.97132 10.0672 7.23468 10.0143C7.49804 9.96131 7.73963 9.83105 7.92859 9.64012C8.05551 9.5145 8.15626 9.36496 8.22502 9.20015C8.29379 9.03534 8.32919 8.85854 8.32919 8.67996C8.32919 8.50139 8.29379 8.32458 8.22502 8.15978C8.15626 7.99497 8.05551 7.84543 7.92859 7.71981ZM6.9718 10.9978C7.63549 10.9978 8.25201 11.2 8.76747 11.5436C8.60483 11.7094 8.45504 11.8874 8.31939 12.0759C7.83237 11.7683 7.25487 11.6364 6.68259 11.7019C6.11031 11.7675 5.57762 12.0266 5.17277 12.4364C4.93524 12.672 4.74659 12.9522 4.61767 13.2609C4.48874 13.5697 4.42207 13.9008 4.42149 14.2354V15.7885C4.42059 15.9197 4.44577 16.0498 4.49557 16.1712C4.54537 16.2926 4.61879 16.4029 4.71157 16.4956C4.80435 16.5884 4.91464 16.6618 5.03603 16.7116C5.15742 16.7614 5.2875 16.7866 5.41871 16.7857H7.47041C7.47041 17.0215 7.5041 17.2506 7.57148 17.473H5.41534C5.19416 17.4734 4.97508 17.4301 4.77069 17.3456C4.56631 17.2611 4.38066 17.137 4.22442 16.9804C4.06818 16.8239 3.94444 16.638 3.86031 16.4334C3.77618 16.2288 3.73333 16.0097 3.73422 15.7885V14.2388C3.73422 13.346 4.09807 12.5341 4.68427 11.9479C4.98421 11.6467 5.3407 11.4077 5.73327 11.2447C6.12583 11.0816 6.54673 10.9977 6.9718 10.9978Z" fill="#6B8B9B"/>
</g>
</g>
</g>
</svg>
