<svg width="28" height="28" viewBox="0 0 28 28" fill="none" xmlns="http://www.w3.org/2000/svg">
<path d="M6.06887 14.899L5.22295 14.803L5.22295 14.803L6.06887 14.899ZM6.57649 10.4265L7.42241 10.5225L7.42241 10.5225L6.57649 10.4265ZM5.08642 17.1203L4.43814 16.5685L4.43814 16.5685L5.08642 17.1203ZM22.0955 14.803C22.0424 14.3358 21.6207 14.0001 21.1535 14.0531C20.6863 14.1061 20.3506 14.5278 20.4036 14.995L22.0955 14.803ZM22.232 17.1203L21.5837 17.6722L21.5837 17.6722L22.232 17.1203ZM11.0825 5.20315L11.3583 6.0086C11.7026 5.89073 11.9339 5.56706 11.9339 5.20315H11.0825ZM14.9691 3.96237C15.2754 4.31912 15.8128 4.36002 16.1696 4.05373C16.5263 3.74744 16.5672 3.20995 16.2609 2.85321L14.9691 3.96237ZM17.8618 23.2399C18.0268 22.7996 17.8037 22.309 17.3634 22.144C16.9231 21.9789 16.4324 22.2021 16.2674 22.6424L17.8618 23.2399ZM11.051 22.6424C10.886 22.2021 10.3953 21.9789 9.95503 22.144C9.51475 22.309 9.29159 22.7996 9.4566 23.2399L11.051 22.6424ZM23.8754 8.1844H23.0241C23.0241 9.59497 21.8806 10.7385 20.47 10.7385V11.5898V12.4412C22.821 12.4412 24.7268 10.5353 24.7268 8.1844H23.8754ZM20.47 11.5898V10.7385C19.0595 10.7385 17.916 9.59497 17.916 8.1844H17.0646H16.2133C16.2133 10.5353 18.1191 12.4412 20.47 12.4412V11.5898ZM17.0646 8.1844H17.916C17.916 6.77384 19.0595 5.63035 20.47 5.63035V4.779V3.92765C18.1191 3.92765 16.2133 5.83346 16.2133 8.1844H17.0646ZM20.47 4.779V5.63035C21.8806 5.63035 23.0241 6.77384 23.0241 8.1844H23.8754H24.7268C24.7268 5.83346 22.821 3.92765 20.47 3.92765V4.779ZM20.2171 20.6709V19.8195H7.10132V20.6709V21.5222H20.2171V20.6709ZM6.06887 14.899L6.91479 14.995L7.42241 10.5225L6.57649 10.4265L5.73057 10.3305L5.22295 14.803L6.06887 14.899ZM5.08642 17.1203L5.73471 17.6722C6.39004 16.9023 6.80331 15.9773 6.91479 14.995L6.06887 14.899L5.22295 14.803C5.15159 15.4318 4.88538 16.0431 4.43814 16.5685L5.08642 17.1203ZM21.2495 14.899L20.4036 14.995C20.5151 15.9773 20.9284 16.9023 21.5837 17.6722L22.232 17.1203L22.8803 16.5685C22.433 16.0431 22.1668 15.4318 22.0955 14.803L21.2495 14.899ZM7.10132 20.6709V19.8195C6.35776 19.8195 5.8318 19.4518 5.58903 19.024C5.35466 18.611 5.35812 18.1146 5.73471 17.6722L5.08642 17.1203L4.43814 16.5685C3.56945 17.589 3.54262 18.8678 4.10816 19.8644C4.6653 20.8461 5.76942 21.5222 7.10132 21.5222V20.6709ZM20.2171 20.6709V21.5222C21.549 21.5222 22.6531 20.8461 23.2103 19.8644C23.7758 18.8678 23.749 17.589 22.8803 16.5685L22.232 17.1203L21.5837 17.6722C21.9603 18.1146 21.9637 18.611 21.7294 19.024C21.4866 19.4518 20.9607 19.8195 20.2171 19.8195V20.6709ZM11.0825 5.20315H11.9339V5.08542H11.0825H10.2312V5.20315H11.0825ZM6.57649 10.4265L7.42241 10.5225C7.65286 8.49203 9.18209 6.75371 11.3583 6.0086L11.0825 5.20315L10.8067 4.39771C8.11911 5.31792 6.04755 7.53767 5.73057 10.3305L6.57649 10.4265ZM13.6592 2.50873V1.65738C11.7659 1.65738 10.2312 3.19217 10.2312 5.08542H11.0825H11.9339C11.9339 4.13254 12.7063 3.36008 13.6592 3.36008V2.50873ZM13.6592 2.50873V3.36008C14.1829 3.36008 14.6513 3.59231 14.9691 3.96237L15.615 3.40779L16.2609 2.85321C15.6335 2.12246 14.7002 1.65738 13.6592 1.65738V2.50873ZM17.0646 22.9412L16.2674 22.6424C15.9011 23.6198 14.8904 24.3601 13.6592 24.3601V25.2114V26.0628C15.5725 26.0628 17.2368 24.9078 17.8618 23.2399L17.0646 22.9412ZM13.6592 25.2114V24.3601C12.4281 24.3601 11.4173 23.6198 11.051 22.6424L10.2538 22.9412L9.4566 23.2399C10.0817 24.9078 11.746 26.0628 13.6592 26.0628V25.2114Z" fill="#EBE4DF"/>
</svg>
