<svg width="19" height="19" viewBox="0 0 19 19" fill="none" xmlns="http://www.w3.org/2000/svg">
<g clip-path="url(#clip0_2104_4176)">
<path d="M13.7653 0H5.24008C2.34269 0 0 2.34269 0 5.24008V13.7653C0 16.6573 2.34269 19.0054 5.24008 19.0054H13.7653C16.6573 19.0054 19.0054 16.6627 19.0054 13.7653V5.24008C19.0054 2.34807 16.6627 0 13.7653 0ZM17.4651 13.7438C17.4651 15.801 15.7956 17.4651 13.7438 17.4651H5.26162C3.20437 17.4651 1.53486 15.7956 1.53486 13.7438V5.26162C1.53486 3.20437 3.20437 1.54025 5.26162 1.54025H13.7438C15.801 1.54025 17.4651 3.20975 17.4651 5.26162V13.7438Z" fill="white"/>
<path d="M9.49999 4.49146C6.73723 4.49146 4.49149 6.73182 4.49149 9.49996C4.49149 12.2681 6.73185 14.5085 9.49999 14.5085C12.2681 14.5085 14.5085 12.2681 14.5085 9.49996C14.5085 6.73182 12.2681 4.49146 9.49999 4.49146ZM9.49999 12.7636C7.69585 12.7636 6.23638 11.2987 6.23638 9.49996C6.23638 7.70121 7.69585 6.23635 9.49999 6.23635C11.3041 6.23635 12.7636 7.70121 12.7636 9.49996C12.7636 11.2987 11.2987 12.7636 9.49999 12.7636Z" fill="white"/>
<path d="M15.801 4.32454C15.801 4.94387 15.3002 5.45011 14.6755 5.45011C14.0507 5.45011 13.5499 4.94926 13.5499 4.32454C13.5499 3.69982 14.0507 3.19897 14.6755 3.19897C15.3002 3.19897 15.801 3.69982 15.801 4.32454Z" fill="white"/>
</g>
<defs>
<clipPath id="clip0_2104_4176">
<rect width="19" height="19" fill="white"/>
</clipPath>
</defs>
</svg>
