<svg width="127" height="45" viewBox="0 0 127 45" fill="none" xmlns="http://www.w3.org/2000/svg">
<path d="M28.9669 40.2368C28.9669 41.5495 28.4926 42.5901 27.5504 43.3682C26.7108 44.0641 25.6372 44.412 24.3233 44.412C22.7883 44.412 21.593 43.8869 20.7437 42.84C20.0932 42.0302 19.7695 41.0719 19.7695 39.9648C19.7695 39.0064 20.0195 38.184 20.513 37.5008L21.9839 37.194C21.452 38.0037 21.186 38.8767 21.186 39.813C21.186 40.7492 21.4936 41.559 22.1089 42.1726C22.689 42.7419 23.426 43.0298 24.3233 43.0298C25.3616 43.0298 26.166 42.7388 26.7332 42.1568C27.2043 41.6665 27.4414 41.0276 27.4414 40.24V34.5244L28.9669 33.7368V40.2368ZM24.3233 33.5818C23.7433 33.5818 23.4549 33.2971 23.4549 32.7278C23.4549 32.1585 23.7433 31.8896 24.3233 31.8896C24.9034 31.8896 25.1726 32.1711 25.1726 32.7278C25.1726 33.2845 24.8873 33.5818 24.3233 33.5818Z" fill="#D29E8B"/>
<path d="M32.1554 41.1636V30.9123L33.6808 30.1278V41.1636H32.1554Z" fill="#D29E8B"/>
<path d="M40.6445 40.2558C40.6445 41.5337 40.2952 42.5617 39.5998 43.3366C38.9396 44.0767 38.0583 44.45 36.9591 44.45C36.2509 44.45 35.5587 44.2792 34.8857 43.9376V42.6534C35.4882 42.9729 36.0907 43.131 36.6932 43.131C37.4495 43.131 38.0391 42.8875 38.4653 42.3972C38.8915 41.9069 39.1031 41.2269 39.1031 40.3602V34.5244L40.6445 33.7368V40.2558Z" fill="#D29E8B"/>
<path d="M52.1107 39.775V41.1605H49.9123C49.8642 42.141 49.4284 42.9507 48.6016 43.5897C47.903 44.1147 47.1114 44.3773 46.227 44.3773C45.4931 44.3773 44.8041 44.2128 44.1535 43.8807V42.5807C44.7785 42.9001 45.4002 43.0583 46.0154 43.0583C46.6307 43.0583 47.1883 42.8717 47.653 42.4921C48.1177 42.1157 48.358 41.6665 48.3709 41.1415C47.7556 41.1193 47.3005 41.094 47.0057 41.0719C45.7302 41.0023 44.7656 40.588 44.1183 39.8225C43.5735 39.1836 43.3043 38.358 43.3043 37.3427C43.3043 36.0996 43.6472 35.1286 44.333 34.4327C44.9483 33.8159 45.7559 33.5091 46.7621 33.5091C47.7684 33.5091 48.624 33.8127 49.1912 34.4169C49.6751 34.9546 49.9187 35.6536 49.9187 36.5203V39.7719H52.1171L52.1107 39.775ZM48.3709 36.6279C48.3709 35.4639 47.8325 34.8819 46.7589 34.8819C46.1436 34.8819 45.6661 35.0969 45.3232 35.5239C44.9803 35.9509 44.8105 36.5488 44.8105 37.3111C44.8105 38.804 45.5668 39.5979 47.0794 39.6897C47.3646 39.7245 47.794 39.7529 48.3741 39.775V36.6279H48.3709Z" fill="#D29E8B"/>
<path d="M54.1649 39.775H51.0468V41.1604H54.1649V39.775Z" fill="#D29E8B"/>
<path d="M56.2221 39.775H53.104V41.1604H56.2221V39.775Z" fill="#D29E8B"/>
<path d="M58.2797 39.775H55.1616V41.1604H58.2797V39.775Z" fill="#D29E8B"/>
<path d="M60.3338 39.775H57.2157V41.1604H60.3338V39.775Z" fill="#D29E8B"/>
<path d="M62.3912 39.775H59.2731V41.1604H62.3912V39.775Z" fill="#D29E8B"/>
<path d="M64.4454 39.775H61.3273V41.1604H64.4454V39.775Z" fill="#D29E8B"/>
<path d="M66.5028 39.775H63.3846V41.1604H66.5028V39.775Z" fill="#D29E8B"/>
<path d="M68.557 39.775H65.4388V41.1604H68.557V39.775Z" fill="#D29E8B"/>
<path d="M70.6143 39.775H67.4962V41.1604H70.6143V39.775Z" fill="#D29E8B"/>
<path d="M72.6684 39.775H69.5503V41.1604H72.6684V39.775Z" fill="#D29E8B"/>
<path d="M74.7258 39.775H71.6077V41.1604H74.7258V39.775Z" fill="#D29E8B"/>
<path d="M76.7833 39.775H73.6652V41.1604H76.7833V39.775Z" fill="#D29E8B"/>
<path d="M78.8374 39.775H75.7192V41.1604H78.8374V39.775Z" fill="#D29E8B"/>
<path d="M77.7735 41.1636V39.7782H79.3694C80.5166 39.7782 81.0871 39.2089 81.0871 38.067V35.6726L82.6125 34.885V38.067C82.6125 39.2057 83.1893 39.7782 84.3494 39.7782H85.1634C86.3203 39.7782 86.9003 39.2089 86.9003 38.067V35.0906L88.4257 34.322V38.0702C88.4257 39.2089 88.9993 39.7814 90.1434 39.7814H90.9766C92.1335 39.7814 92.7135 39.212 92.7135 38.0702V34.5276L94.2389 33.74V38.1208C94.2389 39.0918 93.9377 39.8478 93.3352 40.395C92.8032 40.8979 92.095 41.1541 91.2073 41.1668H89.9832C88.9417 41.1668 88.1693 40.8315 87.6598 40.1578C87.1503 40.8188 86.3972 41.1573 85.3909 41.1668H84.1667C83.1509 41.1668 82.3753 40.8315 81.8466 40.1578C81.337 40.8315 80.5647 41.1668 79.5264 41.1668H77.7703L77.7735 41.1636Z" fill="#D29E8B"/>
<path d="M104.007 30.9122L105.548 30.1246V37.9278C105.548 38.9432 105.234 39.7466 104.609 40.3412C104.019 40.8884 103.244 41.1636 102.289 41.1636H96.1906L96.934 39.7782H99.5234V33.139L101.049 32.3514V39.7782H102.164C103.395 39.7782 104.007 39.1583 104.007 37.912V30.9154V30.9122Z" fill="#D29E8B"/>
<path d="M21.3076 5.44673L21.3364 5.3803L24.9929 13.9964H24.9801L25.7973 15.9037H25.8101L26.8613 18.3804L28.1848 21.4643H30.7966L21.4614 0H21.1954L11.8892 21.4643H14.4977L21.2788 5.3803L21.3076 5.44673Z" fill="#EBE4DF"/>
<path d="M95.9598 5.44673L95.9855 5.3803L99.6452 13.9964H99.6292L100.45 15.9037H100.459L101.513 18.3804L102.837 21.4643H105.446L96.1105 0H95.8477L86.5414 21.4643H89.1468L95.931 5.3803L95.9598 5.44673Z" fill="#EBE4DF"/>
<path d="M0 0.65155H2.36182V19.364H9.65238V21.4643H0V0.65155Z" fill="#EBE4DF"/>
<path d="M36.235 21.439C35.2671 21.0847 34.2961 20.5945 33.3187 19.965V17.4441C35.4819 19.0541 37.5392 19.8575 39.4909 19.8575C40.2728 19.8575 40.9746 19.6993 41.5963 19.3894C42.218 19.0762 42.7083 18.6176 43.0672 18.0198C43.4262 17.4188 43.6056 16.7008 43.6056 15.8657C43.6056 15.0307 43.2467 14.2684 42.5353 13.6295C41.8206 12.9937 40.715 12.3769 39.2121 11.7759C38.0167 11.3047 37.0233 10.8334 36.2382 10.3652C35.4498 9.89711 34.8121 9.29297 34.3186 8.54966C33.8251 7.80951 33.5783 6.89539 33.5783 5.80415C33.5783 4.7129 33.8475 3.71023 34.3859 2.84673C34.9243 1.98322 35.6613 1.31266 36.6035 0.828714C37.5392 0.347934 38.6 0.107544 39.7761 0.107544C40.7086 0.107544 41.5899 0.230903 42.4199 0.474456C43.2531 0.721172 44.0831 1.08808 44.9131 1.57835V3.96327C44.1664 3.41923 43.3525 2.9859 42.468 2.6696C41.5835 2.35013 40.699 2.19198 39.8145 2.19198C39.0614 2.19198 38.3821 2.35329 37.786 2.6696C37.1899 2.98906 36.7189 3.42556 36.3856 3.99174C36.0491 4.55792 35.8824 5.18103 35.8824 5.87374C35.8824 6.60123 36.0811 7.2117 36.4753 7.7083C36.8727 8.20173 37.3662 8.60659 37.959 8.91973C38.5519 9.23287 39.3274 9.56816 40.2856 9.92241C42.1539 10.6214 43.5672 11.4438 44.5254 12.3896C45.4836 13.3353 45.961 14.493 45.961 15.8657C45.961 17.131 45.679 18.2222 45.1182 19.1426C44.5542 20.0662 43.7851 20.7684 42.8045 21.2461C41.8239 21.7268 40.715 21.9704 39.4845 21.9704C38.2539 21.9704 37.1899 21.7933 36.2253 21.439" fill="#EBE4DF"/>
<path d="M53.6681 20.7906C52.3734 20.0599 51.3607 19.0541 50.6301 17.7699C49.8962 16.4888 49.5309 15.056 49.5309 13.465V0.638916H51.8799V13.4112C51.8799 14.6005 52.1491 15.6791 52.6875 16.6407C53.2258 17.6054 53.9629 18.3614 54.8987 18.9117C55.8312 19.4621 56.8695 19.7373 58.0104 19.7373C59.1512 19.7373 60.2056 19.4589 61.1381 18.9054C62.0739 18.3519 62.8045 17.5928 63.3397 16.6217C63.8717 15.6538 64.1409 14.5689 64.1409 13.3733V0.642082H66.5027V13.4682C66.5027 15.0592 66.1341 16.492 65.3971 17.773C64.6632 19.0541 63.6473 20.0599 62.3623 20.7937C61.074 21.5244 59.6223 21.8913 58.0104 21.8913C56.3984 21.8913 54.9596 21.5244 53.6681 20.7937" fill="#EBE4DF"/>
<path d="M82.1221 21.4643L76.0877 12.2915H73.6169V21.4643H71.2551V0.65155H76.985C78.2829 0.65155 79.427 0.895099 80.4172 1.37904C81.4074 1.86615 82.1733 2.55885 82.7149 3.45715C83.2597 4.35862 83.5289 5.40874 83.5289 6.61701C83.5289 8.17006 83.0835 9.42579 82.1894 10.3873C81.2953 11.3457 80.0711 11.9436 78.5168 12.1776L84.705 21.4611H82.1221V21.4643ZM73.6169 10.3968H76.9562C77.8118 10.3873 78.5649 10.2355 79.2123 9.94136C79.8628 9.64403 80.3659 9.2107 80.7248 8.63819C81.0838 8.06568 81.2632 7.38247 81.2632 6.58223C81.2632 5.78198 81.0806 5.08927 80.7184 4.50411C80.3531 3.91895 79.8468 3.46665 79.193 3.15351C78.5393 2.84037 77.7862 2.68221 76.9273 2.68221H73.6137V10.3968H73.6169Z" fill="#EBE4DF"/>
<path d="M127 22.1602L111.467 6.05089V21.4643H109.102V0.0791016L124.654 16.2991V0.651609H127V22.1602Z" fill="#EBE4DF"/>
<path d="M17.7024 13.9964L21.3333 5.38031L17.6768 13.9964H17.7024Z" fill="#EBE4DF"/>
<path d="M95.9855 5.38031L95.9598 5.44674L99.6292 13.9964H99.6452L95.9855 5.38031Z" fill="#EBE4DF"/>
</svg>
