<svg width="17" height="16" viewBox="0 0 17 16" fill="none" xmlns="http://www.w3.org/2000/svg">
<g clip-path="url(#clip0_2104_4177)">
<path d="M17 9.92753V16.0051H13.3057V10.3395C13.3057 8.91545 12.7727 7.94406 11.4346 7.94406C10.4164 7.94406 9.80872 8.60013 9.54218 9.23077C9.44622 9.45963 9.41957 9.76987 9.41957 10.0903V16.0051H5.72531C5.72531 16.0051 5.77328 6.40814 5.72531 5.41132H9.41957V6.91163C9.41957 6.91163 9.40358 6.93706 9.39291 6.94723H9.41957V6.91163C9.91 6.18945 10.7843 5.16211 12.746 5.16211C15.1769 5.16211 16.9947 6.67769 16.9947 9.92753H17ZM0 16H3.68893V5.40623H0V16ZM3.80088 1.81055C3.80088 2.81246 2.94795 3.62619 1.89777 3.62619C0.847601 3.62619 0 2.81246 0 1.81055C0 0.808646 0.852932 0 1.9031 0C2.95328 0 3.80621 0.813732 3.80621 1.81055H3.80088Z" fill="white"/>
</g>
<defs>
<clipPath id="clip0_2104_4177">
<rect width="17" height="16" fill="white"/>
</clipPath>
</defs>
</svg>
