<svg width="27" height="28" viewBox="0 0 27 28" fill="none" xmlns="http://www.w3.org/2000/svg">
<path d="M7.30171 8.17731C7.02874 7.81334 6.5124 7.73958 6.14844 8.01256C5.78448 8.28553 5.71071 8.80187 5.98369 9.16583L9.05909 13.2664C11.146 16.0489 15.3197 16.0489 17.4066 13.2664L20.482 9.16583C20.755 8.80187 20.6812 8.28553 20.3173 8.01256C19.9533 7.73958 19.437 7.81334 19.164 8.17731L16.0886 12.2778C14.6607 14.1817 11.805 14.1817 10.3771 12.2778L7.30171 8.17731Z" fill="#A0576F"/>
<path fill-rule="evenodd" clip-rule="evenodd" d="M19.823 5.3765H6.6427C4.21627 5.3765 2.24927 7.3435 2.24927 9.76993V18.5568C2.24927 20.9832 4.21627 22.9502 6.6427 22.9502H19.823C22.2494 22.9502 24.2164 20.9832 24.2164 18.5568V9.76993C24.2164 7.3435 22.2494 5.3765 19.823 5.3765ZM6.6427 7.02403H19.823C21.3395 7.02403 22.5689 8.25341 22.5689 9.76993V18.5568C22.5689 20.0733 21.3395 21.3027 19.823 21.3027H6.6427C5.12618 21.3027 3.8968 20.0733 3.8968 18.5568V9.76993C3.8968 8.25341 5.12618 7.02403 6.6427 7.02403Z" fill="#A0576F"/>
</svg>
