<svg width="20" height="20" viewBox="0 0 20 20" fill="none" xmlns="http://www.w3.org/2000/svg">
<path d="M18.32 0.679993H12.8C12.24 0.679993 11.8 1.11999 11.8 1.67999C11.8 2.23999 12.24 2.67999 12.8 2.67999H15.88L12.2 6.35999C9.36003 4.23999 5.32003 4.43999 2.76003 6.99999C-0.0399658 9.79999 -0.0399658 14.4 2.76003 17.2C5.56003 20 10.16 20 12.96 17.2C15.52 14.64 15.76 10.56 13.6 7.75999L17.28 4.07999V7.19999C17.28 7.75999 17.72 8.19999 18.28 8.19999C18.84 8.19999 19.28 7.75999 19.28 7.19999V1.67999C19.32 1.11999 18.88 0.679993 18.32 0.679993ZM11.6 15.8C9.56003 17.84 6.24003 17.84 4.20003 15.8C2.16003 13.76 2.16003 10.44 4.20003 8.39999C6.24003 6.35999 9.56003 6.35999 11.6 8.39999C13.64 10.44 13.64 13.76 11.6 15.8Z" fill="#A0576F"/>
</svg>
