<svg width="185" height="280" viewBox="0 0 185 280" fill="none" xmlns="http://www.w3.org/2000/svg">
<g clip-path="url(#clip0_2024_9600)">
<path d="M92.9324 5.88251L75.3958 23.415V47.571L80.1147 42.8486V33.7941H105.75V43.0438L110.469 47.7616V23.415L92.9324 5.88251ZM105.75 29.0717H80.1147V25.3672L92.9324 12.5525L105.75 25.3672V29.0717Z" fill="#A0566E"/>
<path d="M84.1687 93.0475L80.0217 88.9015V77.1372L75.3028 72.4194V90.8537L80.8353 96.3848L84.1687 93.0475Z" fill="#B79B88"/>
<path d="M110.246 68.1572V57.5968H80.0217V53.7482L92.8394 40.9335L105.657 53.7482V55.3239H110.376V51.796L92.8394 34.2635L75.3028 51.796V62.3564H105.527V66.2004L92.7092 79.0151L79.8915 66.2004V64.6293H75.1727V68.1572L92.7092 85.6897L110.246 68.1572Z" fill="#D29E8B"/>
<path d="M109.037 169.629L105.75 166.343V169.629V186.097L103.188 184.029L99.5713 181.105L98.7252 180.422L95.8055 178.065L75.4144 161.597V192.888H100.529L95.8102 188.166H80.1333V171.479L100.813 188.175L106.647 192.888H110.469V171.061L109.037 169.629Z" fill="#B79B88"/>
<path d="M92.9324 123.683L75.3958 141.215V157.832L80.1147 161.644V152.789H105.75V162.494H106.034L110.469 166.929V141.215L92.9324 123.683ZM105.75 148.071H80.1147V143.172L92.9324 130.362L105.75 143.172V148.071Z" fill="#D29E8B"/>
<path d="M110.478 119.49H100.845L110.478 125.593V137.093L105.759 132.375V128.187L94.3178 120.936L92.6255 119.862L92.0304 119.49H80.1286V132.356L75.4098 137.079V105.044L82.2626 98.1883L82.4532 98.0024L85.7913 94.6651L86.6142 93.8377L92.9417 87.5117L98.3765 92.9407L95.0384 96.278L92.9417 94.1864L89.5571 97.5701L89.1247 98.0024L85.7913 101.34L80.1286 106.996V114.768H105.759V106.996L99.9944 101.237L92.8394 108.386L87.4324 102.98L90.7705 99.6478L92.8394 101.716L96.6563 97.9002V97.8955L99.9944 94.5582V94.5628L105.657 88.9015V76.877L110.376 72.1592V90.8537L103.332 97.8955L110.478 105.044V119.49Z" fill="#A0566E"/>
<path d="M103.332 97.8955L110.376 90.8537V72.1592L105.652 76.877V88.9015L99.9944 94.5628V94.5582L96.6563 97.8955V97.9002L92.8394 101.716L90.7705 99.6478L87.4324 102.98L92.8394 108.386L99.9944 101.237L103.332 97.8955Z" fill="#B79B88"/>
<path d="M75.2052 0.5V3.90703V4.79481V19.3061L80.7842 14.5883V5.14806H105.425V9.79613H111.004V4.79481V3.90703V0.5H75.2052Z" fill="#B79B88"/>
<path d="M42.4009 273.313C42.4009 275.242 41.7128 276.772 40.346 277.915C39.1279 278.938 37.5704 279.449 35.6643 279.449C33.4374 279.449 31.7032 278.677 30.4712 277.139C29.5274 275.949 29.0579 274.541 29.0579 272.914C29.0579 271.505 29.4205 270.297 30.1365 269.293L32.2704 268.842C31.4987 270.032 31.1128 271.315 31.1128 272.691C31.1128 274.066 31.5591 275.256 32.4517 276.158C33.2932 276.995 34.3625 277.418 35.6643 277.418C37.1706 277.418 38.3375 276.99 39.1604 276.135C39.8439 275.414 40.1879 274.476 40.1879 273.318V264.919L42.4009 263.762V273.313ZM35.6643 263.534C34.8228 263.534 34.4044 263.116 34.4044 262.279C34.4044 261.442 34.8228 261.047 35.6643 261.047C36.5058 261.047 36.8963 261.461 36.8963 262.279C36.8963 263.097 36.4825 263.534 35.6643 263.534Z" fill="#D29E8B"/>
<path d="M47.0268 274.675V259.611L49.2398 258.458V274.675H47.0268Z" fill="#D29E8B"/>
<path d="M59.3423 273.341C59.3423 275.219 58.8356 276.73 57.8267 277.869C56.869 278.956 55.5905 279.505 53.9958 279.505C52.9684 279.505 51.9642 279.254 50.9878 278.752V276.865C51.8619 277.334 52.7359 277.566 53.61 277.566C54.7072 277.566 55.5626 277.209 56.1809 276.488C56.7993 275.768 57.1061 274.768 57.1061 273.495V264.919L59.3423 263.762V273.341Z" fill="#D29E8B"/>
<path d="M75.977 272.635V274.671H72.7877C72.7179 276.112 72.0856 277.302 70.8862 278.24C69.8726 279.012 68.7243 279.398 67.4411 279.398C66.3765 279.398 65.3769 279.156 64.4332 278.668V276.758C65.3397 277.227 66.2417 277.46 67.1343 277.46C68.0269 277.46 68.8359 277.185 69.51 276.628C70.1841 276.074 70.5328 275.414 70.5514 274.643C69.6588 274.61 68.9986 274.573 68.5709 274.541C66.7205 274.438 65.3211 273.829 64.382 272.705C63.5917 271.766 63.2011 270.553 63.2011 269.061C63.2011 267.234 63.6986 265.807 64.6935 264.784C65.5861 263.878 66.7577 263.427 68.2176 263.427C69.6774 263.427 70.9187 263.873 71.7416 264.761C72.4436 265.551 72.797 266.578 72.797 267.852V272.63H75.9863L75.977 272.635ZM70.5514 268.01C70.5514 266.3 69.7704 265.444 68.2129 265.444C67.3203 265.444 66.6275 265.76 66.1301 266.388C65.6326 267.015 65.3862 267.894 65.3862 269.014C65.3862 271.208 66.4834 272.375 68.6778 272.509C69.0916 272.561 69.7146 272.602 70.5561 272.635V268.01H70.5514Z" fill="#D29E8B"/>
<path d="M78.9571 272.635H74.4334V274.671H78.9571V272.635Z" fill="#D29E8B"/>
<path d="M81.9418 272.635H77.4182V274.671H81.9418V272.635Z" fill="#D29E8B"/>
<path d="M84.9265 272.635H80.4029V274.671H84.9265V272.635Z" fill="#D29E8B"/>
<path d="M87.9066 272.635H83.383V274.671H87.9066V272.635Z" fill="#D29E8B"/>
<path d="M90.8914 272.635H86.3678V274.671H90.8914V272.635Z" fill="#D29E8B"/>
<path d="M93.8715 272.635H89.3479V274.671H93.8715V272.635Z" fill="#D29E8B"/>
<path d="M96.8562 272.635H92.3326V274.671H96.8562V272.635Z" fill="#D29E8B"/>
<path d="M99.8363 272.635H95.3127V274.671H99.8363V272.635Z" fill="#D29E8B"/>
<path d="M102.821 272.635H98.2975V274.671H102.821V272.635Z" fill="#D29E8B"/>
<path d="M105.801 272.635H101.278V274.671H105.801V272.635Z" fill="#D29E8B"/>
<path d="M108.786 272.635H104.262V274.671H108.786V272.635Z" fill="#D29E8B"/>
<path d="M111.771 272.635H107.247V274.671H111.771V272.635Z" fill="#D29E8B"/>
<path d="M114.751 272.635H110.227V274.671H114.751V272.635Z" fill="#D29E8B"/>
<path d="M113.207 274.675V272.639H115.523C117.187 272.639 118.014 271.803 118.014 270.125V266.606L120.227 265.449V270.125C120.227 271.798 121.064 272.639 122.747 272.639H123.928C125.606 272.639 126.448 271.803 126.448 270.125V265.751L128.661 264.622V270.13C128.661 271.803 129.493 272.644 131.153 272.644H132.362C134.04 272.644 134.882 271.807 134.882 270.13V264.924L137.095 263.766V270.204C137.095 271.631 136.657 272.742 135.783 273.546C135.012 274.285 133.984 274.661 132.696 274.68H130.92C129.409 274.68 128.289 274.187 127.55 273.197C126.811 274.169 125.718 274.666 124.258 274.68H122.482C121.009 274.68 119.883 274.187 119.116 273.197C118.377 274.187 117.257 274.68 115.75 274.68H113.203L113.207 274.675Z" fill="#D29E8B"/>
<path d="M151.265 259.611L153.501 258.453V269.92C153.501 271.412 153.046 272.593 152.139 273.467C151.284 274.271 150.159 274.675 148.773 274.675H139.926L141.004 272.639H144.761V262.883L146.974 261.726V272.639H148.592C150.377 272.639 151.265 271.728 151.265 269.897V259.615V259.611Z" fill="#D29E8B"/>
<path d="M31.2894 222.189L31.3313 222.092L36.636 234.753H36.6174L37.8029 237.556H37.8215L39.3464 241.195L41.2665 245.727H45.0555L31.5126 214.185H31.1267L17.6256 245.727H21.41L31.2476 222.092L31.2894 222.189Z" fill="#A0566E"/>
<path d="M139.591 222.189L139.628 222.092L144.938 234.753H144.914L146.105 237.556H146.118L147.648 241.195L149.568 245.727H153.353L139.81 214.185H139.428L125.927 245.727H129.707L139.549 222.092L139.591 222.189Z" fill="#A0566E"/>
<path d="M0.377344 215.143H3.80376V242.641H14.3805V245.727H0.377344V215.143Z" fill="#A0566E"/>
<path d="M52.9451 245.69C51.5411 245.169 50.1324 244.449 48.7144 243.524V239.82C51.8526 242.185 54.8373 243.366 57.6687 243.366C58.803 243.366 59.8212 243.134 60.7231 242.678C61.6251 242.218 62.3364 241.544 62.8571 240.665C63.3778 239.782 63.6382 238.727 63.6382 237.5C63.6382 236.273 63.1174 235.153 62.0853 234.214C61.0486 233.28 59.4446 232.373 57.2642 231.49C55.5301 230.798 54.0888 230.105 52.9498 229.417C51.8061 228.729 50.8809 227.841 50.1649 226.749C49.449 225.662 49.091 224.318 49.091 222.715C49.091 221.111 49.4815 219.638 50.2626 218.369C51.0436 217.1 52.1129 216.114 53.4798 215.403C54.8373 214.697 56.3762 214.343 58.0824 214.343C59.4353 214.343 60.7138 214.525 61.918 214.883C63.1267 215.245 64.3309 215.784 65.535 216.505V220.009C64.4517 219.21 63.2709 218.573 61.9877 218.108C60.7045 217.639 59.4214 217.407 58.1382 217.407C57.0457 217.407 56.0601 217.644 55.1953 218.108C54.3306 218.578 53.6472 219.219 53.1636 220.051C52.6755 220.883 52.4337 221.799 52.4337 222.817C52.4337 223.886 52.722 224.783 53.2938 225.513C53.8703 226.238 54.5863 226.833 55.4464 227.293C56.3065 227.753 57.4316 228.246 58.8216 228.766C61.5321 229.794 63.5824 231.002 64.9725 232.392C66.3625 233.782 67.0553 235.483 67.0553 237.5C67.0553 239.359 66.6461 240.963 65.8325 242.316C65.0143 243.673 63.8985 244.705 62.4759 245.406C61.0532 246.113 59.4446 246.471 57.6594 246.471C55.8741 246.471 54.3306 246.211 52.9312 245.69" fill="#A0566E"/>
<path d="M78.2364 244.737C76.3582 243.664 74.8891 242.185 73.829 240.298C72.7644 238.416 72.2344 236.31 72.2344 233.972V215.124H75.6422V233.893C75.6422 235.641 76.0327 237.226 76.8138 238.639C77.5948 240.057 78.6641 241.167 80.0217 241.976C81.3746 242.785 82.8809 243.189 84.536 243.189C86.1911 243.189 87.7207 242.78 89.0736 241.967C90.4311 241.154 91.4911 240.038 92.2675 238.611C93.0393 237.189 93.4298 235.594 93.4298 233.837V215.129H96.8562V233.977C96.8562 236.315 96.3216 238.42 95.2523 240.303C94.1876 242.185 92.7138 243.663 90.8495 244.742C88.9806 245.816 86.8745 246.355 84.536 246.355C82.1975 246.355 80.11 245.816 78.2364 244.742" fill="#A0566E"/>
<path d="M119.516 245.727L110.762 232.248H107.177V245.727H103.751V215.143H112.064C113.946 215.143 115.606 215.501 117.043 216.212C118.479 216.928 119.59 217.946 120.376 219.266C121.167 220.59 121.557 222.134 121.557 223.909C121.557 226.191 120.911 228.037 119.614 229.45C118.317 230.858 116.541 231.736 114.286 232.08L123.263 245.722H119.516V245.727ZM107.177 229.464H112.022C113.263 229.45 114.356 229.227 115.295 228.794C116.238 228.357 116.968 227.721 117.489 226.879C118.01 226.038 118.27 225.034 118.27 223.858C118.27 222.682 118.005 221.664 117.48 220.804C116.95 219.944 116.215 219.28 115.267 218.82C114.318 218.359 113.226 218.127 111.98 218.127H107.173V229.464H107.177Z" fill="#A0566E"/>
<path d="M184.623 246.75L162.088 223.077V245.727H158.657V214.302L181.219 238.137V215.143H184.623V246.75Z" fill="#A0566E"/>
<path d="M26.0592 234.753L31.3267 222.092L26.022 234.753H26.0592Z" fill="#A0566E"/>
<path d="M139.628 222.092L139.591 222.189L144.914 234.753H144.938L139.628 222.092Z" fill="#A0566E"/>
</g>
<defs>
<clipPath id="clip0_2024_9600">
<rect width="184.245" height="279" fill="white" transform="translate(0.37735 0.5)"/>
</clipPath>
</defs>
</svg>
