<svg width="215" height="76" viewBox="0 0 215 76" fill="none" xmlns="http://www.w3.org/2000/svg">
<path d="M49.2422 68.7572C49.2422 71.0003 48.442 72.7785 46.8526 74.1081C45.4361 75.2972 43.6251 75.8918 41.4085 75.8918C38.8189 75.8918 36.8024 74.9945 35.3697 73.2055C34.2722 71.8218 33.7262 70.1841 33.7262 68.2924C33.7262 66.6546 34.1479 65.2493 34.9804 64.0818L37.4619 63.5576C36.5645 64.9412 36.1158 66.433 36.1158 68.0329C36.1158 69.6328 36.6348 71.0165 37.6728 72.065C38.6513 73.0379 39.8947 73.5298 41.4085 73.5298C43.1601 73.5298 44.5171 73.0325 45.474 72.038C46.2687 71.2002 46.6688 70.1084 46.6688 68.7626V58.9957L49.2422 57.6499V68.7572ZM41.4085 57.385C40.43 57.385 39.9434 56.8986 39.9434 55.9257C39.9434 54.9528 40.43 54.4933 41.4085 54.4933C42.387 54.4933 42.8411 54.9744 42.8411 55.9257C42.8411 56.877 42.36 57.385 41.4085 57.385Z" fill="#D29E8B"/>
<path d="M54.6213 70.3407V52.8231L57.1947 51.4827V70.3407H54.6213Z" fill="#D29E8B"/>
<path d="M68.9425 68.7896C68.9425 70.9732 68.3532 72.7298 67.1801 74.054C66.0664 75.3188 64.5797 75.9566 62.7253 75.9566C61.5305 75.9566 60.3628 75.6647 59.2275 75.081V72.8866C60.2439 73.4325 61.2602 73.7027 62.2766 73.7027C63.5525 73.7027 64.5472 73.2865 65.2663 72.4488C65.9853 71.611 66.3421 70.4489 66.3421 68.9679V58.9957L68.9425 57.6498V68.7896Z" fill="#D29E8B"/>
<path d="M88.2862 67.9681V70.3355H84.5775C84.4964 72.0111 83.7612 73.3948 82.3664 74.4866C81.1878 75.3838 79.8524 75.8324 78.3603 75.8324C77.1223 75.8324 75.9599 75.5514 74.8625 74.9838V72.7624C75.9167 73.3083 76.9655 73.5785 78.0035 73.5785C79.0415 73.5785 79.9822 73.2596 80.7661 72.611C81.55 71.9678 81.9555 71.2003 81.9771 70.3031C80.9391 70.2653 80.1714 70.222 79.674 70.1842C77.5223 70.0653 75.8951 69.3572 74.803 68.0492C73.8839 66.9574 73.4298 65.5467 73.4298 63.8117C73.4298 61.6875 74.0083 60.0282 75.1652 58.8391C76.2032 57.7851 77.5656 57.2608 79.2632 57.2608C80.9607 57.2608 82.4042 57.7797 83.3611 58.812C84.1774 59.7309 84.5883 60.9254 84.5883 62.4064V67.9627H88.297L88.2862 67.9681ZM81.9771 62.5902C81.9771 60.6011 81.0688 59.6066 79.2578 59.6066C78.2198 59.6066 77.4142 59.9741 76.8357 60.7038C76.2573 61.4335 75.9707 62.455 75.9707 63.7576C75.9707 66.3088 77.2466 67.6655 79.7984 67.8222C80.2795 67.8817 81.004 67.9303 81.9825 67.9681V62.5902H81.9771Z" fill="#D29E8B"/>
<path d="M91.7516 67.968H86.4913V70.3354H91.7516V67.968Z" fill="#D29E8B"/>
<path d="M95.2224 67.968H89.9621V70.3354H95.2224V67.968Z" fill="#D29E8B"/>
<path d="M98.6932 67.968H93.4329V70.3354H98.6932V67.968Z" fill="#D29E8B"/>
<path d="M102.159 67.968H96.8983V70.3354H102.159V67.968Z" fill="#D29E8B"/>
<path d="M105.629 67.968H100.369V70.3354H105.629V67.968Z" fill="#D29E8B"/>
<path d="M109.095 67.968H103.835V70.3354H109.095V67.968Z" fill="#D29E8B"/>
<path d="M112.566 67.968H107.305V70.3354H112.566V67.968Z" fill="#D29E8B"/>
<path d="M116.031 67.968H110.771V70.3354H116.031V67.968Z" fill="#D29E8B"/>
<path d="M119.502 67.968H114.242V70.3354H119.502V67.968Z" fill="#D29E8B"/>
<path d="M122.967 67.968H117.707V70.3354H122.967V67.968Z" fill="#D29E8B"/>
<path d="M126.438 67.968H121.178V70.3354H126.438V67.968Z" fill="#D29E8B"/>
<path d="M129.909 67.968H124.649V70.3354H129.909V67.968Z" fill="#D29E8B"/>
<path d="M133.374 67.968H128.114V70.3354H133.374V67.968Z" fill="#D29E8B"/>
<path d="M131.579 70.3408V67.9734H134.272C136.207 67.9734 137.169 67.0005 137.169 65.0493V60.9577L139.743 59.6119V65.0493C139.743 66.9951 140.716 67.9734 142.673 67.9734H144.046C145.998 67.9734 146.976 67.0005 146.976 65.0493V59.9632L149.55 58.6498V65.0547C149.55 67.0005 150.518 67.9788 152.448 67.9788H153.853C155.805 67.9788 156.783 67.0059 156.783 65.0547V59.0011L159.357 57.6553V65.1412C159.357 66.8005 158.849 68.0923 157.832 69.0274C156.935 69.8868 155.74 70.3246 154.242 70.3462H152.177C150.42 70.3462 149.117 69.7733 148.258 68.622C147.398 69.7517 146.128 70.33 144.43 70.3462H142.365C140.651 70.3462 139.343 69.7733 138.451 68.622C137.591 69.7733 136.288 70.3462 134.537 70.3462H131.574L131.579 70.3408Z" fill="#D29E8B"/>
<path d="M175.835 52.823L178.435 51.4772V64.8114C178.435 66.5464 177.906 67.9192 176.851 68.9354C175.857 69.8704 174.548 70.3407 172.937 70.3407H162.649L163.903 67.9733H168.272V56.6282L170.845 55.2823V67.9733H172.726C174.802 67.9733 175.835 66.9139 175.835 64.7843V52.8284V52.823Z" fill="#D29E8B"/>
<path d="M36.3212 9.30742L36.3698 9.19391L42.5384 23.9172H42.5167L43.8953 27.1764H43.917L45.6902 31.4085L47.923 36.6784H52.3291L36.5807 0H36.132L20.4322 36.6784H24.8329L36.2725 9.19391L36.3212 9.30742Z" fill="#A0566E"/>
<path d="M162.26 9.30742L162.303 9.19391L168.477 23.9172H168.45L169.834 27.1764H169.85L171.629 31.4085L173.862 36.6784H178.262L162.514 0H162.071L146.371 36.6784H150.766L162.211 9.19391L162.26 9.30742Z" fill="#A0566E"/>
<path d="M0.375 1.11334H4.35941V33.0894H16.6586V36.6783H0.375V1.11334Z" fill="#A0566E"/>
<path d="M61.5036 36.6352C59.8709 36.0299 58.2328 35.1921 56.5839 34.1165V29.8087C60.2331 32.5598 63.7039 33.9327 66.9963 33.9327C68.3154 33.9327 69.4994 33.6625 70.5482 33.1328C71.597 32.5977 72.4242 31.814 73.0297 30.7924C73.6352 29.7655 73.9379 28.5385 73.9379 27.1116C73.9379 25.6847 73.3324 24.3821 72.1323 23.2903C70.9267 22.2038 69.0615 21.1499 66.526 20.1229C64.5094 19.3176 62.8335 18.5122 61.509 17.7123C60.179 16.9123 59.1032 15.88 58.2706 14.6098C57.438 13.345 57.0218 11.783 57.0218 9.91825C57.0218 8.05352 57.4759 6.34015 58.3841 4.86458C59.2924 3.38901 60.5358 2.24315 62.1253 1.41618C63.7039 0.594618 65.4934 0.183838 67.4775 0.183838C69.0507 0.183838 70.5374 0.394635 71.9376 0.810821C73.3433 1.23241 74.7435 1.85939 76.1437 2.69716V6.77255C74.884 5.84288 73.5109 5.1024 72.0187 4.5619C70.5266 4.01599 69.0345 3.74574 67.5423 3.74574C66.2719 3.74574 65.1257 4.0214 64.1202 4.5619C63.1146 5.1078 62.3199 5.85369 61.7576 6.82119C61.19 7.78869 60.9089 8.85346 60.9089 10.0372C60.9089 11.2803 61.2441 12.3235 61.909 13.1721C62.5794 14.0153 63.412 14.7071 64.4121 15.2422C65.4123 15.7773 66.7206 16.3502 68.3371 16.9556C71.4889 18.1501 73.8731 19.5554 75.4895 21.1715C77.106 22.7876 77.9115 24.7658 77.9115 27.1116C77.9115 29.2736 77.4358 31.1383 76.4897 32.7112C75.5382 34.2894 74.2407 35.4894 72.5864 36.3055C70.9321 37.1271 69.0615 37.5433 66.9855 37.5433C64.9095 37.5433 63.1146 37.2406 61.4873 36.6352" fill="#A0566E"/>
<path d="M90.9136 35.5272C88.7294 34.2786 87.0211 32.5598 85.7884 30.3654C84.5504 28.1763 83.9341 25.7279 83.9341 23.0092V1.09186H87.8969V22.9173C87.8969 24.9496 88.351 26.7927 89.2592 28.4358C90.1675 30.0843 91.4109 31.3761 92.9896 32.3166C94.5628 33.2571 96.3144 33.7273 98.239 33.7273C100.164 33.7273 101.942 33.2517 103.516 32.3058C105.094 31.3599 106.327 30.0627 107.23 28.4034C108.127 26.7495 108.581 24.8955 108.581 22.8524V1.09727H112.566V23.0146C112.566 25.7333 111.944 28.1818 110.7 30.3708C109.462 32.5598 107.749 34.2786 105.581 35.5326C103.407 36.7811 100.958 37.4081 98.239 37.4081C95.5197 37.4081 93.0923 36.7811 90.9136 35.5326" fill="#A0566E"/>
<path d="M138.916 36.6783L128.736 21.0038H124.567V36.6783H120.583V1.11334H130.249C132.439 1.11334 134.369 1.52952 136.04 2.35649C137.71 3.18886 139.002 4.37256 139.916 5.90758C140.835 7.44801 141.289 9.24247 141.289 11.3072C141.289 13.961 140.538 16.1068 139.029 17.75C137.521 19.3877 135.456 20.4092 132.834 20.8092L143.273 36.6729H138.916V36.6783ZM124.567 17.7662H130.201C131.644 17.75 132.915 17.4905 134.007 16.9878C135.104 16.4798 135.953 15.7393 136.559 14.761C137.164 13.7827 137.467 12.6152 137.467 11.2477C137.467 9.88027 137.159 8.69656 136.548 7.69664C135.931 6.69671 135.077 5.9238 133.974 5.38871C132.871 4.85361 131.601 4.58335 130.152 4.58335H124.562V17.7662H124.567Z" fill="#A0566E"/>
<path d="M214.625 37.8675L188.421 10.3398V36.6784H184.431V0.135132L210.668 27.852V1.11344H214.625V37.8675Z" fill="#A0566E"/>
<path d="M30.2392 23.9172L36.3645 9.19391L30.1959 23.9172H30.2392Z" fill="#A0566E"/>
<path d="M162.303 9.19391L162.26 9.30743L168.45 23.9172H168.477L162.303 9.19391Z" fill="#A0566E"/>
</svg>
