<svg width="131" height="130" viewBox="0 0 131 130" fill="none" xmlns="http://www.w3.org/2000/svg">
<g id="svgexport-16 1" clip-path="url(#clip0_2104_3936)">
<g id="Group">
<path id="Vector" d="M65.5 130C101.398 130 130.5 100.898 130.5 65C130.5 29.1015 101.398 0 65.5 0C29.6015 0 0.5 29.1015 0.5 65C0.5 100.898 29.6015 130 65.5 130Z" fill="#6B8B9B"/>
<path id="Vector_2" fill-rule="evenodd" clip-rule="evenodd" d="M45.1812 96.7323L21.4844 71.1929C19.9124 69.5085 19.0726 67.2693 19.1494 64.9665C19.2261 62.6638 20.2131 60.4855 21.8938 58.9095C23.5849 57.3439 25.828 56.5131 28.1308 56.5995C30.4337 56.6859 32.6083 57.6823 34.1773 59.3701L52.5001 78.9725L81.5198 51.8465C81.7791 51.6083 82.0525 51.3861 82.3387 51.1811L95.9529 38.437C97.6373 36.865 99.8765 36.0252 102.179 36.102C104.482 36.1788 106.66 37.1658 108.236 38.8465C109.808 40.5309 110.648 42.7701 110.571 45.0729C110.495 47.3756 109.508 49.5539 107.827 51.1299L66.1143 90.0276L51.6301 103.488L45.2324 96.6299L45.1812 96.7323Z" fill="white"/>
</g>
</g>
<defs>
<clipPath id="clip0_2104_3936">
<rect width="130" height="130" fill="white" transform="translate(0.5)"/>
</clipPath>
</defs>
</svg>
