<svg width="30" height="21" viewBox="0 0 30 21" fill="none" xmlns="http://www.w3.org/2000/svg">
<g clip-path="url(#clip0_2024_4162)">
<path d="M26.7359 0.425415H2.07978C0.87826 0.425415 -0.0957642 1.33315 -0.0957642 2.4529V17.997C-0.0957642 19.1167 0.87826 20.0244 2.07978 20.0244H26.7359C27.9375 20.0244 28.9115 19.1167 28.9115 17.997V2.4529C28.9115 1.33315 27.9375 0.425415 26.7359 0.425415Z" fill="#0B8D37"/>
<g style="mix-blend-mode:multiply">
<path d="M7.94337 8.81399C8.38072 8.85233 8.14155 8.15878 8.30044 8.03331C8.33188 7.97058 8.38578 7.97058 8.39027 8.04875V8.63774C8.38688 8.70366 8.40978 8.76854 8.45495 8.82098C8.50013 8.87342 8.56469 8.91007 8.6373 8.92451C8.75295 8.91704 8.82875 8.92453 8.87366 9.02112C8.88994 9.36067 8.90622 9.69924 8.9225 10.0388C8.9225 10.0388 9.18862 10.1075 9.20322 9.46771C9.1774 9.21381 9.16933 8.95874 9.17908 8.70395C9.17908 8.63176 9.28518 8.6268 9.35536 8.66314C9.46765 8.73534 9.52379 8.82344 9.69896 8.78959C9.96901 8.72337 10.1324 8.60787 10.1374 8.42365C10.13 8.24388 10.0892 8.06642 10.0167 7.89839C10.0274 7.86702 9.96396 7.78386 9.97575 7.75249C10.0246 7.81971 10.0981 7.81373 10.1144 7.75249C10.0855 7.62391 10.0031 7.50966 9.88367 7.43235C9.78711 7.35767 9.64731 7.37313 9.59566 7.52847C9.58894 7.73491 9.66672 7.93651 9.81462 8.09603C9.86136 8.18419 9.88074 8.28181 9.87076 8.37883C9.83472 8.3971 9.7924 8.40314 9.75171 8.39582C9.71102 8.38849 9.67471 8.36831 9.64955 8.33902C9.64955 8.33902 9.43341 8.19562 9.43341 8.16426C9.48621 8.01649 9.48046 7.85716 9.41712 7.71269C9.39205 7.6212 9.34365 7.53603 9.27564 7.46374C9.26677 7.45193 9.25476 7.44224 9.24065 7.43554C9.22655 7.42884 9.2108 7.42533 9.1948 7.42533C9.1788 7.42533 9.16304 7.42884 9.14894 7.43554C9.13483 7.44224 9.12282 7.45193 9.11395 7.46374C9.03864 7.65815 9.04401 7.86998 9.12911 8.06118C9.17907 8.19013 9.25431 8.2718 9.21894 8.2718C9.18918 8.34549 9.12799 8.32857 9.0842 8.24293C9.0316 8.06318 9.00648 7.87796 9.00952 7.69226C8.99212 7.54638 8.97134 7.23721 8.86411 7.15755C8.79899 7.07938 8.7013 7.11672 8.66593 7.18891C8.65709 7.32901 8.66065 7.46951 8.67659 7.60912C8.73786 7.8318 8.78102 8.05808 8.80573 8.28624C8.81527 8.60538 8.59632 8.42464 8.60867 8.26581C8.65575 8.06376 8.65344 7.85511 8.60193 7.65391C8.56824 7.57326 8.52614 7.55434 8.43911 7.56579C8.37118 7.56081 8.19489 7.7311 8.14436 8.01389C8.11796 8.10443 8.09716 8.19618 8.08204 8.28873C8.05734 8.43809 7.94898 8.53766 7.87431 8.26831C7.80918 8.06915 7.76989 7.58869 7.65985 7.70071C7.62279 8.0806 7.58237 8.74528 7.94337 8.81399Z" fill="#B0B0B0"/>
<path d="M8.60119 9.09076C8.39973 9.11899 8.21015 9.19363 8.05143 9.30722C7.89271 9.4208 7.77039 9.56937 7.69672 9.73803C8.07849 9.57771 8.45184 9.42236 8.83754 9.25756C8.77635 9.17292 8.83474 9.09823 8.60119 9.09076Z" fill="#B0B0B0"/>
<path d="M10.5804 10.3365C10.6441 10.0564 10.6618 9.76966 10.6331 9.48509H10.6388C10.833 9.6708 11.1019 9.51048 11.1615 9.44775C11.1686 9.43836 11.178 9.43048 11.189 9.42471C11.2 9.41894 11.2123 9.41543 11.2251 9.41438C11.2378 9.41333 11.2506 9.41479 11.2626 9.41866C11.2746 9.42254 11.2855 9.42872 11.2945 9.43678C11.3325 9.46107 11.3761 9.47746 11.4222 9.4847C11.4683 9.49194 11.5157 9.48987 11.5607 9.47862C11.6058 9.46737 11.6474 9.44723 11.6825 9.41973C11.7176 9.39223 11.7452 9.35807 11.7633 9.31978C11.7984 9.15152 11.8207 8.98135 11.8301 8.81044C11.7554 8.82278 11.6842 8.84818 11.6207 8.88514C11.6133 8.8921 11.6085 8.90102 11.6072 8.91054C11.5977 8.96033 11.5898 9.0101 11.5814 9.0564L11.5758 9.06734C11.5716 9.07439 11.5649 9.08002 11.5567 9.0833C11.5224 9.10023 11.4629 9.08927 11.4601 9.04595C11.4141 8.85775 11.2226 8.83135 11.1059 9.12162C11.0273 9.17838 10.8847 9.18784 10.8695 9.10469C10.8897 8.90952 10.8016 8.88314 10.6236 8.97475C10.5675 8.5879 10.5113 8.21946 10.4552 7.8326C10.5287 7.8326 10.5966 7.88241 10.6646 7.80474C10.6015 7.57379 10.496 7.35361 10.3524 7.153L10.3401 7.14106L10.3333 7.13756L10.3277 7.13407L10.3171 7.1306C10.3095 7.12746 10.3011 7.12659 10.2929 7.12811C10.2679 7.13309 10.2434 7.13958 10.2194 7.14753C10.1917 7.15384 10.1658 7.16494 10.143 7.1802C10.1202 7.19545 10.1011 7.21454 10.0867 7.23638C10.0723 7.25823 10.0629 7.28241 10.0591 7.30749C10.0552 7.33257 10.0571 7.35807 10.0644 7.38252C10.1733 7.975 10.2424 8.42806 10.3496 9.01805C10.3659 9.08776 10.3008 9.17937 10.2154 9.17091C10.0728 9.08428 10.0375 8.90852 9.79325 8.91549C9.69417 8.92659 9.60152 8.96502 9.52839 9.02532C9.45525 9.08562 9.40532 9.16477 9.38564 9.25159C9.35101 9.37905 9.35101 9.51198 9.38564 9.63944C9.43367 9.69053 9.49865 9.72689 9.57132 9.74333C9.644 9.75978 9.72067 9.75546 9.79044 9.73103C9.89879 9.6912 9.98749 9.59611 10.0268 9.61902C10.0498 9.65636 10.0229 9.96453 9.5159 10.2005C9.20487 10.3235 8.95783 10.3499 8.8259 10.1259C8.74281 9.98496 8.83545 9.45024 8.63165 9.57322C8.02586 10.9429 10.029 11.1405 10.2598 9.63445C10.2749 9.59213 10.3193 9.55031 10.3507 9.56076C10.3659 9.56574 10.3766 9.58266 10.3805 9.61054C10.3277 10.9752 8.82422 11.0634 8.56989 10.6332C8.50957 10.4855 8.48008 10.3293 8.48286 10.1722C8.48236 10.1176 8.46076 10.0649 8.42167 10.0228C8.36047 9.98196 8.27907 10.0865 8.25998 10.2717C8.24128 10.3813 8.2345 10.4922 8.23976 10.6028C8.32341 11.6832 10.2626 11.2257 10.5804 10.3365ZM9.83591 9.40195C9.82075 9.42137 9.76798 9.41289 9.73149 9.41289C9.71281 9.41428 9.69406 9.41106 9.67731 9.40359C9.66057 9.39612 9.64648 9.38469 9.6366 9.37056C9.62313 9.33322 9.66243 9.29839 9.67983 9.27101L9.6877 9.26153C9.70604 9.24851 9.7283 9.24056 9.7517 9.23864C9.77446 9.2356 9.79769 9.23989 9.81716 9.25077C9.83664 9.26164 9.85106 9.27836 9.85781 9.29787C9.86499 9.31496 9.86675 9.33347 9.86289 9.35138C9.85903 9.3693 9.8497 9.38593 9.83591 9.39946V9.40195Z" fill="#B0B0B0"/>
<path d="M10.7634 8.18268C10.902 8.20075 11.0427 8.20193 11.1817 8.18617C11.4323 7.99758 11.665 7.79091 11.8773 7.56829C11.8475 7.54538 11.8211 7.52996 11.7902 7.50705C11.7594 7.48415 11.7633 7.45725 11.7902 7.43485C11.8174 7.41784 11.8399 7.3957 11.8562 7.37003C11.8725 7.34437 11.8822 7.31582 11.8845 7.28643C11.8869 7.25705 11.8819 7.22759 11.8699 7.20013C11.8578 7.17267 11.8391 7.14791 11.815 7.12765C11.7623 7.10601 11.7045 7.09577 11.6465 7.09778C11.5991 7.09933 11.5526 7.1104 11.5107 7.13015C11.4621 7.16686 11.4306 7.21823 11.4223 7.27434C11.414 7.33044 11.4295 7.38728 11.4657 7.43385C11.5404 7.46521 11.6162 7.53342 11.5662 7.57126C11.3501 7.7734 10.7881 8.11348 10.7595 8.17572V8.18167L10.7634 8.18268ZM11.6151 7.27802H11.6218C11.6434 7.2799 11.664 7.2871 11.6813 7.2988C11.6985 7.3105 11.7118 7.32623 11.7195 7.34423C11.7414 7.38655 11.7302 7.42838 11.6948 7.43585C11.672 7.43653 11.6496 7.4307 11.6308 7.41923C11.612 7.40776 11.5978 7.39126 11.5904 7.37213C11.5679 7.32632 11.5797 7.28548 11.6151 7.27802Z" fill="#B0B0B0"/>
<path d="M7.89667 10.7831C7.80179 10.9519 7.76193 10.8329 7.75407 10.7398C7.74376 10.58 7.75336 10.4197 7.7827 10.2618C7.8074 10.1279 7.78269 10.1692 7.73497 10.223C7.63867 10.3526 7.57786 10.5003 7.55739 10.6545C7.53692 10.8086 7.55736 10.9648 7.61708 11.1107C7.64625 11.1411 7.68411 11.164 7.72668 11.177C7.76925 11.1899 7.81497 11.1925 7.85905 11.1844C7.92252 11.1397 7.97117 11.0806 7.99983 11.0134C8.02849 10.9461 8.0361 10.8733 8.02186 10.8025C7.97695 10.7398 7.94158 10.7303 7.89667 10.7831Z" fill="#B0B0B0"/>
<path d="M14.9578 7.61056C15.2077 7.90929 15.4468 8.20801 15.6793 8.52218C15.7146 8.75369 15.7416 8.97974 15.7579 9.20528C15.7961 9.74755 15.7984 10.2913 15.7646 10.8339C15.869 10.8373 16.0375 10.6845 16.0958 10.4619C16.1143 10.0866 16.1102 9.71065 16.0835 9.33571C16.0835 9.25853 16.0767 9.16942 16.0711 9.07333C16.3412 9.46865 16.6023 9.88637 16.8571 10.3454C16.952 10.3056 16.9329 9.83608 16.879 9.76986C16.6741 9.37455 16.3889 8.9832 16.298 8.83284C16.2654 8.77857 16.1553 8.62822 16.0223 8.45247C15.9993 8.20353 15.9734 7.99343 15.9572 7.9297C15.9151 7.66731 16.0779 7.95856 16.0565 7.80571C15.9816 7.55372 15.8422 7.32048 15.6489 7.12413C15.5866 7.04596 15.5894 7.03003 15.4929 7.14355C15.4452 7.2371 15.4306 7.3412 15.4508 7.44227C15.4261 7.4109 15.3946 7.37257 15.3503 7.32527C15.1818 7.19881 15.1751 7.19034 15.0364 7.08678C14.9674 7.04247 14.7961 6.96131 14.7664 7.09374C14.7513 7.18678 14.7559 7.28151 14.7798 7.37307C14.8263 7.45927 14.8862 7.53922 14.9578 7.61056ZM15.4889 7.59263C15.4945 7.61802 15.5013 7.6424 15.5052 7.66978C15.5187 7.72505 15.5322 7.78084 15.5445 7.83461C15.4884 7.76491 15.444 7.71312 15.4238 7.6937C15.2997 7.56126 15.4277 7.60806 15.4889 7.59263Z" fill="#B0B0B0"/>
<path d="M17.0094 10.2025C17.0258 10.2954 16.9999 10.3903 16.9375 10.4664C16.667 10.7315 16.3367 10.9432 15.9679 11.0878C15.9269 11.1276 16.0673 11.3008 16.2486 11.3008C16.4318 11.2754 16.6044 11.2083 16.7496 11.1062C16.8948 11.004 17.0077 10.8702 17.0773 10.7178C17.1798 10.5839 17.245 10.4303 17.2676 10.2697C17.3026 9.50483 17.237 8.73889 17.0723 7.98742C17.0632 7.93451 17.066 7.88054 17.0807 7.82861C17.1009 7.8072 17.1688 7.82862 17.2042 7.77884C17.257 7.73203 17.0672 7.33821 16.9583 7.18635C16.9201 7.11765 16.9066 7.07331 16.8415 7.1938C16.7634 7.32575 16.7259 7.4736 16.7326 7.62249C16.8763 8.51868 16.9167 9.30384 17.0094 10.2025Z" fill="#B0B0B0"/>
<path d="M20.9814 7.98993C20.9641 7.91386 20.955 7.83651 20.9544 7.75892C20.9735 7.71411 21.0723 7.7634 21.1094 7.71212C21.1621 7.66532 20.8528 7.30981 20.7427 7.15796C20.7063 7.08925 20.6922 7.04494 20.6271 7.16543C20.5543 7.29902 20.5315 7.44973 20.562 7.59561C20.7221 8.51788 20.8209 9.44768 20.8578 10.3802C20.8492 10.4587 20.8286 10.5357 20.7966 10.6093C20.7088 10.7227 20.6067 10.827 20.4924 10.92C20.3919 10.9852 20.1785 11.0479 20.1106 11.0957C19.8894 11.2077 19.886 11.3392 20.0673 11.3447C20.2446 11.3508 20.421 11.3189 20.5813 11.2515C20.7416 11.1842 20.8812 11.0834 20.9881 10.9578C21.0759 10.801 21.1271 10.6302 21.1386 10.4554C21.1843 9.63097 21.1316 8.80456 20.9814 7.98993Z" fill="#B0B0B0"/>
<path d="M18.6581 8.95375C18.6581 8.82828 18.6755 8.66347 18.6839 8.55991C18.6839 8.52008 18.6974 8.47827 18.7401 8.46732C18.7827 8.45637 18.8557 8.50615 18.858 8.46732C18.8561 8.37851 18.8301 8.2914 18.7822 8.21339C18.7622 8.19155 18.7354 8.17541 18.7051 8.16702C18.6748 8.15863 18.6424 8.15836 18.612 8.16623C18.5815 8.1741 18.5544 8.18977 18.5339 8.21127C18.5134 8.23277 18.5006 8.25914 18.497 8.28709C18.497 8.33687 18.5239 8.36773 18.5189 8.41602C18.5105 8.4439 18.4779 8.46182 18.4032 8.42946C18.4139 8.4185 18.3544 8.34382 18.3544 8.34382C18.2982 8.31146 18.2157 8.34384 18.1657 8.37272C18.1474 8.4038 18.1362 8.43784 18.1329 8.47282C18.1296 8.5078 18.1343 8.543 18.1466 8.57635C18.232 8.71178 18.5177 8.95026 18.6581 8.95375Z" fill="#B0B0B0"/>
<path d="M18.9685 12.9549C18.8803 12.9658 18.6316 12.9873 18.6316 12.9873C18.3408 12.9569 18.1263 12.9524 17.8018 12.9405C17.8316 12.9066 17.8849 12.7692 17.8209 12.7189C17.8098 12.7118 17.7973 12.7068 17.784 12.7042C17.7707 12.7015 17.7569 12.7013 17.7435 12.7035H17.7395H17.7356L17.73 12.6975C17.7137 12.6756 17.7053 12.6238 17.6946 12.6094H17.6907C17.6495 12.6156 17.6114 12.6328 17.5816 12.6588C17.5517 12.6847 17.5315 12.7181 17.5237 12.7545C17.5159 12.7909 17.5208 12.8286 17.5378 12.8624C17.5548 12.8963 17.5831 12.9247 17.6188 12.944C15.3383 12.937 11.8394 12.8907 11.0899 12.8887C10.67 12.8887 9.34333 12.8389 9.3175 12.8389C9.46058 13.0039 9.64988 13.1328 9.86659 13.2127C10.0833 13.2926 10.3198 13.3208 10.5527 13.2945C11.5632 13.2979 16.2573 13.3029 17.5924 13.3079C17.559 13.3797 17.5489 13.4584 17.5633 13.535C17.5777 13.6117 17.616 13.6832 17.6738 13.7416L17.6794 13.745H17.689C17.7788 13.7645 17.8164 13.7077 17.8468 13.6669C18.1882 13.6831 18.5304 13.6831 18.8719 13.6669C18.9225 13.7316 18.9724 13.7933 19.0662 13.7824C19.2346 13.7525 19.3649 13.7366 19.3705 13.4369C19.3621 13.4344 19.348 12.925 18.9685 12.9549ZM18.804 13.5026H18.7973H18.7866L18.5059 13.4956V13.4812C18.48 13.4139 18.2953 13.4174 18.2504 13.4702V13.4737V13.4797V13.4871V13.4941C18.1087 13.5013 17.9665 13.4977 17.8254 13.4832C17.7833 13.4364 17.7889 13.3517 17.8389 13.3303C18.1718 13.3457 18.484 13.3363 18.8169 13.3507C18.8376 13.3724 18.8479 13.4004 18.8455 13.4287C18.8431 13.4571 18.8281 13.4834 18.804 13.5021V13.5026Z" fill="#B0B0B0"/>
<path d="M12.4022 8.52868C12.5763 8.59241 12.6891 8.29867 12.7621 7.97455C12.8109 7.88543 12.8474 7.87496 12.8744 7.92176C12.8676 8.35193 12.9081 8.44703 13.0321 8.57797C13.104 8.63477 13.1964 8.66707 13.2926 8.66907C13.3889 8.67108 13.4828 8.64265 13.5576 8.58891C13.5751 8.57198 13.7749 8.39625 13.7749 8.39625C13.7983 8.37476 13.8301 8.36205 13.8637 8.36075C13.8974 8.35946 13.9303 8.36968 13.9557 8.38929C14.0208 8.44206 14.0118 8.53515 14.1528 8.59888C14.2266 8.62113 14.3059 8.62549 14.3823 8.61149C14.4587 8.59748 14.5294 8.56563 14.5873 8.51923C14.6659 8.39874 14.685 8.35791 14.722 8.3121C14.7782 8.24489 14.8753 8.27575 14.8753 8.29666C14.8669 8.33401 14.8102 8.37136 14.8484 8.43858C14.9152 8.48438 14.9315 8.45399 14.9708 8.44453C15.1122 8.38578 15.2206 8.11446 15.2206 8.11446C15.2262 8.01189 15.1645 8.02035 15.1201 8.04076C15.0673 8.06964 15.064 8.0791 15.0078 8.10947C14.9388 8.11794 14.8057 8.15924 14.7389 8.06614C14.6721 7.9566 14.6721 7.80475 14.621 7.69522C14.621 7.68675 14.5312 7.52196 14.6154 7.511C14.6564 7.51698 14.7473 7.5399 14.7619 7.47268C14.8051 7.40746 14.667 7.22075 14.5733 7.12814C14.5549 7.10834 14.5319 7.09223 14.506 7.08092C14.48 7.06961 14.4516 7.06336 14.4227 7.06256C14.3938 7.06176 14.365 7.06645 14.3383 7.0763C14.3116 7.08615 14.2876 7.10092 14.2679 7.11966C14.1904 7.18239 14.1999 7.25211 14.1848 7.31883C14.1716 7.36603 14.1713 7.41532 14.1838 7.46266C14.1963 7.50999 14.2212 7.55404 14.2566 7.59117C14.3839 7.75187 14.4435 7.9471 14.4251 8.14281C14.4005 8.17522 14.367 8.20145 14.3276 8.2189C14.2882 8.23635 14.2444 8.24444 14.2005 8.24239C14.141 8.23044 14.0444 8.20754 13.9939 7.86898C14.0039 7.60428 13.9659 7.33987 13.8816 7.08581C13.8384 6.98623 13.8058 6.88667 13.698 7.05943C13.6514 7.11338 13.6209 7.17694 13.6095 7.24416C13.5982 7.31139 13.6062 7.38006 13.6329 7.44378C13.715 7.63403 13.7385 7.84028 13.7008 8.04125C13.6621 8.09787 13.6185 8.15182 13.5706 8.20258C13.5365 8.23588 13.4902 8.2574 13.44 8.26333C13.3897 8.26925 13.3387 8.25917 13.296 8.23491C13.2516 8.21573 13.2134 8.18694 13.185 8.15116C13.1565 8.11539 13.1387 8.07382 13.1332 8.03031C13.1546 7.80987 13.1469 7.58796 13.1102 7.36912C13.1023 7.35 13.089 7.33297 13.0716 7.31968C13.0542 7.30639 13.0332 7.29727 13.0107 7.29318C12.9882 7.28909 12.9649 7.29016 12.943 7.29631C12.9211 7.30245 12.9014 7.31345 12.8856 7.32828C12.6726 7.5364 12.53 7.79348 12.4741 8.07012C12.4101 8.25085 12.3421 8.19908 12.2961 8.12688C12.1838 8.03029 12.1777 7.28398 12.0379 7.40546C11.8116 7.96957 12.1591 8.58793 12.4022 8.52868Z" fill="#B0B0B0"/>
<path d="M15.703 9.7579V9.74844L15.6379 9.71359L14.3365 9.70411C14.3238 9.70072 14.3119 9.69551 14.3011 9.68867V9.68521V9.67673C14.3128 9.66644 14.3273 9.65907 14.3432 9.65533C14.6543 9.61799 15.2056 9.54081 15.2449 9.06981C15.2559 9.01368 15.2527 8.95609 15.2357 8.90116C15.2186 8.84622 15.1881 8.7953 15.1463 8.75204C15.1045 8.70878 15.0525 8.67423 14.9939 8.65088C14.9353 8.62752 14.8716 8.61596 14.8074 8.61696C14.7431 8.61797 14.6799 8.63154 14.6223 8.65671C14.5647 8.68189 14.514 8.71804 14.474 8.76258C14.4339 8.80713 14.4055 8.85897 14.3906 8.91441C14.3758 8.96984 14.3749 9.02752 14.3881 9.08327C14.3775 9.147 14.4129 9.27095 14.3393 9.28539C13.861 9.32273 13.3383 9.58412 13.3192 9.7768H13.3113H13.3074C13.2839 9.76574 13.2651 9.74834 13.2536 9.72711C13.2421 9.70589 13.2385 9.68195 13.2434 9.6588C13.2223 9.31226 13.1113 8.97474 12.9189 8.67251C12.8521 8.61227 12.824 8.58837 12.8032 8.58588H12.7937H12.7881C12.7729 8.59534 12.7555 8.61725 12.7173 8.64264C12.6511 8.70786 12.6399 8.75365 12.6438 8.88459C12.6438 8.89903 12.7645 9.19529 12.865 9.4039C12.9509 9.62785 12.9793 9.86599 12.9481 10.1009C12.7716 10.4109 12.4937 10.6665 12.1508 10.8343C12.0986 10.8544 12.0422 10.8648 11.9852 10.8648C11.9282 10.8648 11.8719 10.8544 11.8196 10.8343C11.7899 10.8156 11.7661 10.7903 11.7507 10.761C11.7352 10.7317 11.7286 10.6993 11.7315 10.667C12.0772 10.5031 12.3572 10.2481 12.5326 9.93713C12.6117 9.7694 12.6198 9.58201 12.5556 9.40937C12.5373 9.31865 12.4906 9.2343 12.4209 9.1659C12.4669 9.14798 12.5809 9.22368 12.6 9.17538C12.5653 9.03403 12.4863 8.90423 12.3721 8.80097C12.3554 8.78281 12.3346 8.76791 12.3111 8.75721C12.2876 8.7465 12.2619 8.74021 12.2355 8.73876C12.2091 8.73731 12.1827 8.74074 12.1579 8.74879C12.1331 8.75683 12.1104 8.76934 12.0913 8.78553C11.9948 8.83233 11.9734 9.0036 12.0178 9.15396C12.0694 9.26598 12.2092 9.2854 12.3069 9.51293C12.3264 9.59064 12.3204 9.67168 12.2895 9.74644C12.115 9.93508 11.9132 10.1025 11.6894 10.2443V10.2468V10.2433C11.6894 10.2349 11.6894 10.211 11.6894 10.1731C11.6854 10.1044 11.718 9.95156 11.7152 9.92418C11.5428 10.0238 11.4856 10.3255 11.453 10.4146C11.0227 10.6259 10.6149 10.8713 10.2347 11.148C10.0837 11.3541 11.2587 10.9155 11.3946 10.8627L11.3985 10.8652C11.4244 10.8916 11.4255 10.9782 11.503 11.0589C11.5778 11.1393 11.677 11.1992 11.7889 11.2314C11.9008 11.2636 12.0207 11.2668 12.1346 11.2406C12.5098 11.1042 12.8297 10.8704 13.0525 10.5699C13.0879 10.5241 13.1423 10.4893 13.194 10.5241C13.3276 10.7191 13.5181 10.8784 13.7454 10.9853C13.9727 11.0921 14.2283 11.1425 14.4853 11.1311C14.6335 10.9747 14.5639 10.8961 14.5044 10.8622C14.487 10.8513 14.1905 10.7477 14.1445 10.6456C14.1159 10.5505 14.1855 10.4659 14.3281 10.4036C14.733 10.3703 15.1335 10.3037 15.5245 10.2045C15.5402 10.0763 15.5855 9.95248 15.6575 9.84055C15.6646 9.81006 15.6803 9.78163 15.703 9.7579ZM14.6329 9.03149L14.6369 9.02201V9.01703L14.6425 9.01207C14.6519 9.00549 14.6631 9.00133 14.675 9.0001C14.7111 8.99893 14.7466 9.00782 14.7767 9.02551C14.8283 9.05189 14.8597 9.09171 14.8553 9.12059V9.12408V9.12758L14.8468 9.13502C14.8256 9.14519 14.8014 9.14971 14.7773 9.14803C14.7532 9.14635 14.7302 9.13856 14.711 9.12557C14.6895 9.11674 14.6709 9.10325 14.6569 9.08637C14.6429 9.06949 14.6339 9.04978 14.6307 9.029L14.6329 9.03149ZM14.1086 10.1851C13.9688 10.2274 13.834 10.2597 13.8329 10.438C13.8503 10.5271 13.8481 10.5739 13.8329 10.5958L13.8273 10.6008L13.8189 10.6048H13.8149C13.7796 10.6083 13.7318 10.5794 13.6953 10.564C13.599 10.514 13.5166 10.4453 13.4543 10.3632C13.392 10.281 13.3514 10.1875 13.3355 10.0895C13.3346 10.0732 13.3375 10.057 13.3441 10.0418C13.3506 10.0265 13.3607 10.0127 13.3735 10.001C13.3864 9.9894 13.4018 9.98022 13.4188 9.97411C13.4358 9.968 13.4541 9.96508 13.4725 9.96551H13.4859C13.6657 9.99609 13.8477 10.0151 14.0305 10.0223C14.1748 10.0372 14.2495 10.1423 14.108 10.1856L14.1086 10.1851Z" fill="#B0B0B0"/>
<path d="M9.29929 7.40501C9.44863 7.46874 9.7299 7.44234 9.71924 7.22775C9.71924 7.20983 9.71362 7.1446 9.71249 7.12817C9.68274 7.06444 9.60021 7.07838 9.57944 7.1451C9.57382 7.1665 9.58898 7.20037 9.56877 7.21232C9.54856 7.22426 9.50757 7.21582 9.50926 7.15707C9.50639 7.13876 9.49784 7.1215 9.48456 7.10726C9.47523 7.10108 9.46353 7.09839 9.45199 7.09979C9.43178 7.09979 9.43178 7.10477 9.42055 7.12021C9.41354 7.13614 9.40938 7.15295 9.4082 7.17001C9.4082 7.19142 9.39585 7.19889 9.37844 7.20238C9.36104 7.20586 9.36329 7.20237 9.34869 7.1949C9.33409 7.18743 9.32679 7.18144 9.32679 7.166C9.32702 7.14813 9.32418 7.13036 9.31837 7.11325C9.30811 7.10384 9.29474 7.09755 9.28019 7.09532C9.19878 7.09532 9.19317 7.17846 9.1971 7.20982C9.19205 7.2143 9.18644 7.36368 9.29929 7.40501Z" fill="#B0B0B0"/>
<path d="M13.682 9.06787C13.833 9.1306 14.1873 9.09576 14.1031 8.89113C14.1031 8.87171 14.0975 8.80798 14.0963 8.79155C14.0666 8.72882 13.984 8.74177 13.9633 8.80948C13.9577 8.83138 13.9739 8.86474 13.9526 8.87718C13.9403 8.88814 13.8914 8.88066 13.8925 8.82191C13.8899 8.80355 13.8813 8.78627 13.8678 8.77213C13.8585 8.766 13.8468 8.76331 13.8353 8.76466C13.8151 8.76466 13.8151 8.77063 13.8038 8.78657C13.7968 8.80249 13.7927 8.81931 13.7915 8.83637C13.7915 8.85828 13.7791 8.86624 13.7617 8.86773C13.7443 8.86923 13.7482 8.86772 13.732 8.86175C13.7157 8.85577 13.7101 8.84831 13.7101 8.83288C13.7099 8.81594 13.7067 8.79911 13.7005 8.78307C13.6964 8.77783 13.6909 8.7735 13.6846 8.7704C13.6783 8.76729 13.6712 8.76551 13.664 8.76517C13.5826 8.76517 13.577 8.84682 13.5809 8.87819C13.5765 8.87769 13.572 9.02455 13.682 9.06787Z" fill="#B0B0B0"/>
<path d="M16.2461 8.39367C16.3955 8.4574 16.6767 8.431 16.6672 8.21642C16.6672 8.197 16.6616 8.13476 16.6605 8.11683C16.629 8.0541 16.5448 8.06704 16.5274 8.13376C16.5207 8.15517 16.5369 8.19051 16.515 8.20146C16.4932 8.21242 16.4539 8.20497 16.4589 8.14622C16.4554 8.12808 16.4469 8.11097 16.4342 8.09641C16.4248 8.09037 16.4132 8.08773 16.4016 8.08897C16.3797 8.08897 16.3814 8.09392 16.3691 8.10936C16.363 8.12552 16.3588 8.14223 16.3567 8.15916C16.3567 8.18107 16.3461 8.18804 16.3281 8.19053C16.3101 8.19301 16.3129 8.19051 16.2967 8.18454C16.2804 8.17856 16.2764 8.1711 16.2764 8.15567C16.2765 8.13757 16.2733 8.11958 16.2669 8.1024C16.2571 8.09328 16.2443 8.08703 16.2304 8.08447C16.149 8.08447 16.1423 8.16764 16.1473 8.199C16.1389 8.20448 16.135 8.35135 16.2461 8.39367Z" fill="#B0B0B0"/>
<path d="M19.5878 8.92251C19.695 9.05743 19.8023 9.19585 19.9073 9.33576C19.9539 9.76277 19.9698 10.192 19.955 10.6208C19.9443 10.7039 20.2812 10.3763 20.2795 10.2225C20.2795 10.0876 20.2795 9.96359 20.2795 9.84908C20.4412 10.0801 20.5972 10.3141 20.7438 10.5511C20.8359 10.5078 20.8078 10.0452 20.7494 9.98002C20.5973 9.75099 20.3951 9.49708 20.2441 9.3044C20.2144 9.05994 20.1734 8.76715 20.156 8.68052C20.1262 8.54211 20.0998 8.33601 20.0543 8.17121C20.0327 8.07642 20.0205 7.98012 20.0179 7.88344C20.0369 7.83763 20.1049 7.88342 20.1386 7.83363C20.1006 7.57924 20.003 7.33469 19.8522 7.11567C19.8112 7.04946 19.7355 7.07238 19.6428 7.17943C19.5558 7.25063 19.5867 7.41194 19.6198 7.56728C19.704 7.9601 19.7787 8.36088 19.836 8.76218C19.7237 8.6163 19.5889 8.43557 19.457 8.26429L19.4407 8.18714C19.4407 8.17967 19.4233 7.86551 19.4081 7.78884C19.4081 7.75896 19.3975 7.74901 19.434 7.75249C19.4521 7.77013 19.4743 7.78405 19.4991 7.7933C19.5384 7.80077 19.5738 7.7435 19.5507 7.68874C19.4328 7.49257 19.3133 7.29741 19.1965 7.10224C19.1678 7.07685 19.1297 7.05246 19.0842 7.10972C19.056 7.13114 19.0334 7.15769 19.0179 7.1876C19.0024 7.21751 18.9943 7.25004 18.9944 7.28296C19.005 7.42137 19.0309 7.5623 19.0404 7.70071L19.0511 7.75596C19.039 7.74111 19.0259 7.72699 19.0118 7.71366C18.7086 7.43086 19.1516 7.66783 18.9556 7.44876C18.8488 7.33315 18.7281 7.22816 18.5958 7.13561C18.525 7.09478 18.4835 7.01512 18.4571 7.14855C18.4443 7.26619 18.4407 7.38447 18.4464 7.50255C18.4632 7.58351 18.5039 7.65909 18.5643 7.72162C18.7664 7.94467 18.9747 8.18065 19.1819 8.4276C19.2229 8.92847 19.2324 9.38752 19.2756 9.88989C19.2678 10.1045 19.1914 10.3878 19.1207 10.4152C19.1207 10.4152 19.0135 10.4704 18.9416 10.4092C18.8428 10.3143 18.7555 10.2105 18.6811 10.0995C18.6665 10.0818 18.6474 10.0674 18.6254 10.0575C18.6033 10.0476 18.5789 10.0424 18.5542 10.0424C18.5295 10.0424 18.5051 10.0476 18.4831 10.0575C18.461 10.0674 18.4419 10.0818 18.4273 10.0995C18.2385 10.3288 18.0862 10.5801 17.9748 10.8463C17.9383 10.8961 17.8333 10.9414 17.7182 10.8413C17.5625 10.6186 17.5086 10.3514 17.5678 10.0945L17.5638 10.108C17.4743 10.2211 17.4191 10.3527 17.4033 10.4902C17.3876 10.6276 17.4119 10.7664 17.474 10.8931C17.533 11.0327 17.6468 11.1487 17.7946 11.2197C17.8181 11.2391 17.846 11.2538 17.8764 11.2629C17.9069 11.2719 17.9391 11.275 17.9711 11.272C18.003 11.2691 18.0338 11.2601 18.0615 11.2456C18.0892 11.2312 18.113 11.2117 18.1314 11.1884C18.2847 11.0475 18.2892 10.6905 18.3611 10.6173C18.3663 10.5948 18.3786 10.5742 18.3966 10.5578C18.4146 10.5413 18.4375 10.5298 18.4627 10.5246C18.4879 10.5193 18.5142 10.5206 18.5386 10.5282C18.5629 10.5358 18.5843 10.5495 18.6002 10.5675C18.656 10.6391 18.7311 10.6971 18.8186 10.7363C18.8812 10.7923 18.9645 10.8264 19.0531 10.8322C19.1418 10.8379 19.2298 10.815 19.3009 10.7677C19.423 10.7077 19.5152 10.6093 19.5592 10.4918C19.6168 9.97027 19.6264 9.44544 19.5878 8.92251Z" fill="#B0B0B0"/>
<path d="M16.3502 7.56369C16.4019 7.69613 16.3081 7.82161 16.3637 7.84202C16.4193 7.86243 16.4872 7.70461 16.5147 7.55922C16.5261 7.48191 16.514 7.4033 16.4797 7.33152C16.4453 7.25975 16.39 7.1974 16.3193 7.15096C16.2363 7.13303 16.1212 7.17485 16.1576 7.27294C16.138 7.31774 16.3205 7.47706 16.3502 7.56369Z" fill="#B0B0B0"/>
<path d="M17.7171 10.677C17.8216 10.677 17.9417 10.4649 17.9979 10.2553C18.0106 10.0427 18.0024 9.8294 17.9732 9.61802C17.9636 9.44924 17.7626 8.06761 17.7194 7.93916C17.6705 7.69569 17.9232 7.90781 17.8962 7.76591C17.8092 7.58767 17.592 7.32628 17.524 7.17194C17.483 7.10423 17.501 7.04547 17.4072 7.15401C17.3262 7.34685 17.2973 7.55389 17.323 7.75844C17.5772 8.71515 17.7094 9.69415 17.7171 10.677Z" fill="#B0B0B0"/>
<path d="M20.3296 7.956C20.3537 8.02222 20.2914 8.23533 20.3419 8.25475C20.3925 8.27417 20.4542 8.10538 20.4806 7.95005C20.4941 7.86192 20.4245 7.56119 20.3015 7.50692C20.2809 7.50043 20.2586 7.49929 20.2373 7.50361C20.216 7.50793 20.1965 7.51756 20.1811 7.53135C20.1658 7.54515 20.1551 7.56251 20.1505 7.58146C20.1459 7.60042 20.1474 7.62015 20.155 7.63835C20.1365 7.69113 20.3026 7.8619 20.3296 7.956Z" fill="#B0B0B0"/>
<path d="M11.2398 10.2365C11.2831 10.2524 11.3459 10.1269 11.3701 10.0114C11.3836 9.94771 11.3139 9.72614 11.2017 9.68631C11.1298 9.67287 11.0332 9.68632 11.0619 9.7859C11.0579 9.83568 11.2208 9.8989 11.2303 10.0174C11.2505 10.0632 11.1904 10.221 11.2398 10.2365Z" fill="#B0B0B0"/>
<path d="M8.0972 7.39148C8.1191 7.44127 8.0725 7.60608 8.12022 7.62051C8.16794 7.63495 8.22634 7.50848 8.24936 7.38899C8.26283 7.32177 8.25328 7.09773 8.08092 7.05043C8.01018 7.03599 7.9125 7.07085 7.94225 7.15001C7.92653 7.18934 8.07138 7.32078 8.0972 7.39148Z" fill="#B0B0B0"/>
<path d="M11.4867 8.12382C11.4208 8.16137 11.3737 8.21979 11.3548 8.28716C11.3359 8.35452 11.3467 8.42574 11.3851 8.48626C11.4095 8.51432 11.443 8.5352 11.4811 8.54612C11.5191 8.55705 11.56 8.55754 11.5984 8.54752C11.7287 8.56345 11.8078 8.33292 11.8078 8.33292C11.8078 8.33292 11.8118 8.2677 11.6568 8.38969C11.5917 8.40064 11.5849 8.37874 11.5687 8.34638C11.5531 8.28628 11.5602 8.2233 11.5889 8.16712C11.6119 8.10937 11.5608 8.08299 11.4867 8.12382Z" fill="#B0B0B0"/>
<path d="M12.3174 7.4099C12.3606 7.46417 12.4027 7.45971 12.4858 7.41938C12.5075 7.4081 12.5261 7.39278 12.5405 7.37447C12.5548 7.35616 12.5645 7.33529 12.5689 7.31333C12.5908 7.22421 12.4617 7.35563 12.4465 7.25556C12.4179 7.16295 12.4993 7.12562 12.5784 7.035C12.5784 6.97376 12.5784 6.93046 12.4847 6.97975C12.4283 7.01356 12.3808 7.05772 12.3455 7.10927C12.3101 7.16082 12.2877 7.21854 12.2797 7.27847C12.2747 7.36013 12.259 7.36011 12.3174 7.4099Z" fill="#B0B0B0"/>
<path d="M13.3878 7.46962C13.444 7.34856 13.4754 7.2196 13.4804 7.08876C13.4546 6.95533 13.353 6.95979 13.2862 7.10666C13.2536 7.22085 13.2337 7.33758 13.2267 7.45519C13.2031 7.54331 13.3294 7.58015 13.3878 7.46962Z" fill="#B0B0B0"/>
<path d="M19.0373 8.95145C19.0373 8.95145 18.3417 9.38608 18.3242 9.39952C18.2552 9.4523 18.2889 9.64548 18.3242 9.62358C18.5957 9.50969 18.8444 9.35715 19.0603 9.17201C19.0917 9.17649 19.108 8.92755 19.0373 8.95145Z" fill="#B0B0B0"/>
<path d="M18.946 10.1352C18.9937 10.1571 19.1145 10.0232 19.1145 9.8559C19.1279 9.76927 19.0808 9.45262 18.9584 9.39686C18.9368 9.39188 18.9141 9.39234 18.8928 9.39816C18.8715 9.40398 18.8524 9.41495 18.8377 9.42983C18.823 9.44471 18.8133 9.46293 18.8096 9.48243C18.806 9.50193 18.8085 9.52195 18.8169 9.54026C18.7995 9.59005 18.9022 9.76679 18.9292 9.86089C18.9528 9.93059 18.8961 10.1183 18.946 10.1352Z" fill="#B0B0B0"/>
<path d="M15.0119 11.0435C15.0279 11.0588 15.0494 11.0685 15.0727 11.0712C15.096 11.0738 15.1195 11.0691 15.1393 11.058C15.2807 11.0007 15.4282 10.956 15.5795 10.9245C15.6357 10.9245 15.6312 10.7956 15.5458 10.7906C15.4305 10.7855 15.3167 10.8161 15.2241 10.8772C15.1562 10.8902 15.1438 10.8533 15.1304 10.822C15.113 10.7403 15.1685 10.6836 15.1562 10.6228C15.1381 10.6096 15.1164 10.6007 15.0933 10.5971C15.0701 10.5935 15.0463 10.5954 15.0242 10.6024C14.9498 10.6433 14.8824 10.6936 14.8244 10.7518C14.7929 10.7712 14.7974 10.7891 14.8053 10.823C14.8283 10.8698 14.8693 10.8553 14.9176 10.8339C14.9771 10.8269 15.0074 10.8618 15.0018 10.9265C14.9918 10.9451 14.9874 10.9657 14.9892 10.9862C14.991 11.0067 14.9988 11.0265 15.0119 11.0435Z" fill="#B0B0B0"/>
<path d="M20.0085 11.1215C20.0236 11.1107 20.0345 11.0959 20.0396 11.0793C20.0448 11.0626 20.0439 11.045 20.0371 11.0289C20.0085 11 19.9461 11.0154 19.9024 11.0109C19.8805 11.0109 19.8142 11.0025 19.8462 10.9497C19.8708 10.9219 19.8898 10.8906 19.9024 10.8571C19.9226 10.8188 19.9063 10.7924 19.8333 10.769C19.7712 10.7599 19.7079 10.7599 19.6458 10.769C19.6026 10.7764 19.5863 10.7954 19.5779 10.8427C19.5779 10.9149 19.6306 10.9113 19.6823 10.9422C19.692 10.9497 19.6998 10.959 19.7052 10.9694C19.7106 10.9797 19.7133 10.991 19.7133 11.0025C19.7133 11.0139 19.7106 11.0252 19.7052 11.0356C19.6998 11.046 19.692 11.0552 19.6823 11.0627C19.6334 11.1025 19.5992 11.123 19.5492 11.1623C19.5262 11.1971 19.511 11.2504 19.5818 11.2673C19.707 11.2972 20.0085 11.125 20.0085 11.1215Z" fill="#B0B0B0"/>
</g>
<path d="M7.94288 8.81405C8.38023 8.85239 8.14106 8.15884 8.29995 8.03337C8.33139 7.97064 8.38529 7.97064 8.38978 8.04881V8.6378C8.38639 8.70372 8.40929 8.7686 8.45447 8.82104C8.49964 8.87348 8.5642 8.91013 8.63681 8.92457C8.75246 8.91711 8.82826 8.92459 8.87317 9.02118C8.88946 9.36073 8.90573 9.6993 8.92201 10.0389C8.92201 10.0389 9.18813 10.1075 9.20273 9.46777C9.17691 9.21387 9.16885 8.9588 9.17859 8.70402C9.17859 8.63182 9.2847 8.62686 9.35487 8.6632C9.46716 8.7354 9.5233 8.82351 9.69847 8.78965C9.96852 8.72343 10.1319 8.60793 10.137 8.42371C10.1295 8.24394 10.0887 8.06648 10.0162 7.89845C10.0269 7.86708 9.96347 7.78392 9.97526 7.75256C10.0241 7.81977 10.0976 7.81379 10.1139 7.75256C10.085 7.62397 10.0026 7.50972 9.88319 7.43241C9.78662 7.35773 9.64682 7.37319 9.59517 7.52853C9.58845 7.73497 9.66623 7.93657 9.81413 8.0961C9.86087 8.18426 9.88026 8.28187 9.87028 8.37889C9.83423 8.39716 9.79192 8.4032 9.75122 8.39588C9.71053 8.38855 9.67422 8.36838 9.64907 8.33908C9.64907 8.33908 9.43292 8.19568 9.43292 8.16432C9.48572 8.01655 9.47997 7.85722 9.41663 7.71275C9.39157 7.62126 9.34316 7.5361 9.27515 7.4638C9.26629 7.45199 9.25427 7.4423 9.24017 7.4356C9.22606 7.42891 9.21031 7.42539 9.19431 7.42539C9.17831 7.42539 9.16255 7.42891 9.14845 7.4356C9.13435 7.4423 9.12233 7.45199 9.11346 7.4638C9.03815 7.65821 9.04352 7.87004 9.12862 8.06124C9.17859 8.19019 9.25382 8.27186 9.21845 8.27186C9.18869 8.34555 9.1275 8.32863 9.08371 8.24299C9.03111 8.06324 9.00599 7.87802 9.00903 7.69233C8.99163 7.54645 8.97086 7.23727 8.86362 7.15761C8.7985 7.07944 8.70081 7.11678 8.66544 7.18897C8.6566 7.32908 8.66017 7.46957 8.67611 7.60918C8.73737 7.83186 8.78053 8.05814 8.80524 8.2863C8.81478 8.60544 8.59583 8.4247 8.60818 8.26588C8.65526 8.06383 8.65296 7.85517 8.60144 7.65398C8.56775 7.57332 8.52565 7.5544 8.43863 7.56585C8.37069 7.56087 8.1944 7.73116 8.14387 8.01396C8.11747 8.10449 8.09668 8.19624 8.08156 8.28879C8.05685 8.43815 7.94849 8.53772 7.87382 8.26837C7.80869 8.06921 7.7694 7.58875 7.65936 7.70077C7.62231 8.08066 7.58188 8.74534 7.94288 8.81405Z" fill="white"/>
<path d="M8.6007 9.09082C8.39924 9.11905 8.20967 9.19369 8.05094 9.30728C7.89222 9.42086 7.7699 9.56944 7.69623 9.73809C8.078 9.57777 8.45135 9.42242 8.83705 9.25762C8.77586 9.17298 8.83425 9.09829 8.6007 9.09082Z" fill="white"/>
<path d="M10.5799 10.3365C10.6436 10.0565 10.6614 9.76972 10.6327 9.48515H10.6383C10.8325 9.67087 11.1015 9.51054 11.161 9.44781C11.1681 9.43842 11.1775 9.43054 11.1885 9.42477C11.1995 9.419 11.2118 9.41549 11.2246 9.41444C11.2373 9.41339 11.2501 9.41485 11.2621 9.41873C11.2741 9.4226 11.285 9.42878 11.294 9.43684C11.332 9.46113 11.3756 9.47752 11.4217 9.48476C11.4678 9.492 11.5152 9.48993 11.5602 9.47868C11.6053 9.46743 11.6469 9.44729 11.682 9.41979C11.7171 9.39229 11.7447 9.35813 11.7628 9.31984C11.7979 9.15158 11.8202 8.98141 11.8296 8.8105C11.7549 8.82284 11.6837 8.84824 11.6202 8.8852C11.6128 8.89216 11.608 8.90108 11.6067 8.9106C11.5972 8.96039 11.5893 9.01016 11.5809 9.05647L11.5753 9.06741C11.5711 9.07445 11.5644 9.08008 11.5562 9.08336C11.522 9.10029 11.4624 9.08933 11.4596 9.04601C11.4136 8.85781 11.2222 8.83141 11.1054 9.12168C11.0268 9.17844 10.8842 9.1879 10.869 9.10475C10.8892 8.90958 10.8011 8.8832 10.6231 8.97481C10.567 8.58796 10.5108 8.21952 10.4547 7.83267C10.5282 7.83267 10.5962 7.88247 10.6641 7.8048C10.601 7.57386 10.4956 7.35367 10.3519 7.15306L10.3396 7.14112L10.3328 7.13762L10.3272 7.13413L10.3166 7.13066C10.309 7.12752 10.3006 7.12665 10.2924 7.12817C10.2674 7.13315 10.2429 7.13964 10.2189 7.14759C10.1912 7.1539 10.1653 7.165 10.1425 7.18026C10.1197 7.19551 10.1006 7.2146 10.0862 7.23645C10.0718 7.25829 10.0624 7.28247 10.0586 7.30755C10.0548 7.33264 10.0566 7.35813 10.0639 7.38258C10.1728 7.97506 10.2419 8.42812 10.3491 9.01812C10.3654 9.08782 10.3003 9.17943 10.215 9.17097C10.0723 9.08434 10.037 8.90858 9.79276 8.91556C9.69368 8.92665 9.60103 8.96508 9.5279 9.02538C9.45476 9.08568 9.40483 9.16483 9.38515 9.25165C9.35053 9.37911 9.35053 9.51204 9.38515 9.6395C9.43318 9.69059 9.49816 9.72695 9.57084 9.7434C9.64351 9.75984 9.72019 9.75552 9.78995 9.73109C9.8983 9.69126 9.987 9.59617 10.0263 9.61908C10.0493 9.65642 10.0224 9.96459 9.51541 10.2006C9.20438 10.3236 8.95735 10.35 8.82541 10.1259C8.74232 9.98502 8.83496 9.4503 8.63116 9.57328C8.02537 10.943 10.0286 11.1406 10.2593 9.63451C10.2745 9.59219 10.3188 9.55037 10.3503 9.56082C10.3654 9.5658 10.3761 9.58272 10.38 9.6106C10.3272 10.9753 8.82373 11.0634 8.5694 10.6333C8.50908 10.4855 8.47959 10.3293 8.48237 10.1722C8.48187 10.1177 8.46027 10.0649 8.42118 10.0228C8.35998 9.98202 8.27858 10.0866 8.25949 10.2718C8.24079 10.3813 8.23402 10.4922 8.23927 10.6029C8.32293 11.6833 10.2621 11.2257 10.5799 10.3365ZM9.83542 9.40201C9.82026 9.42143 9.76749 9.41295 9.731 9.41295C9.71232 9.41434 9.69357 9.41112 9.67682 9.40365C9.66008 9.39618 9.64599 9.38475 9.63611 9.37062C9.62264 9.33328 9.66194 9.29845 9.67934 9.27107L9.68721 9.26159C9.70556 9.24857 9.72781 9.24062 9.75121 9.2387C9.77397 9.23566 9.7972 9.23995 9.81668 9.25083C9.83615 9.2617 9.85058 9.27842 9.85732 9.29793C9.8645 9.31502 9.86627 9.33354 9.86241 9.35145C9.85854 9.36936 9.84921 9.38599 9.83542 9.39952V9.40201Z" fill="white"/>
<path d="M10.7629 8.18274C10.9015 8.20081 11.0422 8.20199 11.1812 8.18623C11.4319 7.99764 11.6645 7.79097 11.8768 7.56835C11.847 7.54544 11.8206 7.53002 11.7898 7.50711C11.7589 7.48421 11.7628 7.45732 11.7898 7.43491C11.8169 7.4179 11.8394 7.39576 11.8557 7.37009C11.872 7.34443 11.8817 7.31588 11.8841 7.28649C11.8864 7.25711 11.8814 7.22765 11.8694 7.20019C11.8573 7.17273 11.8386 7.14797 11.8145 7.12772C11.7618 7.10607 11.7041 7.09583 11.646 7.09784C11.5986 7.09939 11.5521 7.11046 11.5102 7.13021C11.4616 7.16692 11.4301 7.2183 11.4218 7.2744C11.4135 7.3305 11.429 7.38734 11.4653 7.43391C11.5399 7.46527 11.6157 7.53349 11.5658 7.57132C11.3496 7.77346 10.7876 8.11354 10.759 8.17578V8.18174L10.7629 8.18274ZM11.6146 7.27808H11.6213C11.643 7.27997 11.6635 7.28716 11.6808 7.29886C11.6981 7.31056 11.7113 7.32629 11.719 7.34429C11.7409 7.38661 11.7297 7.42845 11.6943 7.43591C11.6715 7.43659 11.6491 7.43076 11.6303 7.41929C11.6115 7.40782 11.5973 7.39132 11.5899 7.37219C11.5674 7.32638 11.5792 7.28554 11.6146 7.27808Z" fill="white"/>
<path d="M7.89618 10.7831C7.8013 10.9519 7.76144 10.833 7.75358 10.7398C7.74328 10.5801 7.75288 10.4198 7.78221 10.2619C7.80691 10.1279 7.7822 10.1693 7.73448 10.223C7.63818 10.3526 7.57737 10.5004 7.5569 10.6545C7.53643 10.8086 7.55687 10.9649 7.61659 11.1108C7.64576 11.1412 7.68362 11.164 7.72619 11.177C7.76876 11.19 7.81449 11.1925 7.85856 11.1845C7.92203 11.1398 7.97068 11.0807 7.99934 11.0134C8.028 10.9462 8.03561 10.8733 8.02137 10.8026C7.97646 10.7398 7.94109 10.7304 7.89618 10.7831Z" fill="white"/>
<path d="M14.9573 7.61062C15.2072 7.90935 15.4463 8.20808 15.6788 8.52224C15.7141 8.75376 15.7411 8.9798 15.7574 9.20534C15.7957 9.74761 15.7979 10.2914 15.7641 10.8339C15.8685 10.8374 16.037 10.6845 16.0954 10.462C16.1138 10.0867 16.1097 9.71071 16.083 9.33577C16.083 9.25859 16.0763 9.16949 16.0706 9.07339C16.3407 9.46871 16.6018 9.88643 16.8567 10.3455C16.9515 10.3057 16.9324 9.83614 16.8785 9.76993C16.6736 9.37461 16.3884 8.98326 16.2975 8.8329C16.2649 8.77863 16.1549 8.62828 16.0218 8.45253C15.9988 8.20359 15.973 7.99349 15.9567 7.92976C15.9146 7.66737 16.0774 7.95862 16.056 7.80577C15.9812 7.55378 15.8417 7.32054 15.6484 7.12419C15.5861 7.04602 15.5889 7.03009 15.4924 7.14361C15.4447 7.23716 15.4301 7.34126 15.4503 7.44233C15.4256 7.41096 15.3941 7.37263 15.3498 7.32533C15.1813 7.19887 15.1746 7.1904 15.0359 7.08685C14.9669 7.04253 14.7956 6.96137 14.7659 7.0938C14.7508 7.18684 14.7554 7.28157 14.7794 7.37313C14.8258 7.45933 14.8857 7.53928 14.9573 7.61062ZM15.4884 7.59269C15.4941 7.61808 15.5008 7.64246 15.5047 7.66985C15.5182 7.72511 15.5317 7.7809 15.544 7.83467C15.4879 7.76497 15.4435 7.71318 15.4233 7.69376C15.2992 7.56132 15.4272 7.60812 15.4884 7.59269Z" fill="white"/>
<path d="M17.0089 10.2026C17.0253 10.2955 16.9995 10.3904 16.937 10.4664C16.6665 10.7316 16.3362 10.9433 15.9674 11.0878C15.9264 11.1277 16.0668 11.3009 16.2481 11.3009C16.4313 11.2755 16.6039 11.2084 16.7491 11.1062C16.8943 11.004 17.0072 10.8702 17.0768 10.7179C17.1793 10.5839 17.2445 10.4304 17.2671 10.2698C17.3021 9.50489 17.2365 8.73895 17.0718 7.98748C17.0627 7.93457 17.0656 7.8806 17.0802 7.82867C17.1004 7.80726 17.1683 7.82869 17.2037 7.7789C17.2565 7.7321 17.0667 7.33827 16.9578 7.18641C16.9196 7.11771 16.9061 7.07337 16.841 7.19386C16.7629 7.32581 16.7254 7.47366 16.7321 7.62255C16.8758 8.51874 16.9163 9.3039 17.0089 10.2026Z" fill="white"/>
<path d="M20.9809 7.98999C20.9636 7.91392 20.9546 7.83657 20.9539 7.75898C20.973 7.71417 21.0718 7.76346 21.1089 7.71218C21.1616 7.66538 20.8523 7.30987 20.7423 7.15802C20.7058 7.08931 20.6917 7.045 20.6266 7.16549C20.5538 7.29908 20.531 7.44979 20.5615 7.59567C20.7216 8.51794 20.8204 9.44774 20.8574 10.3803C20.8487 10.4587 20.8281 10.5358 20.7962 10.6093C20.7083 10.7228 20.6062 10.827 20.4919 10.92C20.3914 10.9853 20.178 11.048 20.1101 11.0958C19.8889 11.2078 19.8855 11.3392 20.0669 11.3447C20.2441 11.3509 20.4205 11.319 20.5808 11.2516C20.7412 11.1842 20.8807 11.0835 20.9876 10.9579C21.0754 10.8011 21.1266 10.6302 21.1381 10.4555C21.1838 9.63103 21.1311 8.80462 20.9809 7.98999Z" fill="white"/>
<path d="M18.6576 8.95381C18.6576 8.82834 18.675 8.66353 18.6834 8.55997C18.6834 8.52014 18.6969 8.47833 18.7396 8.46738C18.7823 8.45643 18.8552 8.50621 18.8575 8.46738C18.8556 8.37857 18.8296 8.29146 18.7817 8.21345C18.7617 8.19161 18.7349 8.17547 18.7046 8.16708C18.6743 8.15869 18.6419 8.15842 18.6115 8.16629C18.581 8.17416 18.5539 8.18983 18.5334 8.21133C18.513 8.23283 18.5001 8.2592 18.4965 8.28715C18.4965 8.33693 18.5234 8.36779 18.5184 8.41608C18.51 8.44397 18.4774 8.46188 18.4027 8.42952C18.4134 8.41856 18.3539 8.34388 18.3539 8.34388C18.2977 8.31152 18.2152 8.3439 18.1652 8.37278C18.1469 8.40387 18.1357 8.4379 18.1324 8.47288C18.1291 8.50786 18.1338 8.54306 18.1462 8.57641C18.2315 8.71184 18.5173 8.95032 18.6576 8.95381Z" fill="white"/>
<path d="M18.968 12.955C18.8799 12.9659 18.6311 12.9873 18.6311 12.9873C18.3403 12.9569 18.1259 12.9525 17.8014 12.9405C17.8311 12.9067 17.8844 12.7692 17.8204 12.719C17.8094 12.7119 17.7968 12.7069 17.7835 12.7042C17.7702 12.7016 17.7564 12.7013 17.743 12.7035H17.739H17.7351L17.7295 12.6976C17.7132 12.6757 17.7048 12.6239 17.6941 12.6094H17.6902C17.649 12.6156 17.6109 12.6329 17.5811 12.6588C17.5512 12.6848 17.531 12.7182 17.5232 12.7546C17.5154 12.791 17.5203 12.8287 17.5373 12.8625C17.5543 12.8964 17.5826 12.9248 17.6183 12.944C15.3378 12.937 11.839 12.8907 11.0895 12.8887C10.6695 12.8887 9.34284 12.839 9.31702 12.839C9.46009 13.004 9.6494 13.1328 9.8661 13.2128C10.0828 13.2927 10.3193 13.3209 10.5522 13.2945C11.5627 13.298 16.2569 13.303 17.5919 13.308C17.5585 13.3798 17.5484 13.4585 17.5628 13.5351C17.5772 13.6117 17.6155 13.6833 17.6733 13.7416L17.679 13.7451H17.6885C17.7783 13.7645 17.816 13.7077 17.8463 13.6669C18.1877 13.6832 18.53 13.6832 18.8714 13.6669C18.922 13.7316 18.9719 13.7934 19.0657 13.7824C19.2341 13.7526 19.3644 13.7366 19.37 13.4369C19.3616 13.4344 19.3475 12.9251 18.968 12.955ZM18.8035 13.5026H18.7968H18.7861L18.5054 13.4957V13.4812C18.4796 13.414 18.2948 13.4175 18.2499 13.4703V13.4737V13.4797V13.4872V13.4942C18.1082 13.5014 17.966 13.4977 17.8249 13.4832C17.7828 13.4364 17.7884 13.3518 17.8384 13.3304C18.1713 13.3458 18.4835 13.3364 18.8164 13.3508C18.8371 13.3725 18.8474 13.4005 18.845 13.4288C18.8426 13.4571 18.8277 13.4835 18.8035 13.5021V13.5026Z" fill="white"/>
<path d="M12.4017 8.52874C12.5758 8.59247 12.6886 8.29873 12.7616 7.97461C12.8105 7.88549 12.8469 7.87502 12.8739 7.92182C12.8672 8.35199 12.9076 8.44709 13.0317 8.57803C13.1036 8.63483 13.1959 8.66713 13.2921 8.66913C13.3884 8.67114 13.4823 8.64271 13.5572 8.58897C13.5746 8.57204 13.7744 8.39631 13.7744 8.39631C13.7978 8.37482 13.8296 8.36211 13.8632 8.36081C13.8969 8.35952 13.9298 8.36974 13.9552 8.38935C14.0203 8.44212 14.0114 8.53521 14.1523 8.59894C14.2261 8.62119 14.3054 8.62555 14.3818 8.61155C14.4582 8.59754 14.529 8.56569 14.5868 8.51929C14.6654 8.3988 14.6845 8.35797 14.7216 8.31216C14.7777 8.24495 14.8748 8.27581 14.8748 8.29673C14.8664 8.33407 14.8097 8.37142 14.8479 8.43864C14.9147 8.48444 14.931 8.45405 14.9703 8.44459C15.1118 8.38584 15.2201 8.11452 15.2201 8.11452C15.2257 8.01195 15.164 8.02041 15.1196 8.04082C15.0668 8.0697 15.0635 8.07916 15.0073 8.10953C14.9383 8.118 14.8052 8.1593 14.7384 8.0662C14.6716 7.95666 14.6716 7.80481 14.6205 7.69528C14.6205 7.68681 14.5307 7.52202 14.6149 7.51106C14.6559 7.51704 14.7468 7.53996 14.7614 7.47274C14.8047 7.40752 14.6665 7.22081 14.5728 7.1282C14.5544 7.1084 14.5315 7.09229 14.5055 7.08098C14.4795 7.06967 14.4511 7.06342 14.4222 7.06262C14.3933 7.06182 14.3646 7.06651 14.3378 7.07636C14.3111 7.08621 14.2871 7.10098 14.2674 7.11972C14.1899 7.18246 14.1994 7.25217 14.1843 7.31889C14.1711 7.36609 14.1708 7.41538 14.1833 7.46272C14.1958 7.51006 14.2207 7.5541 14.2561 7.59123C14.3834 7.75193 14.4431 7.94716 14.4246 8.14287C14.4001 8.17528 14.3665 8.20151 14.3271 8.21896C14.2877 8.23642 14.2439 8.2445 14.2 8.24245C14.1405 8.2305 14.0439 8.2076 13.9934 7.86904C14.0034 7.60434 13.9655 7.33993 13.8811 7.08587C13.8379 6.98629 13.8053 6.88673 13.6975 7.05949C13.6509 7.11344 13.6204 7.177 13.6091 7.24422C13.5977 7.31145 13.6057 7.38012 13.6324 7.44384C13.7146 7.63409 13.738 7.84034 13.7003 8.04131C13.6616 8.09793 13.618 8.15188 13.5701 8.20264C13.536 8.23594 13.4897 8.25746 13.4395 8.26339C13.3892 8.26931 13.3382 8.25923 13.2955 8.23498C13.2512 8.21579 13.213 8.187 13.1845 8.15123C13.156 8.11545 13.1382 8.07388 13.1327 8.03037C13.1542 7.80993 13.1464 7.58803 13.1097 7.36918C13.1018 7.35006 13.0885 7.33303 13.0711 7.31974C13.0537 7.30645 13.0327 7.29733 13.0102 7.29324C12.9877 7.28915 12.9644 7.29023 12.9425 7.29637C12.9206 7.30251 12.9009 7.31352 12.8851 7.32834C12.6721 7.53646 12.5295 7.79354 12.4736 8.07018C12.4096 8.25091 12.3417 8.19914 12.2956 8.12695C12.1833 8.03036 12.1772 7.28404 12.0374 7.40553C11.8111 7.96963 12.1586 8.58799 12.4017 8.52874Z" fill="white"/>
<path d="M15.7025 9.75796V9.74851L15.6374 9.71365L14.336 9.70417C14.3233 9.70079 14.3114 9.69557 14.3006 9.68873V9.68527V9.67679C14.3123 9.6665 14.3268 9.65913 14.3427 9.6554C14.6538 9.61805 15.2051 9.54087 15.2444 9.06987C15.2554 9.01374 15.2522 8.95615 15.2352 8.90122C15.2182 8.84628 15.1877 8.79536 15.1459 8.7521C15.1041 8.70884 15.052 8.67429 14.9934 8.65094C14.9348 8.62759 14.8711 8.61602 14.8069 8.61702C14.7426 8.61803 14.6794 8.6316 14.6218 8.65677C14.5642 8.68195 14.5135 8.7181 14.4735 8.76265C14.4334 8.80719 14.405 8.85903 14.3901 8.91447C14.3753 8.9699 14.3745 9.02758 14.3877 9.08333C14.377 9.14706 14.4124 9.27101 14.3388 9.28545C13.8605 9.32279 13.3378 9.58418 13.3187 9.77686H13.3108H13.3069C13.2835 9.7658 13.2646 9.7484 13.2531 9.72717C13.2416 9.70595 13.238 9.68201 13.2429 9.65886C13.2218 9.31232 13.1108 8.9748 12.9184 8.67257C12.8516 8.61233 12.8235 8.58843 12.8027 8.58594H12.7932H12.7876C12.7724 8.5954 12.755 8.61731 12.7168 8.6427C12.6506 8.70793 12.6394 8.75371 12.6433 8.88466C12.6433 8.89909 12.764 9.19535 12.8645 9.40396C12.9504 9.62791 12.9788 9.86605 12.9476 10.101C12.7711 10.411 12.4932 10.6666 12.1504 10.8344C12.0981 10.8545 12.0417 10.8649 11.9847 10.8649C11.9278 10.8649 11.8714 10.8545 11.8191 10.8344C11.7894 10.8156 11.7656 10.7904 11.7502 10.761C11.7347 10.7317 11.7281 10.6993 11.731 10.6671C12.0768 10.5032 12.3567 10.2481 12.5321 9.93719C12.6112 9.76946 12.6193 9.58207 12.5552 9.40943C12.5368 9.31871 12.4901 9.23436 12.4204 9.16596C12.4664 9.14804 12.5804 9.22374 12.5995 9.17544C12.5648 9.03409 12.4858 8.90429 12.3716 8.80103C12.3549 8.78287 12.3341 8.76797 12.3106 8.75727C12.2871 8.74656 12.2614 8.74027 12.235 8.73882C12.2086 8.73737 12.1822 8.7408 12.1574 8.74885C12.1326 8.7569 12.1099 8.7694 12.0909 8.78559C11.9943 8.83239 11.9729 9.00366 12.0173 9.15402C12.069 9.26604 12.2087 9.28546 12.3064 9.513C12.3259 9.59071 12.3199 9.67174 12.289 9.7465C12.1145 9.93514 11.9127 10.1025 11.6889 10.2444V10.2469V10.2434C11.6889 10.2349 11.6889 10.211 11.6889 10.1732C11.6849 10.1045 11.7175 9.95162 11.7147 9.92424C11.5423 10.0238 11.4851 10.3255 11.4525 10.4146C11.0222 10.6259 10.6145 10.8714 10.2342 11.148C10.0832 11.3542 11.2582 10.9155 11.3941 10.8628L11.398 10.8652C11.4239 10.8916 11.425 10.9783 11.5025 11.0589C11.5773 11.1394 11.6765 11.1993 11.7884 11.2315C11.9003 11.2637 12.0202 11.2668 12.1341 11.2406C12.5093 11.1042 12.8292 10.8705 13.052 10.57C13.0874 10.5242 13.1418 10.4893 13.1935 10.5242C13.3271 10.7192 13.5176 10.8785 13.7449 10.9853C13.9722 11.0922 14.2279 11.1426 14.4848 11.1311C14.633 10.9748 14.5634 10.8961 14.5039 10.8623C14.4865 10.8513 14.19 10.7477 14.144 10.6457C14.1154 10.5506 14.185 10.4659 14.3276 10.4037C14.7325 10.3704 15.133 10.3037 15.524 10.2045C15.5397 10.0764 15.585 9.95254 15.6571 9.84061C15.6642 9.81012 15.6798 9.78169 15.7025 9.75796ZM14.6324 9.03155L14.6364 9.02207V9.01709L14.642 9.01213C14.6514 9.00555 14.6627 9.00139 14.6746 9.00016C14.7106 8.99899 14.7461 9.00788 14.7762 9.02557C14.8278 9.05195 14.8593 9.09177 14.8548 9.12065V9.12415V9.12764L14.8463 9.13509C14.8251 9.14525 14.8009 9.14977 14.7768 9.14809C14.7528 9.14641 14.7297 9.13862 14.7105 9.12563C14.689 9.1168 14.6704 9.10331 14.6564 9.08643C14.6424 9.06955 14.6334 9.04984 14.6302 9.02906L14.6324 9.03155ZM14.1081 10.1851C13.9683 10.2274 13.8335 10.2598 13.8324 10.438C13.8498 10.5272 13.8476 10.574 13.8324 10.5959L13.8268 10.6009L13.8184 10.6048H13.8144C13.7791 10.6083 13.7314 10.5795 13.6949 10.564C13.5985 10.514 13.5161 10.4454 13.4538 10.3632C13.3915 10.2811 13.3509 10.1875 13.335 10.0896C13.3341 10.0733 13.3371 10.057 13.3436 10.0418C13.3501 10.0266 13.3602 10.0127 13.373 10.0011C13.3859 9.98946 13.4013 9.98028 13.4183 9.97417C13.4353 9.96806 13.4536 9.96514 13.472 9.96557H13.4854C13.6652 9.99615 13.8472 10.0151 14.03 10.0223C14.1743 10.0373 14.249 10.1423 14.1075 10.1856L14.1081 10.1851Z" fill="white"/>
<path d="M9.2988 7.40507C9.44814 7.4688 9.72941 7.4424 9.71875 7.22781C9.71875 7.20989 9.71313 7.14466 9.71201 7.12823C9.68225 7.0645 9.59972 7.07844 9.57895 7.14516C9.57333 7.16657 9.58849 7.20043 9.56828 7.21238C9.54807 7.22433 9.50708 7.21588 9.50877 7.15713C9.5059 7.13882 9.49736 7.12156 9.48407 7.10732C9.47474 7.10114 9.46304 7.09845 9.4515 7.09985C9.43129 7.09985 9.43129 7.10483 9.42006 7.12027C9.41306 7.1362 9.40889 7.15301 9.40771 7.17008C9.40771 7.19148 9.39536 7.19895 9.37795 7.20244C9.36055 7.20592 9.3628 7.20243 9.3482 7.19496C9.3336 7.1875 9.3263 7.1815 9.3263 7.16606C9.32653 7.1482 9.32369 7.13042 9.31788 7.11331C9.30762 7.1039 9.29425 7.09761 9.2797 7.09538C9.19829 7.09538 9.19268 7.17852 9.19661 7.20988C9.19156 7.21437 9.18595 7.36374 9.2988 7.40507Z" fill="white"/>
<path d="M13.6815 9.06793C13.8325 9.13066 14.1868 9.09582 14.1026 8.89119C14.1026 8.87178 14.097 8.80804 14.0958 8.79161C14.0661 8.72888 13.9836 8.74183 13.9628 8.80954C13.9572 8.83145 13.9735 8.8648 13.9521 8.87724C13.9398 8.8882 13.8909 8.88072 13.892 8.82197C13.8894 8.80361 13.8808 8.78633 13.8673 8.77219C13.858 8.76606 13.8463 8.76337 13.8348 8.76472C13.8146 8.76472 13.8146 8.77069 13.8033 8.78663C13.7963 8.80255 13.7922 8.81937 13.791 8.83643C13.791 8.85834 13.7786 8.8663 13.7612 8.86779C13.7438 8.86929 13.7478 8.86778 13.7315 8.86181C13.7152 8.85583 13.7096 8.84837 13.7096 8.83294C13.7094 8.816 13.7062 8.79917 13.7 8.78313C13.6959 8.77789 13.6904 8.77356 13.6841 8.77046C13.6778 8.76735 13.6708 8.76558 13.6635 8.76523C13.5821 8.76523 13.5765 8.84688 13.5805 8.87825C13.576 8.87775 13.5715 9.02462 13.6815 9.06793Z" fill="white"/>
<path d="M16.2456 8.39373C16.395 8.45746 16.6763 8.43106 16.6667 8.21648C16.6667 8.19706 16.6611 8.13482 16.66 8.11689C16.6285 8.05416 16.5443 8.0671 16.5269 8.13382C16.5202 8.15523 16.5365 8.19057 16.5146 8.20153C16.4927 8.21248 16.4534 8.20503 16.4584 8.14628C16.4549 8.12814 16.4464 8.11103 16.4337 8.09647C16.4243 8.09043 16.4127 8.08779 16.4012 8.08903C16.3793 8.08903 16.3809 8.09398 16.3686 8.10942C16.3625 8.12558 16.3583 8.14229 16.3562 8.15923C16.3562 8.18113 16.3456 8.1881 16.3276 8.19059C16.3096 8.19308 16.3124 8.19057 16.2962 8.1846C16.2799 8.17863 16.276 8.17117 16.276 8.15573C16.276 8.13763 16.2728 8.11964 16.2664 8.10246C16.2566 8.09334 16.2439 8.08709 16.2299 8.08453C16.1485 8.08453 16.1418 8.1677 16.1468 8.19906C16.1384 8.20454 16.1345 8.35141 16.2456 8.39373Z" fill="white"/>
<path d="M19.5873 8.92257C19.6945 9.05749 19.8018 9.19591 19.9068 9.33582C19.9534 9.76283 19.9693 10.192 19.9545 10.6209C19.9438 10.704 20.2807 10.3764 20.279 10.2226C20.279 10.0876 20.279 9.96365 20.279 9.84914C20.4407 10.0802 20.5968 10.3141 20.7433 10.5511C20.8354 10.5078 20.8073 10.0453 20.7489 9.98008C20.5968 9.75106 20.3946 9.49714 20.2436 9.30446C20.2139 9.06 20.1729 8.76722 20.1555 8.68058C20.1257 8.54217 20.0993 8.33607 20.0539 8.17127C20.0322 8.07648 20.02 7.98018 20.0174 7.8835C20.0365 7.83769 20.1044 7.88348 20.1381 7.83369C20.1001 7.5793 20.0025 7.33475 19.8517 7.11573C19.8108 7.04952 19.735 7.07244 19.6423 7.17949C19.5553 7.25069 19.5862 7.412 19.6193 7.56734C19.7035 7.96017 19.7782 8.36094 19.8355 8.76224C19.7232 8.61636 19.5884 8.43563 19.4565 8.26435L19.4402 8.1872C19.4402 8.17973 19.4228 7.86557 19.4076 7.7889C19.4076 7.75902 19.397 7.74907 19.4335 7.75255C19.4516 7.77019 19.4738 7.78411 19.4986 7.79336C19.5379 7.80083 19.5733 7.74357 19.5503 7.6888C19.4324 7.49263 19.3128 7.29747 19.196 7.1023C19.1674 7.07691 19.1292 7.05252 19.0837 7.10978C19.0555 7.1312 19.0329 7.15775 19.0174 7.18766C19.0019 7.21757 18.9939 7.2501 18.9939 7.28302C19.0045 7.42143 19.0304 7.56236 19.0399 7.70077L19.0506 7.75602C19.0385 7.74117 19.0254 7.72705 19.0113 7.71372C18.7081 7.43092 19.1511 7.66789 18.9551 7.44882C18.8483 7.33321 18.7276 7.22822 18.5953 7.13567C18.5245 7.09484 18.483 7.01518 18.4566 7.14861C18.4438 7.26625 18.4402 7.38453 18.4459 7.50261C18.4628 7.58357 18.5034 7.65915 18.5638 7.72168C18.7659 7.94473 18.9742 8.18071 19.1814 8.42766C19.2224 8.92853 19.2319 9.38759 19.2752 9.88995C19.2673 10.1045 19.1909 10.3878 19.1202 10.4152C19.1202 10.4152 19.013 10.4705 18.9411 10.4093C18.8423 10.3144 18.755 10.2106 18.6806 10.0996C18.666 10.0819 18.6469 10.0675 18.6249 10.0575C18.6028 10.0476 18.5784 10.0425 18.5537 10.0425C18.529 10.0425 18.5046 10.0476 18.4826 10.0575C18.4605 10.0675 18.4414 10.0819 18.4268 10.0996C18.238 10.3289 18.0857 10.5802 17.9743 10.8464C17.9378 10.8962 17.8328 10.9415 17.7177 10.8414C17.562 10.6186 17.5081 10.3514 17.5673 10.0946L17.5634 10.108C17.4738 10.2211 17.4186 10.3527 17.4028 10.4902C17.3871 10.6277 17.4115 10.7664 17.4735 10.8932C17.5325 11.0328 17.6463 11.1488 17.7941 11.2198C17.8176 11.2392 17.8455 11.2539 17.8759 11.2629C17.9064 11.272 17.9387 11.2751 17.9706 11.2721C18.0025 11.2691 18.0333 11.2601 18.061 11.2457C18.0887 11.2313 18.1125 11.2117 18.131 11.1884C18.2842 11.0475 18.2887 10.6905 18.3606 10.6174C18.3658 10.5949 18.3781 10.5743 18.3961 10.5578C18.4141 10.5414 18.4371 10.5299 18.4622 10.5246C18.4874 10.5194 18.5137 10.5206 18.5381 10.5283C18.5624 10.5359 18.5838 10.5495 18.5998 10.5676C18.6555 10.6391 18.7306 10.6972 18.8181 10.7364C18.8807 10.7924 18.964 10.8265 19.0527 10.8322C19.1413 10.838 19.2293 10.8151 19.3004 10.7677C19.4225 10.7078 19.5147 10.6093 19.5587 10.4919C19.6163 9.97033 19.6259 9.4455 19.5873 8.92257Z" fill="white"/>
<path d="M16.3497 7.56375C16.4014 7.69619 16.3076 7.82167 16.3632 7.84208C16.4188 7.86249 16.4867 7.70467 16.5142 7.55929C16.5256 7.48197 16.5135 7.40336 16.4792 7.33159C16.4448 7.25981 16.3895 7.19746 16.3189 7.15102C16.2358 7.13309 16.1207 7.17491 16.1572 7.273C16.1375 7.31781 16.32 7.47712 16.3497 7.56375Z" fill="white"/>
<path d="M17.7167 10.6771C17.8211 10.6771 17.9412 10.465 17.9974 10.2554C18.0102 10.0427 18.0019 9.82947 17.9727 9.61808C17.9631 9.4493 17.7621 8.06767 17.7189 7.93922C17.6701 7.69575 17.9227 7.90787 17.8958 7.76597C17.8087 7.58773 17.5915 7.32635 17.5235 7.172C17.4825 7.10429 17.5005 7.04553 17.4067 7.15407C17.3257 7.34692 17.2968 7.55395 17.3225 7.7585C17.5767 8.71521 17.7089 9.69421 17.7167 10.6771Z" fill="white"/>
<path d="M20.3291 7.95606C20.3532 8.02228 20.2909 8.23539 20.3414 8.25481C20.392 8.27423 20.4537 8.10545 20.4801 7.95011C20.4936 7.86198 20.424 7.56125 20.301 7.50698C20.2804 7.50049 20.2581 7.49935 20.2368 7.50367C20.2155 7.508 20.196 7.51762 20.1806 7.53142C20.1653 7.54521 20.1546 7.56257 20.15 7.58153C20.1454 7.60048 20.1469 7.62021 20.1545 7.63841C20.136 7.69119 20.3021 7.86196 20.3291 7.95606Z" fill="white"/>
<path d="M11.2393 10.2365C11.2826 10.2525 11.3455 10.127 11.3696 10.0115C11.3831 9.94777 11.3135 9.7262 11.2012 9.68637C11.1293 9.67293 11.0327 9.68638 11.0614 9.78596C11.0574 9.83574 11.2203 9.89896 11.2298 10.0175C11.25 10.0633 11.1899 10.2211 11.2393 10.2365Z" fill="white"/>
<path d="M8.09671 7.39154C8.11861 7.44133 8.07201 7.60614 8.11973 7.62058C8.16745 7.63501 8.22585 7.50854 8.24887 7.38905C8.26234 7.32183 8.2528 7.09779 8.08044 7.05049C8.0097 7.03605 7.91201 7.07091 7.94177 7.15007C7.92605 7.18941 8.07089 7.32084 8.09671 7.39154Z" fill="white"/>
<path d="M11.4862 8.12388C11.4204 8.16143 11.3732 8.21985 11.3543 8.28722C11.3354 8.35458 11.3462 8.4258 11.3846 8.48632C11.4091 8.51439 11.4425 8.53526 11.4806 8.54619C11.5186 8.55711 11.5595 8.55761 11.5979 8.54758C11.7282 8.56352 11.8073 8.33298 11.8073 8.33298C11.8073 8.33298 11.8113 8.26777 11.6563 8.38975C11.5912 8.4007 11.5844 8.37881 11.5682 8.34644C11.5526 8.28635 11.5597 8.22336 11.5884 8.16718C11.6114 8.10943 11.5603 8.08305 11.4862 8.12388Z" fill="white"/>
<path d="M12.3169 7.40996C12.3601 7.46423 12.4022 7.45977 12.4853 7.41944C12.507 7.40816 12.5257 7.39284 12.54 7.37453C12.5543 7.35622 12.564 7.33535 12.5684 7.31339C12.5903 7.22427 12.4612 7.35569 12.446 7.25562C12.4174 7.16301 12.4988 7.12568 12.5779 7.03506C12.5779 6.97382 12.5779 6.93053 12.4842 6.97982C12.4278 7.01362 12.3803 7.05778 12.345 7.10933C12.3096 7.16088 12.2872 7.2186 12.2793 7.27853C12.2742 7.36019 12.2585 7.36017 12.3169 7.40996Z" fill="white"/>
<path d="M13.3873 7.46968C13.4435 7.34862 13.4749 7.21966 13.4799 7.08883C13.4541 6.95539 13.3525 6.95985 13.2857 7.10672C13.2531 7.22091 13.2332 7.33764 13.2262 7.45525C13.2026 7.54337 13.3289 7.58021 13.3873 7.46968Z" fill="white"/>
<path d="M19.0368 8.95151C19.0368 8.95151 18.3412 9.38614 18.3238 9.39958C18.2547 9.45236 18.2884 9.64554 18.3238 9.62364C18.5953 9.50975 18.8439 9.35721 19.0598 9.17207C19.0912 9.17655 19.1075 8.92761 19.0368 8.95151Z" fill="white"/>
<path d="M18.9455 10.1353C18.9933 10.1572 19.114 10.0233 19.114 9.85596C19.1274 9.76933 19.0803 9.45268 18.9579 9.39692C18.9363 9.39194 18.9136 9.3924 18.8923 9.39822C18.871 9.40404 18.8519 9.41501 18.8372 9.42989C18.8225 9.44477 18.8128 9.46299 18.8091 9.48249C18.8055 9.50199 18.808 9.52201 18.8164 9.54032C18.799 9.59011 18.9017 9.76685 18.9287 9.86095C18.9523 9.93065 18.8956 10.1184 18.9455 10.1353Z" fill="white"/>
<path d="M15.0114 11.0436C15.0274 11.0588 15.0489 11.0686 15.0722 11.0712C15.0955 11.0739 15.1191 11.0692 15.1389 11.058C15.2803 11.0008 15.4277 10.9561 15.579 10.9246C15.6352 10.9246 15.6307 10.7956 15.5453 10.7907C15.43 10.7855 15.3163 10.8162 15.2236 10.8773C15.1557 10.8902 15.1433 10.8534 15.1299 10.822C15.1125 10.7404 15.168 10.6836 15.1557 10.6229C15.1376 10.6096 15.1159 10.6008 15.0928 10.5972C15.0696 10.5936 15.0459 10.5954 15.0238 10.6025C14.9493 10.6434 14.882 10.6937 14.8239 10.7518C14.7925 10.7712 14.7969 10.7892 14.8048 10.823C14.8278 10.8698 14.8688 10.8554 14.9171 10.834C14.9766 10.827 15.0069 10.8619 15.0013 10.9266C14.9913 10.9452 14.9869 10.9657 14.9887 10.9863C14.9905 11.0068 14.9983 11.0266 15.0114 11.0436Z" fill="white"/>
<path d="M20.008 11.1215C20.0231 11.1107 20.034 11.0959 20.0391 11.0793C20.0443 11.0627 20.0434 11.0451 20.0366 11.0289C20.008 11 19.9457 11.0155 19.9019 11.011C19.88 11.011 19.8137 11.0025 19.8457 10.9498C19.8703 10.922 19.8893 10.8906 19.9019 10.8572C19.9221 10.8188 19.9058 10.7924 19.8328 10.769C19.7707 10.7599 19.7074 10.7599 19.6453 10.769C19.6021 10.7765 19.5858 10.7954 19.5774 10.8427C19.5774 10.9149 19.6301 10.9114 19.6818 10.9423C19.6915 10.9498 19.6994 10.959 19.7047 10.9694C19.7101 10.9798 19.7128 10.9911 19.7128 11.0025C19.7128 11.014 19.7101 11.0253 19.7047 11.0357C19.6994 11.0461 19.6915 11.0553 19.6818 11.0628C19.6329 11.1026 19.5987 11.123 19.5487 11.1623C19.5257 11.1972 19.5106 11.2505 19.5813 11.2674C19.7065 11.2973 20.008 11.125 20.008 11.1215Z" fill="white"/>
</g>
<defs>
<clipPath id="clip0_2024_4162">
<rect y="0.425476" width="29.2538" height="19.599" rx="4.35534" fill="white"/>
</clipPath>
</defs>
</svg>
