<svg width="27" height="27" viewBox="0 0 27 27" fill="none" xmlns="http://www.w3.org/2000/svg">
<path d="M13.2327 22.4042C13.8393 22.4042 14.331 21.9125 14.331 21.3059C14.331 20.6993 13.8393 20.2075 13.2327 20.2075C12.6261 20.2075 12.1343 20.6993 12.1343 21.3059C12.1343 21.9125 12.6261 22.4042 13.2327 22.4042Z" fill="#A0576F"/>
<path fill-rule="evenodd" clip-rule="evenodd" d="M4.4458 7.02722C4.4458 4.6008 6.41281 2.63379 8.83923 2.63379H17.6261C20.0525 2.63379 22.0195 4.6008 22.0195 7.02722V20.2075C22.0195 22.6339 20.0525 24.601 17.6261 24.601H8.83923C6.41281 24.601 4.4458 22.6339 4.4458 20.2075V7.02722ZM6.09334 7.02722C6.09334 5.51071 7.32272 4.28133 8.83923 4.28133H17.6261C19.1426 4.28133 20.372 5.51071 20.372 7.02722V20.2075C20.372 21.724 19.1426 22.9534 17.6261 22.9534H8.83923C7.32272 22.9534 6.09334 21.724 6.09334 20.2075V7.02722Z" fill="#A0576F"/>
</svg>
