<svg width="120" height="952" viewBox="0 0 120 952" fill="none" xmlns="http://www.w3.org/2000/svg">
<mask id="mask0_2024_4230" style="mask-type:luminance" maskUnits="userSpaceOnUse" x="-71" y="0" width="191" height="1024">
<path d="M119.829 0H-71V1024H119.829V0Z" fill="white"/>
</mask>
<g mask="url(#mask0_2024_4230)">
<path d="M23.5743 28.6815L-69.814 121.998V250.558L-44.678 225.432V177.237H91.8276V226.465L116.953 251.572V121.998L23.5743 28.6815ZM91.8276 152.111H-44.678V132.399L23.5743 64.1897L91.8276 132.399V152.111Z" fill="#BAA1A9"/>
<path d="M115.758 360.145V303.938H-45.1811V283.449L23.0722 215.258L91.3245 283.449V291.831H116.46V273.057L23.0722 179.731L-70.3161 273.057V329.254H90.6323V349.734L22.379 417.925L-45.8641 349.734V341.352H-71V360.145L22.379 453.442L115.758 360.145Z" fill="#BAA1A9"/>
<path d="M109.335 900.2L91.8276 882.716V900.2V987.857L78.1829 976.849L58.92 961.289L54.423 957.668L38.8611 945.114L-69.7278 857.477V1024H64.035L38.899 998.874H-44.5928V910.052L65.5343 998.931L96.61 1024H116.964V907.833L109.335 900.2Z" fill="#BAA1A9"/>
<path d="M23.5743 655.673L-69.814 748.99V837.423L-44.678 857.704V810.572H91.8276V862.227H93.3362L116.953 885.826V748.971L23.5743 655.654V655.673ZM91.8276 785.465H-44.678V759.381L23.5743 691.19L91.8276 759.381V785.465Z" fill="#BAA1A9"/>
<path d="M117.02 633.344H65.714L117.02 665.828V727.04L91.8655 701.924V679.633L30.9568 641.062L21.9332 635.335L18.7734 633.344H-44.6206V701.838L-69.7566 726.964V556.459L-33.2443 519.983L-32.2473 518.988L-14.466 501.239L-10.0728 496.82L23.6317 463.142L52.553 492.051L34.7717 509.8L23.6317 498.669L5.5938 516.684V516.693L3.30686 518.988L-14.466 536.747L-44.6206 566.869V608.228H91.8655V566.869L61.1688 536.197L23.072 574.255L-5.71673 545.489L12.0552 527.739L23.072 538.747L43.4154 518.438L43.3969 518.428L61.1688 500.66L61.1883 500.679L91.3244 470.547V406.537L116.46 381.43V480.948L78.951 518.428L117.02 556.459V633.344Z" fill="#BAA1A9"/>
<path d="M78.9418 518.428L116.46 480.948V381.43L91.3152 406.537V470.537L61.1791 500.67L61.169 500.66L43.3877 518.428L43.4063 518.438L23.0721 538.747L12.0461 527.739L-5.72681 545.489L23.0721 574.255L61.169 536.197L78.9418 518.428Z" fill="#BAA1A9"/>
<path d="M-70.8951 0V18.176V22.8883V100.134L-41.48 75.0175V24.6519H90.4138V49.3037H119.829V22.8883V18.176V0H-70.8951Z" fill="#BAA1A9"/>
</g>
</svg>
