<svg width="97" height="771" viewBox="0 0 97 771" fill="none" xmlns="http://www.w3.org/2000/svg">
<path d="M24.2417 21.7794L-45.9819 91.9492V188.62L-27.0809 169.726V133.486H75.5649V170.504L94.4583 189.383V91.9492L24.2417 21.7794ZM75.5649 114.593H-27.0809V99.7704L24.2417 48.4799L75.5649 99.7704V114.593Z" fill="#BAA1A9"/>
<path d="M93.5596 271.024V228.76H-27.4592V213.352L23.8641 162.076L75.1867 213.352V219.655H94.0877V205.538L23.8641 135.361L-46.3596 205.538V247.796H74.6662V263.196L23.3429 314.472L-27.9727 263.196V256.893H-46.8738V271.024L23.3429 341.18L93.5596 271.024Z" fill="#BAA1A9"/>
<path d="M88.7292 677.12L75.5648 663.973V677.12V743.034L65.3046 734.756L50.8198 723.057L47.4383 720.333L35.7365 710.894L-45.9172 644.994V770.212H54.6661L35.7651 751.319H-27.0169V684.528L55.7935 751.361L79.161 770.212H94.4659V682.86L88.7292 677.12Z" fill="#BAA1A9"/>
<path d="M24.2417 493.247L-45.9819 563.417V629.915L-27.0809 645.166V609.724H75.5649V648.566H76.6993L94.4583 666.312V563.403L24.2417 493.233V493.247ZM75.5649 590.845H-27.0809V571.231L24.2417 519.955L75.5649 571.231V590.845Z" fill="#BAA1A9"/>
<path d="M94.5085 476.457H55.9288L94.5085 500.883V546.912L75.5935 528.026V511.264L29.793 482.261L23.0077 477.955L20.6316 476.457H-27.0377V527.962L-45.9387 546.855V418.643L-18.4832 391.215L-17.7335 390.467L-4.36281 377.12L-1.05934 373.798L24.2849 348.473L46.0323 370.212L32.6617 383.558L24.2849 375.188L10.7212 388.734V388.741L9.00157 390.467L-4.36281 403.821L-27.0377 426.471V457.571H75.5935V426.471L52.5111 403.407L23.864 432.025L2.21626 410.394L15.5799 397.047L23.864 405.325L39.1613 390.053L39.1474 390.046L52.5111 376.685L52.5257 376.7L75.1866 354.042V305.909L94.0877 287.03V361.863L65.8824 390.046L94.5085 418.643V476.457Z" fill="#BAA1A9"/>
<path d="M65.8754 390.046L94.0876 361.863V287.03L75.1796 305.909V354.034L52.5186 376.692L52.511 376.685L39.1403 390.046L39.1543 390.053L23.864 405.325L15.5729 397.047L2.2085 410.394L23.864 432.025L52.511 403.407L65.8754 390.046Z" fill="#BAA1A9"/>
<path d="M-46.7949 0.212158V13.8797V17.4231V75.5082L-24.6761 56.6218V18.7492H74.5018V37.2862H96.6206V17.4231V13.8797V0.212158H-46.7949Z" fill="#BAA1A9"/>
</svg>
