<svg width="18" height="15" viewBox="0 0 18 15" fill="none" xmlns="http://www.w3.org/2000/svg">
<g clip-path="url(#clip0_2104_4175)">
<path d="M18 1.77551C17.3381 2.07653 16.6265 2.28061 15.88 2.37245C16.6414 1.90306 17.2286 1.16327 17.5024 0.27551C16.7907 0.709184 15.9995 1.02551 15.1584 1.19388C14.4866 0.459184 13.5261 0 12.4612 0C10.4208 0 8.7686 1.69388 8.7686 3.78571C8.7686 4.08163 8.80343 4.37245 8.86315 4.64796C5.79265 4.4898 3.0705 2.98469 1.24911 0.688776C0.93061 1.25 0.746479 1.89796 0.746479 2.59184C0.746479 3.90306 1.3984 5.06633 2.38872 5.7449C1.78159 5.72449 1.21427 5.55612 0.71662 5.27041C0.71662 5.28571 0.71662 5.30102 0.71662 5.31633C0.71662 7.15306 1.9906 8.67857 3.67764 9.03061C3.36909 9.11735 3.04065 9.16327 2.70722 9.16327C2.46835 9.16327 2.23943 9.13776 2.01051 9.09694C2.4783 10.602 3.84186 11.6939 5.45923 11.7245C4.19519 12.7398 2.60271 13.3469 0.870892 13.3469C0.572302 13.3469 0.278688 13.3316 -0.00994873 13.2959C1.62234 14.3724 3.56318 15 5.65331 15C12.4462 15 16.1637 9.22959 16.1637 4.22449C16.1637 4.06122 16.1637 3.89796 16.1537 3.73469C16.8753 3.19898 17.5024 2.53571 17.995 1.77551H18Z" fill="white"/>
</g>
<defs>
<clipPath id="clip0_2104_4175">
<rect width="18" height="15" fill="white"/>
</clipPath>
</defs>
</svg>
