<svg width="22" height="22" viewBox="0 0 22 22" fill="none" xmlns="http://www.w3.org/2000/svg">
<g clip-path="url(#clip0_2175_1332)">
<path d="M21.4902 16.3151L21.4902 12.7334L20.5948 12.7334C20.1198 12.7334 19.6643 12.5448 19.3285 12.2089C18.9926 11.8731 18.804 11.4175 18.804 10.9426C18.804 10.4676 18.9926 10.0121 19.3285 9.67625C19.6643 9.3404 20.1198 9.15172 20.5948 9.15172L21.4902 9.15172L21.4902 5.57001C21.4902 4.85756 21.2072 4.1743 20.7034 3.67052C20.1997 3.16675 19.5164 2.88373 18.804 2.88373L-2.67029e-05 2.88373L-2.69769e-05 9.15172L0.895401 9.15172C1.37036 9.15172 1.82588 9.3404 2.16173 9.67625C2.49758 10.0121 2.68626 10.4676 2.68626 10.9426C2.68626 11.4175 2.49758 11.8731 2.16173 12.2089C1.82588 12.5448 1.37036 12.7334 0.895401 12.7334L-2.71334e-05 12.7334L-2.74074e-05 19.0014L18.804 19.0014C19.5164 19.0014 20.1997 18.7184 20.7034 18.2146C21.2072 17.7109 21.4902 17.0276 21.4902 16.3151ZM1.79083 14.4115C2.56047 14.2136 3.24245 13.7654 3.72941 13.1374C4.21637 12.5094 4.48064 11.7373 4.48064 10.9426C4.48064 10.1479 4.21637 9.37579 3.72941 8.74779C3.24245 8.11979 2.56047 7.67157 1.79083 7.47369L1.79083 4.67458L6.26797 4.67458L6.26797 7.36087L8.05882 7.36087L8.05882 4.67458L18.804 4.67458C19.0414 4.67458 19.2692 4.76892 19.4371 4.93685C19.605 5.10477 19.6994 5.33253 19.6994 5.57001L19.6994 7.47369C18.9297 7.67157 18.2478 8.1198 17.7608 8.74779C17.2738 9.37579 17.0096 10.1479 17.0096 10.9426C17.0096 11.7373 17.2738 12.5094 17.7608 13.1374C18.2478 13.7654 18.9297 14.2136 19.6994 14.4115L19.6994 16.3151C19.6994 16.5526 19.605 16.7804 19.4371 16.9483C19.2692 17.1162 19.0414 17.2106 18.804 17.2106L8.05882 17.2106L8.05882 14.5243L6.26797 14.5243L6.26797 17.2106L1.79083 17.2106L1.79083 14.4115Z" fill="#A0576F"/>
<path d="M8.05884 12.7334L8.05884 9.1517L6.26798 9.1517L6.26798 12.7334L8.05884 12.7334Z" fill="#A0576F"/>
</g>
<defs>
<clipPath id="clip0_2175_1332">
<rect width="21.4903" height="21.4903" fill="white" transform="translate(21.4902 0.197449) rotate(90)"/>
</clipPath>
</defs>
</svg>
