<svg width="22" height="23" viewBox="0 0 22 23" fill="none" xmlns="http://www.w3.org/2000/svg">
<g clip-path="url(#clip0_2175_1316)">
<path d="M3.46164 17.7316C3.34256 17.9371 3.14682 18.0871 2.91736 18.1485C2.6879 18.2099 2.44345 18.1779 2.23759 18.0593C1.55796 17.6651 0.993597 17.0995 0.600801 16.419C0.208006 15.7385 0.000512828 14.9669 -0.000976562 14.1812V7.01781C0.000682144 5.83075 0.473035 4.6928 1.3125 3.85351C2.15196 3.01422 3.29 2.54209 4.47706 2.54067V1.64524C4.47706 1.40776 4.5714 1.18001 4.73932 1.01208C4.90725 0.844156 5.135 0.749817 5.37249 0.749817C5.60997 0.749817 5.83772 0.844156 6.00565 1.01208C6.17357 1.18001 6.26791 1.40776 6.26791 1.64524V2.54067H12.5359V1.64524C12.5359 1.40776 12.6302 1.18001 12.7982 1.01208C12.9661 0.844156 13.1939 0.749817 13.4313 0.749817C13.6688 0.749817 13.8966 0.844156 14.0645 1.01208C14.2324 1.18001 14.3268 1.40776 14.3268 1.64524V2.54067C16.7955 2.54067 18.8039 4.54912 18.8039 7.01781V14.1812C18.8039 14.4187 18.7096 14.6465 18.5416 14.8144C18.3737 14.9823 18.146 15.0767 17.9085 15.0767C17.671 15.0767 17.4432 14.9823 17.2753 14.8144C17.1074 14.6465 17.013 14.4187 17.013 14.1812V8.80867H16.1176C15.8801 8.80867 15.6524 8.71433 15.4845 8.5464C15.3165 8.37848 15.2222 8.15072 15.2222 7.91324C15.2222 7.67576 15.3165 7.448 15.4845 7.28008C15.6524 7.11215 15.8801 7.01781 16.1176 7.01781H17.013C17.013 5.53677 15.8078 4.33153 14.3268 4.33153H4.47706C2.99602 4.33153 1.79077 5.53677 1.79077 7.01781H8.9542C9.19168 7.01781 9.41943 7.11215 9.58736 7.28008C9.75529 7.448 9.84962 7.67576 9.84962 7.91324C9.84962 8.15072 9.75529 8.37848 9.58736 8.5464C9.41943 8.71433 9.19168 8.80867 8.9542 8.80867H1.79077V14.1812C1.79077 15.1375 2.30565 16.0294 3.13392 16.5084C3.33942 16.6273 3.48929 16.823 3.55058 17.0524C3.61187 17.2817 3.58045 17.5261 3.46164 17.7316ZM18.5872 17.3869L15.2303 16.1324V11.6149C15.2303 10.2575 14.2668 9.07729 12.989 8.86956C12.603 8.80529 12.2077 8.82591 11.8306 8.92999C11.4534 9.03406 11.1034 9.21908 10.805 9.47218C10.508 9.72418 10.2695 10.0378 10.1059 10.3913C9.94227 10.7448 9.85758 11.1296 9.85768 11.5191V18.2912L8.94882 17.5677C8.94256 17.5624 8.9345 17.5624 8.92823 17.557C8.40499 17.1004 7.72504 16.8646 7.03147 16.8992C6.33789 16.9337 5.68476 17.236 5.20952 17.7423C4.72457 18.261 4.4646 18.9505 4.48642 19.6602C4.50823 20.3699 4.81004 21.0421 5.32592 21.53L5.82557 22.0117C5.99212 22.1729 6.21508 22.2625 6.447 22.2625C7.25288 22.2625 7.64866 21.282 7.06843 20.7223L6.55982 20.2316C6.39481 20.0676 6.30006 19.8458 6.2956 19.6131C6.29115 19.3805 6.37735 19.1552 6.53597 18.985C6.69458 18.8147 6.91319 18.7129 7.14557 18.7009C7.37795 18.6889 7.60589 18.7677 7.78119 18.9207L10.1962 20.8468C10.3279 20.9518 10.4867 21.0174 10.6541 21.0362C10.8216 21.055 10.9909 21.0262 11.1427 20.953C11.2945 20.8799 11.4225 20.7654 11.5122 20.6228C11.6018 20.4801 11.6494 20.3151 11.6494 20.1466V11.5164C11.6496 11.3856 11.6783 11.2563 11.7337 11.1377C11.789 11.0192 11.8697 10.9141 11.9699 10.83C12.0702 10.7459 12.1876 10.6847 12.314 10.6508C12.4404 10.6168 12.5727 10.611 12.7016 10.6335C13.1161 10.7016 13.4403 11.1314 13.4403 11.6123V16.7511C13.4402 16.9336 13.496 17.1118 13.6 17.2617C13.704 17.4117 13.8514 17.5263 14.0223 17.5901L17.9613 19.0622C18.4455 19.2435 18.8672 19.5605 19.1758 19.9753C19.4844 20.3902 19.6668 20.8852 19.7011 21.4011C19.7159 21.6279 19.8163 21.8405 19.9821 21.996C20.1479 22.1515 20.3666 22.2381 20.5939 22.2383C20.6136 22.2383 20.6333 22.2383 20.653 22.2365C21.1463 22.2034 21.5206 21.7771 21.4884 21.2847C21.4309 20.4246 21.1267 19.5994 20.6121 18.9079C20.0976 18.2164 19.3945 17.6889 18.5872 17.3869Z" fill="#A0576F"/>
</g>
<defs>
<clipPath id="clip0_2175_1316">
<rect width="21.4903" height="21.4903" fill="white" transform="translate(0 0.749817)"/>
</clipPath>
</defs>
</svg>
