<svg width="23" height="22" viewBox="0 0 23 22" fill="none" xmlns="http://www.w3.org/2000/svg">
<g clip-path="url(#clip0_2175_1349)">
<path d="M9.06836 10.999C7.98056 10.999 6.91719 10.6765 6.01272 10.0721C5.10825 9.46776 4.4033 8.60878 3.98702 7.60379C3.57074 6.59879 3.46182 5.49293 3.67404 4.42603C3.88626 3.35913 4.41008 2.37913 5.17927 1.60994C5.94846 0.84075 6.92847 0.316926 7.99536 0.104707C9.06226 -0.107512 10.1681 0.00140651 11.1731 0.417688C12.1781 0.83397 13.0371 1.53892 13.6414 2.44339C14.2458 3.34786 14.5684 4.41123 14.5684 5.49903C14.5669 6.95727 13.987 8.35537 12.9558 9.38651C11.9247 10.4176 10.5266 10.9976 9.06836 10.999ZM9.06836 1.83236C8.34316 1.83236 7.63425 2.04741 7.03127 2.4503C6.42829 2.8532 5.95832 3.42586 5.6808 4.09585C5.40328 4.76585 5.33067 5.50309 5.47215 6.21436C5.61363 6.92562 5.96284 7.57896 6.47564 8.09175C6.98843 8.60454 7.64177 8.95376 8.35303 9.09524C9.06429 9.23672 9.80154 9.16411 10.4715 8.88659C11.1415 8.60906 11.7142 8.1391 12.1171 7.53612C12.52 6.93314 12.735 6.22422 12.735 5.49903C12.735 4.52657 12.3487 3.59393 11.6611 2.9063C10.9735 2.21867 10.0408 1.83236 9.06836 1.83236ZM17.3184 21.999H15.485V17.3763C15.4841 16.6577 15.1982 15.9688 14.69 15.4607C14.1819 14.9526 13.493 14.6667 12.7744 14.6657H5.36228C4.64368 14.6667 3.9548 14.9526 3.44668 15.4607C2.93855 15.9688 2.65266 16.6577 2.65169 17.3763V21.999H0.818359V17.3763C0.819815 16.1716 1.29902 15.0167 2.15085 14.1649C3.00268 13.313 4.1576 12.8338 5.36228 12.8324H12.7744C13.9791 12.8338 15.134 13.313 15.9859 14.1649C16.8377 15.0167 17.3169 16.1716 17.3184 17.3763V21.999ZM20.985 7.21778C20.4749 7.24319 19.9956 7.46964 19.652 7.84759C19.3084 8.22553 19.1285 8.72419 19.1517 9.23444C19.1749 8.72419 18.995 8.22553 18.6514 7.84759C18.3078 7.46964 17.8285 7.24319 17.3184 7.21778C16.8082 7.24319 16.3289 7.46964 15.9853 7.84759C15.6417 8.22553 15.4619 8.72419 15.485 9.23444C15.485 11.3428 19.1517 13.9397 19.1517 13.9397C19.1517 13.9397 22.8184 11.3464 22.8184 9.23444C22.8415 8.72419 22.6617 8.22553 22.3181 7.84759C21.9745 7.46964 21.4952 7.24319 20.985 7.21778Z" fill="#A0576F"/>
</g>
<defs>
<clipPath id="clip0_2175_1349">
<rect width="22" height="22" fill="white" transform="translate(0.818359 -0.000976562)"/>
</clipPath>
</defs>
</svg>
