<svg width="23" height="22" viewBox="0 0 23 22" fill="none" xmlns="http://www.w3.org/2000/svg">
<g clip-path="url(#clip0_2175_1356)">
<path d="M18.235 3.66569H18.1424C17.9297 2.63131 17.3669 1.70186 16.5489 1.03397C15.7309 0.366079 14.7077 0.000567439 13.6516 -0.000976562L5.40165 -0.000976562C2.8744 -0.000976562 0.818312 2.05511 0.818312 4.58236V16.3661C0.769729 17.8905 2.63698 18.8906 3.87998 18.0042L6.59973 16.191C7.23223 17.9666 8.91248 19.249 10.9026 19.249H16.1248L19.7576 21.6709C21.0006 22.5573 22.8678 21.5572 22.8192 20.0328V8.24902C22.8192 5.72177 20.7622 3.66569 18.235 3.66569ZM2.86248 16.4789C2.81848 16.5513 2.6159 16.4449 2.65165 16.3661V4.58236C2.65165 3.06619 3.88548 1.83236 5.40165 1.83236H13.6516C15.1678 1.83236 16.4016 3.06619 16.4016 4.58236V10.999C16.4016 12.5152 15.1678 13.749 13.6516 13.749H7.23498C7.05348 13.7481 6.8839 13.8205 6.72623 13.903L2.86248 16.4789ZM20.985 20.0328C21.0207 20.1116 20.8154 20.2189 20.7741 20.1455L16.9104 17.5697C16.7597 17.4694 16.5827 17.4158 16.4016 17.4157H10.9016C10.3348 17.4139 9.78236 17.2367 9.3202 16.9084C8.85803 16.5802 8.50876 16.117 8.32031 15.5824H13.6516C16.1789 15.5824 18.235 13.5263 18.235 10.999V5.49902C19.7511 5.49902 20.985 6.73286 20.985 8.24902V20.0328Z" fill="#A0576F"/>
<path d="M12.1184 8.16502H8.81436C7.82036 8.16502 7.26036 8.73902 7.26036 9.67702C7.26036 10.125 7.42836 10.503 7.75036 10.797C8.04436 11.077 8.39436 11.217 8.77236 11.217H10.8444V12.575H8.66036C7.87636 12.575 7.20436 12.295 6.64436 11.735C6.09836 11.189 5.81836 10.517 5.81836 9.73302C5.81836 8.97702 6.04236 8.31902 6.47636 7.74502C6.93836 7.14302 7.52636 6.82102 8.26836 6.77902C8.15636 6.68102 8.05836 6.55502 7.97436 6.41502C7.77836 6.09302 7.68036 5.70102 7.68036 5.25302C7.66636 4.52502 7.93236 3.95102 8.45036 3.53102C8.88436 3.18102 9.41636 2.99902 10.0324 2.99902C10.8584 2.99902 11.5164 3.29302 12.0064 3.89502L11.2364 4.93102C10.8864 4.60902 10.5504 4.44102 10.2004 4.44102C9.59836 4.44102 9.16436 4.87502 9.16436 5.49102C9.16436 6.34502 9.71036 6.77902 10.7884 6.77902H12.1184V8.16502Z" fill="#EAC1B7"/>
</g>
<defs>
<clipPath id="clip0_2175_1356">
<rect width="22" height="22" fill="white" transform="translate(0.818359 -0.000976562)"/>
</clipPath>
</defs>
</svg>
