<svg width="22" height="22" viewBox="0 0 22 22" fill="none" xmlns="http://www.w3.org/2000/svg">
<g clip-path="url(#clip0_2175_1322)">
<path d="M18.804 5.61266H4.47714C4.09952 5.61196 3.72626 5.53198 3.38152 5.37788C3.03677 5.22379 2.72823 4.99902 2.47586 4.71812C2.72746 4.43615 3.03581 4.21053 3.3807 4.05607C3.72559 3.9016 4.09924 3.82177 4.47714 3.8218H20.5948C20.8323 3.8218 21.0601 3.72746 21.228 3.55954C21.3959 3.39161 21.4903 3.16385 21.4903 2.92637C21.4903 2.68889 21.3959 2.46113 21.228 2.29321C21.0601 2.12528 20.8323 2.03094 20.5948 2.03094H4.47714C3.28973 2.03094 2.15095 2.50264 1.31132 3.34227C0.471697 4.18189 0 5.32067 0 6.50808L0 15.4624C0 16.6498 0.471697 17.7885 1.31132 18.6282C2.15095 19.4678 3.28973 19.9395 4.47714 19.9395H18.804C19.5164 19.9395 20.1997 19.6565 20.7035 19.1527C21.2072 18.6489 21.4903 17.9657 21.4903 17.2532V8.29894C21.4903 7.58649 21.2072 6.90322 20.7035 6.39945C20.1997 5.89567 19.5164 5.61266 18.804 5.61266ZM19.6994 17.2532C19.6994 17.7466 19.2983 18.1486 18.804 18.1486H4.47714C2.9961 18.1486 1.79086 16.9434 1.79086 15.4624V6.50629C2.56597 7.08747 3.50834 7.40222 4.47714 7.40351H18.804C19.2983 7.40351 19.6994 7.80556 19.6994 8.29894V17.2532ZM17.9086 12.7761C17.9086 13.0136 17.8142 13.2413 17.6463 13.4092C17.4784 13.5772 17.2506 13.6715 17.0131 13.6715C16.7756 13.6715 16.5479 13.5772 16.38 13.4092C16.212 13.2413 16.1177 13.0136 16.1177 12.7761C16.1177 12.5386 16.212 12.3108 16.38 12.1429C16.5479 11.975 16.7756 11.8806 17.0131 11.8806C17.2506 11.8806 17.4784 11.975 17.6463 12.1429C17.8142 12.3108 17.9086 12.5386 17.9086 12.7761Z" fill="#A0576F"/>
</g>
<defs>
<clipPath id="clip0_2175_1322">
<rect width="21.4903" height="21.4903" fill="white" transform="translate(0 0.240082)"/>
</clipPath>
</defs>
</svg>
