<svg width="23" height="23" viewBox="0 0 23 23" fill="none" xmlns="http://www.w3.org/2000/svg">
<path d="M22.8184 9.41268V17.9157C22.8169 19.1308 22.3336 20.2958 21.4743 21.155C20.6151 22.0142 19.4502 22.4976 18.235 22.499H17.3184C17.0752 22.499 16.8421 22.4024 16.6702 22.2305C16.4983 22.0586 16.4017 21.8255 16.4017 21.5823C16.4017 21.3392 16.4983 21.1061 16.6702 20.9342C16.8421 20.7623 17.0752 20.6657 17.3184 20.6657H18.235C18.9644 20.6657 19.6639 20.376 20.1796 19.8602C20.6953 19.3445 20.985 18.645 20.985 17.9157V9.41268C20.9851 8.96252 20.8746 8.51924 20.6633 8.12175C20.452 7.72426 20.1464 7.38472 19.7732 7.13293L13.3565 2.80352C12.9031 2.49442 12.3671 2.3291 11.8184 2.3291C11.2696 2.3291 10.7336 2.49442 10.2802 2.80352L3.86353 7.13293C3.49037 7.38472 3.18474 7.72426 2.97344 8.12175C2.76215 8.51924 2.65167 8.96252 2.6517 9.41268V17.9157C2.6517 18.645 2.94143 19.3445 3.45715 19.8602C3.97288 20.376 4.67235 20.6657 5.4017 20.6657H6.31836C6.56148 20.6657 6.79464 20.7623 6.96654 20.9342C7.13845 21.1061 7.23503 21.3392 7.23503 21.5823C7.23503 21.8255 7.13845 22.0586 6.96654 22.2305C6.79464 22.4024 6.56148 22.499 6.31836 22.499H5.4017C4.18657 22.4976 3.02162 22.0142 2.1624 21.155C1.30317 20.2958 0.819819 19.1308 0.818363 17.9157V9.41268C0.817423 8.66259 1.00085 7.92376 1.35251 7.26121C1.70417 6.59866 2.21327 6.03269 2.83503 5.6131L9.2517 1.28277C10.0082 0.769389 10.9014 0.494934 11.8156 0.494934C12.7299 0.494934 13.623 0.769389 14.3795 1.28277L20.7962 5.6131C21.4186 6.03247 21.9285 6.59825 22.281 7.26075C22.6336 7.92325 22.8181 8.6622 22.8184 9.41268ZM18.235 14.2554C18.2374 15.0983 18.0725 15.9333 17.7499 16.712C17.4274 17.4907 16.9535 18.1977 16.3559 18.792L13.1338 21.9435C12.7811 22.285 12.3093 22.476 11.8184 22.476C11.3274 22.476 10.8557 22.285 10.5029 21.9435L7.2882 18.7994C6.54056 18.054 5.98835 17.1358 5.68053 16.126C5.37272 15.1162 5.31879 14.0461 5.52355 13.0104C5.7283 11.9748 6.18541 11.0057 6.85434 10.189C7.52327 9.37234 8.38337 8.73332 9.35838 8.3286C10.3334 7.92388 11.3932 7.76598 12.4438 7.86888C13.4945 7.97178 14.5035 8.33232 15.3815 8.91852C16.2594 9.50472 16.9792 10.2985 17.4769 11.2294C17.9747 12.1604 18.2351 13.1998 18.235 14.2554ZM16.4017 14.2554C16.4017 13.5017 16.2158 12.7596 15.8606 12.0949C15.5053 11.4302 14.9916 10.8633 14.3649 10.4446C13.7382 10.0258 13.018 9.76805 12.2679 9.69413C11.5178 9.62021 10.7611 9.73241 10.0647 10.0208C9.36835 10.3092 8.75385 10.7648 8.27565 11.3474C7.79745 11.93 7.47031 12.6215 7.32319 13.3607C7.17607 14.1 7.21352 14.864 7.43223 15.5853C7.65094 16.3066 8.04415 16.9628 8.57703 17.4958L11.7854 20.6327L15.067 17.4885C15.492 17.0645 15.8288 16.5604 16.0578 16.0055C16.2869 15.4506 16.4038 14.8558 16.4017 14.2554ZM14.5684 14.249C14.5684 14.7929 14.4071 15.3246 14.1049 15.7768C13.8027 16.2291 13.3732 16.5815 12.8707 16.7897C12.3682 16.9978 11.8153 17.0523 11.2819 16.9462C10.7484 16.8401 10.2584 16.5782 9.87382 16.1936C9.48923 15.809 9.22731 15.319 9.1212 14.7855C9.01509 14.2521 9.06955 13.6991 9.27769 13.1966C9.48584 12.6941 9.83831 12.2646 10.2905 11.9625C10.7428 11.6603 11.2745 11.499 11.8184 11.499C12.5477 11.499 13.2472 11.7887 13.7629 12.3045C14.2786 12.8202 14.5684 13.5197 14.5684 14.249Z" fill="#A0576F"/>
</svg>
