<svg width="23" height="23" viewBox="0 0 23 23" fill="none" xmlns="http://www.w3.org/2000/svg">
<path d="M21.4434 8.74902H20.985V7.83236C20.985 5.30511 18.9289 3.24902 16.4017 3.24902H12.735V1.41569C12.735 1.17257 12.6384 0.939417 12.4665 0.767509C12.2946 0.595601 12.0615 0.499023 11.8184 0.499023C11.5752 0.499023 11.3421 0.595601 11.1702 0.767509C10.9983 0.939417 10.9017 1.17257 10.9017 1.41569V3.24902H7.23503C4.70778 3.24902 2.65169 5.30511 2.65169 7.83236V8.74902H2.19336C1.43528 8.74902 0.818359 9.36594 0.818359 10.124V12.874C0.818359 13.6321 1.43528 14.249 2.19336 14.249H2.65169V15.1657C2.65169 17.6929 4.70778 19.749 7.23503 19.749H14.2906L17.9234 22.1709C18.2199 22.3689 18.5648 22.4826 18.921 22.4997C19.2772 22.5168 19.6313 22.4367 19.9455 22.268C20.2598 22.0999 20.5225 21.8496 20.7056 21.5438C20.8887 21.2381 20.9853 20.8883 20.985 20.5319V14.2481H21.4434C22.2014 14.2481 22.8184 13.6312 22.8184 12.8731V10.1231C22.8184 9.36502 22.2014 8.74811 21.4434 8.74811V8.74902ZM19.1517 20.5328C19.1517 20.5529 19.1517 20.6144 19.0802 20.6519C19.0069 20.6914 18.9555 20.6556 18.9409 20.6455L15.0771 18.0697C14.9264 17.9694 14.7494 17.9158 14.5684 17.9157H7.23503C5.71886 17.9157 4.48503 16.6819 4.48503 15.1657V7.83236C4.48503 6.31619 5.71886 5.08236 7.23503 5.08236H16.4017C17.9179 5.08236 19.1517 6.31619 19.1517 7.83236V20.5328ZM7.23503 9.20736C7.23515 8.84256 7.38018 8.49276 7.63821 8.2349C7.76598 8.10721 7.91764 8.00595 8.08454 7.93688C8.25144 7.86781 8.43032 7.8323 8.61094 7.83236C8.79157 7.83242 8.97042 7.86805 9.13727 7.93723C9.30413 8.00641 9.45572 8.10778 9.5834 8.23554C9.71109 8.36331 9.81235 8.51497 9.88142 8.68187C9.95049 8.84877 9.986 9.02765 9.98594 9.20827C9.98582 9.57307 9.84079 9.92287 9.58276 10.1807C9.32472 10.4386 8.97482 10.5834 8.61003 10.5833C8.24523 10.5832 7.89543 10.4381 7.63756 10.1801C7.3797 9.92205 7.2349 9.57215 7.23503 9.20736ZM16.4017 9.20736C16.4016 9.38798 16.366 9.56683 16.2968 9.73369C16.2276 9.90054 16.1263 10.0521 15.9985 10.1798C15.8707 10.3075 15.7191 10.4088 15.5522 10.4778C15.3853 10.5469 15.2064 10.5824 15.0258 10.5824C14.8451 10.5823 14.6663 10.5467 14.4994 10.4775C14.3326 10.4083 14.181 10.3069 14.0533 10.1792C13.7955 9.92114 13.6507 9.57123 13.6508 9.20644C13.6509 8.84165 13.7959 8.49184 14.054 8.23398C14.312 7.97612 14.6619 7.83132 15.0267 7.83144C15.3915 7.83156 15.7413 7.97659 15.9992 8.23463C16.257 8.49266 16.4018 8.84256 16.4017 9.20736ZM16.2614 13.5111C16.3905 13.7169 16.4326 13.9656 16.3785 14.2025C16.3244 14.4393 16.1784 14.645 15.9727 14.7743C15.0221 15.371 13.5289 16.0824 11.8193 16.0824C10.1097 16.0824 8.61644 15.371 7.66586 14.7743C7.46255 14.6439 7.31893 14.4385 7.26622 14.2028C7.2135 13.9671 7.25595 13.7201 7.38433 13.5155C7.51271 13.3109 7.71666 13.1652 7.95184 13.1102C8.18701 13.0551 8.43442 13.0951 8.64028 13.2214C9.38736 13.6908 10.546 14.249 11.8202 14.249C13.0944 14.249 14.2521 13.6908 15.0001 13.2214C15.206 13.0924 15.4548 13.0505 15.6917 13.1048C15.9285 13.1591 16.1341 13.3052 16.2633 13.5111H16.2614Z" fill="#A0576F"/>
</svg>
