<svg width="23" height="22" viewBox="0 0 23 22" fill="none" xmlns="http://www.w3.org/2000/svg">
<g clip-path="url(#clip0_2175_1366)">
<path d="M17.8435 1.94787L12.107 0.0457878C11.9191 -0.0156288 11.7174 -0.0156288 11.5295 0.0457878L5.79303 1.94787C3.91386 2.57029 2.65161 4.31837 2.65161 6.29837V11.0385C2.65161 17.0545 9.07286 20.734 11.0419 21.7176C11.5057 22.043 12.0575 22.065 12.5461 21.7781C14.5261 20.9815 20.9859 17.852 20.9859 11.0375V6.29837C20.9859 4.31837 19.7227 2.57029 17.8435 1.94787ZM19.1516 11.0385C19.1516 16.7035 13.5709 19.3893 11.8614 20.0777C10.1307 19.2124 4.48494 16.0031 4.48494 11.0385V6.29837C4.48494 5.11037 5.24211 4.0617 6.36961 3.6877L11.8183 1.88095L17.2669 3.6877C18.3935 4.0617 19.1516 5.11037 19.1516 6.29837V11.0385Z" fill="#A0576F"/>
</g>
<defs>
<clipPath id="clip0_2175_1366">
<rect width="22" height="22" fill="white" transform="translate(0.818359 -0.000976562)"/>
</clipPath>
</defs>
</svg>
