<svg width="26" height="26" viewBox="0 0 26 26" fill="none" xmlns="http://www.w3.org/2000/svg">
<path fill-rule="evenodd" clip-rule="evenodd" d="M18.2396 7.51036C18.2396 10.4731 15.8378 12.8749 12.875 12.8749C9.91227 12.8749 7.51048 10.4731 7.51048 7.51036C7.51048 4.5476 9.91227 2.14581 12.875 2.14581C15.8378 2.14581 18.2396 4.5476 18.2396 7.51036ZM16.6302 7.51036C16.6302 9.58429 14.949 11.2655 12.875 11.2655C10.8011 11.2655 9.11984 9.58429 9.11984 7.51036C9.11984 5.43643 10.8011 3.75518 12.875 3.75518C14.949 3.75518 16.6302 5.43643 16.6302 7.51036Z" fill="#A0576F"/>
<path fill-rule="evenodd" clip-rule="evenodd" d="M21.4583 18.7759C21.4583 21.4424 17.6154 23.604 12.875 23.604C8.13461 23.604 4.29175 21.4424 4.29175 18.7759C4.29175 16.1094 8.13461 13.9478 12.875 13.9478C17.6154 13.9478 21.4583 16.1094 21.4583 18.7759ZM19.8489 18.7759C19.8489 19.2695 19.4763 20.0442 18.1553 20.7872C16.8848 21.5019 15.0212 21.9946 12.875 21.9946C10.7289 21.9946 8.86527 21.5019 7.59474 20.7872C6.27376 20.0442 5.90111 19.2695 5.90111 18.7759C5.90111 18.2823 6.27376 17.5077 7.59474 16.7646C8.86527 16.0499 10.7289 15.5572 12.875 15.5572C15.0212 15.5572 16.8848 16.0499 18.1553 16.7646C19.4763 17.5077 19.8489 18.2823 19.8489 18.7759Z" fill="#A0576F"/>
</svg>
