<svg width="22" height="23" viewBox="0 0 22 23" fill="none" xmlns="http://www.w3.org/2000/svg">
<g clip-path="url(#clip0_2175_1327)">
<path d="M17.0131 6.10287H15.9153C17.1806 4.86718 17.374 3.24198 16.4033 1.94808C16.1645 1.62717 15.8643 1.35693 15.5201 1.1531C15.1759 0.949263 14.7947 0.815893 14.3985 0.760745C14.0027 0.702562 13.5992 0.723744 13.2116 0.823054C12.8241 0.922365 12.4602 1.09782 12.1411 1.33919C11.534 1.79407 11.0863 2.37341 10.7559 2.9626C10.4255 2.37251 9.97775 1.79407 9.37065 1.33919C9.05177 1.0978 8.68801 0.922331 8.30059 0.823017C7.91317 0.723703 7.50986 0.702534 7.11417 0.760745C6.71803 0.816086 6.33683 0.949537 5.99267 1.15336C5.64851 1.35718 5.34825 1.62731 5.10931 1.94808C4.14404 3.23481 4.33029 4.84927 5.59911 6.10287H4.47714C2.00844 6.10287 0 8.11131 0 10.58V17.7434C0 20.2121 2.00844 22.2206 4.47714 22.2206H17.0131C19.4818 22.2206 21.4903 20.2121 21.4903 17.7434V10.58C21.4903 8.11131 19.4818 6.10287 17.0131 6.10287ZM13.2165 2.77188C13.4359 2.60712 13.6974 2.52116 13.966 2.52116C14.3268 2.52116 14.7701 2.75486 14.9715 3.0226C15.5455 3.78729 15.0101 4.49468 14.6644 4.82509C13.2667 6.06526 11.7838 6.10287 11.6576 6.10376H11.6459C11.6632 6.02047 11.6683 5.93512 11.6612 5.85036L11.6594 5.83155C11.7391 5.29609 12.0722 3.6297 13.2165 2.77188ZM6.8733 4.84569C6.5026 4.49199 5.96803 3.78729 6.54199 3.0217C6.74347 2.75397 7.03627 2.58025 7.36758 2.5328C7.70157 2.48982 8.0293 2.5713 8.29703 2.77188C9.44228 3.63059 9.77538 5.29877 9.85508 5.83066L9.85329 5.84946C9.84613 5.93422 9.85125 6.01957 9.86851 6.10287H9.85687C9.73061 6.10287 8.24778 6.06436 6.8733 4.84569ZM4.47714 7.89283H9.69211C9.01964 9.63981 6.40947 9.68279 6.2662 9.68368C6.14861 9.68374 6.03219 9.70696 5.92357 9.75201C5.81496 9.79707 5.71628 9.86307 5.63317 9.94626C5.46533 10.1143 5.3711 10.3421 5.37122 10.5796C5.37128 10.6971 5.3945 10.8136 5.43955 10.9222C5.48461 11.0308 5.55061 11.1295 5.6338 11.2126C5.71699 11.2957 5.81574 11.3616 5.9244 11.4065C6.03306 11.4515 6.14951 11.4746 6.2671 11.4745C7.53592 11.4745 9.57749 11.0376 10.7442 9.63354C11.911 11.0385 13.9526 11.4745 15.2214 11.4745C15.4589 11.4745 15.6866 11.3802 15.8545 11.2123C16.0225 11.0443 16.1168 10.8166 16.1168 10.5791C16.1168 10.3416 16.0225 10.1139 15.8545 9.94595C15.6866 9.77802 15.4589 9.68368 15.2214 9.68368C15.0942 9.68368 12.4652 9.6604 11.7946 7.89283H17.0122C18.4933 7.89283 19.6985 9.09807 19.6985 10.5791V15.9517H1.79086V10.5791C1.79086 9.09807 2.9961 7.89283 4.47714 7.89283ZM17.0131 20.4288H4.47714C2.9961 20.4288 1.79086 19.2236 1.79086 17.7425H19.6994C19.6994 19.2236 18.4942 20.4288 17.0131 20.4288Z" fill="#A0576F"/>
</g>
<defs>
<clipPath id="clip0_2175_1327">
<rect width="21.4903" height="21.4903" fill="white" transform="translate(0 0.730347)"/>
</clipPath>
</defs>
</svg>
