<svg width="23" height="22" viewBox="0 0 23 22" fill="none" xmlns="http://www.w3.org/2000/svg">
<path d="M9.98503 21.0824C9.98503 21.5884 9.57436 21.999 9.06836 21.999H5.40169C2.87444 21.999 0.818359 19.9429 0.818359 17.4157V4.58236C0.818359 2.05511 2.87444 -0.000976562 5.40169 -0.000976562H12.735C15.2623 -0.000976562 17.3184 2.05511 17.3184 4.58236V6.41569C17.3184 6.92169 16.9077 7.33236 16.4017 7.33236C15.8957 7.33236 15.485 6.92169 15.485 6.41569V4.58236C15.485 3.06619 14.2512 1.83236 12.735 1.83236H5.40169C3.88553 1.83236 2.65169 3.06619 2.65169 4.58236V17.4157C2.65169 18.9319 3.88553 20.1657 5.40169 20.1657H9.06836C9.57436 20.1657 9.98503 20.5764 9.98503 21.0824ZM13.6517 5.49902C13.6517 4.99302 13.241 4.58236 12.735 4.58236H5.40169C4.89569 4.58236 4.48503 4.99302 4.48503 5.49902C4.48503 6.00502 4.89569 6.41569 5.40169 6.41569H12.735C13.241 6.41569 13.6517 6.00502 13.6517 5.49902ZM5.40169 13.749C4.89569 13.749 4.48503 14.1597 4.48503 14.6657C4.48503 15.1717 4.89569 15.5824 5.40169 15.5824H7.23503C7.74103 15.5824 8.15169 15.1717 8.15169 14.6657C8.15169 14.1597 7.74103 13.749 7.23503 13.749H5.40169ZM22.8184 15.5824C22.8184 19.1207 19.94 21.999 16.4017 21.999C12.8634 21.999 9.98503 19.1207 9.98503 15.5824C9.98503 12.044 12.8634 9.16569 16.4017 9.16569C19.94 9.16569 22.8184 12.044 22.8184 15.5824ZM20.985 15.5824C20.985 13.0551 18.9289 10.999 16.4017 10.999C13.8744 10.999 11.8184 13.0551 11.8184 15.5824C11.8184 18.1096 13.8744 20.1657 16.4017 20.1657C18.9289 20.1657 20.985 18.1096 20.985 15.5824ZM16.4017 11.9157C15.6427 11.9157 15.0267 12.5317 15.0267 13.2907C15.0267 14.0497 15.6427 14.6657 16.4017 14.6657C17.1607 14.6657 17.7767 14.0497 17.7767 13.2907C17.7767 12.5317 17.1607 11.9157 16.4017 11.9157ZM16.4017 15.5824C15.8957 15.5824 15.485 15.993 15.485 16.499V18.3324C15.485 18.8384 15.8957 19.249 16.4017 19.249C16.9077 19.249 17.3184 18.8384 17.3184 18.3324V16.499C17.3184 15.993 16.9077 15.5824 16.4017 15.5824ZM9.98503 10.0824C9.98503 9.57636 9.57436 9.16569 9.06836 9.16569H5.40169C4.89569 9.16569 4.48503 9.57636 4.48503 10.0824C4.48503 10.5884 4.89569 10.999 5.40169 10.999H9.06836C9.57436 10.999 9.98503 10.5884 9.98503 10.0824Z" fill="#A0576F"/>
</svg>
